<mxfile host="app.diagrams.net" modified="2023-11-12T21:05:11.380Z" agent="Mozilla/5.0 (Macintosh; Intel Mac OS X 10_15_7) AppleWebKit/537.36 (KHTML, like Gecko) Chrome/119.0.0.0 Safari/537.36" etag="J_7OwrOzxSFX6ELozPdm" version="22.1.0" type="device">
  <diagram id="fjiyY-1VLN22z1ra6Ywj" name="Page-1">
    <mxGraphModel dx="1434" dy="711" grid="1" gridSize="10" guides="1" tooltips="1" connect="1" arrows="1" fold="1" page="1" pageScale="1" pageWidth="850" pageHeight="1100" math="0" shadow="0">
      <root>
        <mxCell id="0" />
        <mxCell id="1" parent="0" />
        <mxCell id="IcFnWrSgQMhNx_Vj9jzx-1" value="&lt;b&gt;Web&lt;/b&gt;:&lt;br&gt;Angular&lt;br&gt;NGXS" style="rounded=1;whiteSpace=wrap;html=1;" parent="1" vertex="1">
          <mxGeometry x="280" y="30" width="120" height="60" as="geometry" />
        </mxCell>
        <mxCell id="IcFnWrSgQMhNx_Vj9jzx-3" value="&lt;br&gt;Backend - dotnet core:&lt;br&gt;Controller&lt;br&gt;Services&lt;br&gt;Executers&lt;br&gt;Data Access&lt;br&gt;Cache - NeoSmart&amp;nbsp;" style="rounded=1;whiteSpace=wrap;html=1;" parent="1" vertex="1">
          <mxGeometry x="320" y="170" width="200" height="160" as="geometry" />
        </mxCell>
        <mxCell id="IcFnWrSgQMhNx_Vj9jzx-6" value="&lt;span&gt;Database - Elastic search&lt;/span&gt;" style="shape=cylinder3;whiteSpace=wrap;html=1;boundedLbl=1;backgroundOutline=1;size=15;" parent="1" vertex="1">
          <mxGeometry x="440" y="360" width="120" height="140" as="geometry" />
        </mxCell>
        <mxCell id="IcFnWrSgQMhNx_Vj9jzx-8" value="" style="rounded=1;whiteSpace=wrap;html=1;" parent="1" vertex="1">
          <mxGeometry x="120" y="270" width="120" height="60" as="geometry" />
        </mxCell>
        <mxCell id="IcFnWrSgQMhNx_Vj9jzx-9" value="Routing - Graphhopper Java" style="text;html=1;strokeColor=none;fillColor=none;align=center;verticalAlign=middle;whiteSpace=wrap;rounded=0;" parent="1" vertex="1">
          <mxGeometry x="120" y="285" width="120" height="30" as="geometry" />
        </mxCell>
        <mxCell id="IcFnWrSgQMhNx_Vj9jzx-12" value="&lt;span&gt;Image creator - dotnet core 5&lt;/span&gt;" style="rounded=1;whiteSpace=wrap;html=1;" parent="1" vertex="1">
          <mxGeometry x="120" y="170" width="120" height="60" as="geometry" />
        </mxCell>
        <mxCell id="IcFnWrSgQMhNx_Vj9jzx-14" value="Elevation - dotnet core 5" style="rounded=1;whiteSpace=wrap;html=1;" parent="1" vertex="1">
          <mxGeometry x="600" y="170" width="120" height="60" as="geometry" />
        </mxCell>
        <mxCell id="IcFnWrSgQMhNx_Vj9jzx-16" value="&lt;span&gt;GPX format conversion - GPSBabel C++&lt;/span&gt;" style="rounded=1;whiteSpace=wrap;html=1;" parent="1" vertex="1">
          <mxGeometry x="600" y="270" width="120" height="60" as="geometry" />
        </mxCell>
        <mxCell id="IcFnWrSgQMhNx_Vj9jzx-18" value="Ngnix" style="rounded=1;whiteSpace=wrap;html=1;" parent="1" vertex="1">
          <mxGeometry x="120" y="120" width="600" height="20" as="geometry" />
        </mxCell>
        <mxCell id="IcFnWrSgQMhNx_Vj9jzx-19" value="&lt;b&gt;Mobile&lt;/b&gt;:&lt;br&gt;Angular&lt;br&gt;NGXS&lt;br&gt;Capacitor" style="rounded=1;whiteSpace=wrap;html=1;" parent="1" vertex="1">
          <mxGeometry x="440" y="30" width="120" height="60" as="geometry" />
        </mxCell>
        <mxCell id="IcFnWrSgQMhNx_Vj9jzx-20" value="" style="shape=image;verticalLabelPosition=bottom;labelBackgroundColor=#ffffff;verticalAlign=top;aspect=fixed;imageAspect=0;image=data:image/png,iVBORw0KGgoAAAANSUhEUgAAAOEAAADhCAMAAAAJbSJIAAAAzFBMVEX////DAC/dADHQADDBACXcACfCACvCACjdAC3dAC/AABrBACDcACW+AADDACTocoLXcoHbABvcACHbABXgMUzIMUrtxsy/ABH13eHbAA7cAB/78fPmrLTdj5q/AAjbABftmqTptr3wq7TNSl7GFjrfIELkWWzvo6z419vaAAD75unjS2DqhJHpeYjytLzag47hO1PmYnTkpK3skZ3ZeYbJLEfPU2XhmqT1xMvqgY7PAB387vH30NXVaXjGEjfeFDvKAADcipXLPVTSXG1tpM47AAALT0lEQVR4nO2da1faTBSFwy3ctYAttxaoVgRFWl9rS6utvfz///RmEqKBc2YyM+dApGuejy5XZAvsPWcnk3iew+FwOBwOh8PhcDgcDofD4XA4HA4HwsP19x9vsn4Ru6N3+9hpFIrd8sdZ1i9lF9xfnPTblXy+kMv5R90PXy+zfkG8DJdXcyEvHyoM8OvNP/8Ns35ZbKxuOoNI3pPCUOToy/usXxoHD9ftcamazwOFAeVa7dB9p3db7TQS8rYUBhS79cP1nfvJSX9LHlR4wL5zetVvV7blYQqjr+TrA/Od1U1/gMmTKIzM9XB8J/CWVgmXJ1cY+k73EHynd5vf9hZdhYfgO/eTc8RbDBSGvpN790J9ZyjzFiOFse/cZy0HsJp2ZN5iqjASefaifOfheNwqpXw6jRTmhO80X4rvzBb5jq48A4U54TtHnzP3nUsNb7FWGPrOz3e97OQNTz/peAtBYS78St5ltN55P5WuW1R8N1QYimzu33cejgfa3rJBa1kzl7j39c5sUTLxliSVK++sbCMx8J1abT++Y+4tSTor703XTmHAHnzHyluSb+FjcJAPvrXEXa93ltO5jbckaJ0Gh3lr9U1MiGyevd2Fub45bilmIj2qpfBQdcKbGBL4zl9m35ktKrbekqR9Gx7tXZ2oMBf5zgOXvMvJI8Fbkm9hJ/pwDe29ZkNk1//N4DtUb0lSOl4f9FWRRWK43vlK852l7kykxTz+j/eaPAojkWdv7QXO5nzywrSPsU19lHLTfiEw7DAKzHee7Y+Q+ggjQnawGMyaynniwJTUB9TtBXrnjJ/S1jJxYGLqb+D/JCic8ilcp30MOfWfKX8hKLxusClcp30MR+qvKf4gKJy0uQRW+5t2MOQLjPpXgsLlgEth43rr0Fypn8vVCHnoPYy5FPa3e2y+1K9RFuGXXIFYmYJjs6V+l3QSoM+ksAPnALbUpwS+5w14Ir9yghybK/VHFIHeJ55A3Ej7GKbU91+TFN5Qx/qQrbSP4VFICnzPW7BEfnuCHpwn9Y8+khRecARidYx7wXDEoZAU+J73vsWgEKR9DEvq12iF/4wjEEHax/Q43sQurQi/ZwjEEkz7GI7UpwW+543pgdiXt34cqU+LQ897JAcimvYx9NQnzb+CK7JCNO1j6KlPDHzPOyY3+Xnl8cmzPmn+FdxSZ+DBRHl8cuoTA9/zTomRXx2rj09u+Ov/ERWuiJHf+JbyB6ipT5p/BT1i5M/T0oo66xMDn1x7K9I+hpj6tPlXQKu9Ydqfbv+AmPqUwjuCVHtXPm0fbvgL/M9JqU8OfGLtPQbr/skvMOyQUp84/wootXcFpn2+kAM/o6R+8RVZIaX2HlxsH201LnSBvVNSnzj/Cgi1d7UDjnZVKsDPFaXhJxXeEYTau7HYPthlP/iUjkBEElKfHPik2hvO9otGoBCuJAmpT51/BdZTfukGHKtdDRT6MMLsU58e+ITauw/WU8tWeAUt7I7sU5864Qtsa2+Y9t7Jeg8pHFptU588/wpsa+/xavtIM/GBF1dBj8C7a5v6DIFvXXsjaR/2BUIhEtOWCsnzr8Cy9oZpP+xU1wpzXeAPlqnPEPi2tXd1AA40Cf9VBfyFWTb8xMI7wq72hmm/LiZDhchEYJf65PlXYFd798Elg6voPxXtt4CLU7uGnyPw7WpvJO2nyf34iAdapT5HHNrV3jDt7+f5hMJcE7zHNqnvw1HMBovaG0n7OHTWCuu/wW9YpD5L4FvV3h2Q9k99z1ohsji1SH1y4R1hXnuH2yo2WcaZE+/sQnzefNZnCXyb2nsACrXn1W2s0P8Dfsc89cmFd4Rx7V1tg2PMniLnaXfeCFxnb97wM8y/AuPae+tCS8Hzd/lJIbI4NU59lsC3qL3ncINA/ylTn3dYwiwznvU55l+BYe39tK3imcTq/Vkh8iUyTX164R1hWHvDtE8uGp4V+h/A7xmmPkPhHWFWeye2VcSsEp/zxD5guDg1TH2W+VdgVnsjaT9NrBkSCst/wW+apT5T4BvW3hvbKiI2ppPkXu4RtKQjkzeRZf4VGNXeSNpvLIqSCuvvwO8apT5D4R1hUnsjs71oSXGFyOLUqOFnCnyz2htJ++XGmmjjjgPI4tQk9XnmX4H+lL+9rUKwWbhuKCzDxalJ6nMFvkntjaT9bF5JUvCTNOEmUIPU55nwBfq1dx++4sX5SZK710nu4Pijn/pM869Au/ZG0t4c7dRnC3yD2htJe3O0U59p/hXo1t5I2tugq5At8PVr7xZMext0U5+l8I7QrL0l2yqM0W34meZfgWbtjaS9HZqpzxf4ntfRCcT4lgl0NBt+vjjUrL0bMO1t0Up9psI7Qqv2RtLeFq3UZwx8vdqbJe1jdFKfbf4V6NTeyCZKe3RSnzHwtWpvprSP0Wj4mQrvCI3aW7mtwhyN1GebfwXptTdX2sdoNPyMga9Te0s2UdqTnvp8868gtfZGZnsa6bN+jfXvpdXe2CbKVqOE8P0IoQ7bjNTUZyu8I9Jqb2QT5XJcxcDvfYm0GWmpzzj/ClJqb+SWCbJ1EK4Qy7aU1GcN/NTaG0n7S8k8Irl/KfKlSkl9xvlXoK69sU2UsuZDphCZZtUNP1vhHaGuvbG0l7mvRCHSnKakPmvgp9TeWNovZasg2V124Wn9lIafc/4VqKZ8LO2lFatMIeY1ytTnDXxl7Y3N9jKfUdwpuQv/qDL1OSd8gaL2xtJe3rBKFWJeo0h91vlXoKi9sVsmyFd5UoXIJUSq1GcOfNWbgm2ilPqM6n7eiNcoUp91/hXIa2/slgmKXkeuEHvN8tRnDnxF7Y2lvdxnlPdkx4YFqULGwjtiJot8LO1VZ3JUCpEXLU191vlXIKu90VsmtBTTpEIhZo/Shp878KW1N3bLBIXPqJ8cgHmNLPW541BWe6O3TFCeMlYpxLxG0vCzFt4RuD1it0zoKc/jKJ/+gHkNnvrsgS+rvZELLb1vymlZrRDxGjz1medfAVp7o7dMaCtbK6VCbF2Dpz574Etqb+RCS7XPpD2jBPMaNPVZC+8IrPZGtlWkXpqiVnj0GTki1vAzz78C7Ez3GEl7tc+kPmcGmaHQ1GcPfLT2RjZRpvlMqkKsfcEafu75VwAHojZ26YXaZ9Kfu4Z5zWeY+ryFdwSsvUvHkGnaudS0pyEd/XgF+AsicQeBj9beSGmfejo89XlPRQjMfPb5V8B0b2/TJ1pJ/g38gR8EIs+DElgUlpv8cRjQu+ozaGRQ6Hf/7OrBT6tz+o0i6QprPzmugJRxWqLeHZqqsF7byQc0we2Y5jg0hcUR3F3LzvCY9HWkKCw3f+zn+aQky7FXGBjM/h72+HBibTm2Cv3ah/0+lnRZtbQcS4X1HQyEadx2rCzHSmGxuQeDgQyv+xY357FQGBhMVg9ev5yaW46xQn90luHTZIXlGGo0VLh3g4Es82aWY6awXuS94sKOScvEckwUHnXhFsxMGH6b61uOvsJy81VWBgMxsBxdhRkbDOThpKOnUU+h373L2mAgmpajpfBlGAxkMtC4pF9D4YsxGMjwW/oqJ1XhizIYSLrlpDXCoy/sp6+ZmX1SW4767Fr3jnNfyq5YPVpeqZCr+dyXkOyKi5b87IXiiqER90VAu2QhtRyZwuLo80s2GMj9jcRycIX+6O9LNxiIxHIwhX739SEYDAS1HERhLXcoBgO5aIBVDlBYrx2SwUAW24PVlsJi8+NhGQxk23I2FAYGs58Se7fMNiryhMLAYHZ1lmzfJC3nSaF/yAYDOS21N+9fevAGA4kr8sJ6BcN/XVrm3B+HFwIIheXmP2EwkPCsXGGXp+GzZ3U+Luz2NHz2nBb2f5bM4XA4HA6Hw+FwOBwOx7/A/0fFGxADXZ4GAAAAAElFTkSuQmCC;" parent="1" vertex="1">
          <mxGeometry x="212" y="20.42" width="40" height="40" as="geometry" />
        </mxCell>
        <mxCell id="IcFnWrSgQMhNx_Vj9jzx-23" value="" style="shape=image;verticalLabelPosition=bottom;labelBackgroundColor=#ffffff;verticalAlign=top;aspect=fixed;imageAspect=0;image=data:image/png,iVBORw0KGgoAAAANSUhEUgAAAOEAAADhCAMAAAAJbSJIAAAAeFBMVEX///8Ol0gAlEFzuIoAjjEAlUQAkToAkDYAjzMAjS4Akz4AkTn6/fvs9e/L49Py+PQlnFNZrXaAvpTe7eOq0rfF4M7l8elOqW7X6t09o2Iwn1qkz7J4uo4onVW+3MhSq3GPxaBksn6y1r2Ux6U5omBgsHyIwZqm0LO6RLh9AAAHp0lEQVR4nO2d2XajOhBFLRkxCPAQz3bieIid///Da990p21DgVRISMViv/RTE50FOugIuWow6Onp6enp6enp0SSbrWeZ60FYZP4VRFEUfM1dD8QSexEKduf27971YCww20TsH9Fm5npAhhkPE8EeEclw7HpQJtlFnL3Co53rYRljwcKCvjshW7gemhGWq1iUCrw9qvFq6Xp4jcneEkjfz3R8I/56/E5lhb47Mv12PcgGjCZpjb476WTkeqBI8ik4AV+n4zR3PVgM16T4hoDgydX1cLU5yboJ+IyUJ9dD1mK9jepFvRBt166Hrcz4GKhNwGdEcCSykDsH6hPwGR6cXQ9egVtGQuq743+ues5IGPzOVdlrRsJwy1XeLuTKMhIGX3MVlJEw+JirKjISBu9yVU1GQmn0KlfNQ70lmhoy9GXXcfShkpEwpB8+5Kp8ilqiqSEC97nqoJGRMPDk4FTfiduYgM9I7i5Xrb+aLtHUiL7c5CpkRsLgJledY7sT8Bket52r9gaXaGqErM1cdctIbT2g/xDt5ars3fgSTVFj8t7KQm4X2X9DQMgWctVi0vYEfCac2M1Vy0+jGQmDiD8t5irzGQnDLVdZ0mcnI2Gwk6vWW1sZCUNqfIM8v7S2RFNDBBejueqA3sa2Bw8OxvS1kZEwmMpVbWUkDCZyVeGoj180P3jUbkbC0CxXtZ+RMDTIVUfnSzQ1RHzECdz46aBlyA3qDtIReJOIuIuLwPWotQj0Q9WWxhz8i9jqCpzRuoW3m6i7ifNN4T3xSKh7APDN9zf9K1w3Fg8RCrlMwzCUDScwv19D/6/zoW2FIhLD3Wm/n19XUYp+AETE3ub7/e4Y6c4S6wrjz4ePmaNhjHuZhttf09+les+CZYVCvryOsitmTyB+PIM51ltT2VUoWDHC5BttN45ftntXOmOwqzAszWhvmslZFsao8xhYVRgB6eWgJ5EXLrDQuIBNhfCCaajzoMqSTxIaS0ebCiu2ZzcaT0JQ8qhrrKxsKozg7wgZU74J4qPk/8/UH1ObCuOKj3pL5SHysoSXxV4oDKquM0oajVA94ThTONgp3ga6Cgfvam5BWKHi0oSywoGSoZJWmKsYKmmFSoZKW+FgXm+oxBUqGCp1hfWGSl7hYFJjqPQV1hkqfYV1htoBhTWG2gWFg7cqQ+2EwkpD7YbCKkPtiMIcPhvXEYWDNWio5BRCx+pOkKGSU3iBPslChkpO4VBCO3Cf5VempzAEj7iUGyo9hbz4oeUP41JDJaiQRdCRulJDpaiQJdApnlPJwEkqZAH0ReNafFBpKhQCMtRp4Qs2TYWMf0HX/3g1VKIK4TOD49cXP1WF6oZKViFLoCPKL4ZKVyF8aPDZUAkrFFzJUAkrZAI01MejFpQVVhjqw00krRA21Nk/Q6WtEDbU/a8E4gphQz38NVTqCgWHfoB1kd1QWHH47Y+hklfI5AX4S2MuuqGQpQfgT/38tKMDClkAGmrSEYUsgQz1HHVEIZOQoR5lRxRWGWo3FDI5Bf5cBmyvklNYYahJRxSyACoSsC99XxJUyBKoRkBpiUSKCoGfnwCQVFh6KL9TCmFD7YxClqq3CSCqEDbUziiEDbUzCpUNla5CMem6QiY/u66QpUq/n6eskMUqhkpaoZKh0lbI0vqacsQVKhgqcYWM1xoqdYUsrDNU8gpZXFOmk75CllR3P+iAwhpD9VjhUfX/VxuqHwpLKw5slEsN8BU8ityP3+OHJcuvTKNUWPgOjmLvR9UIUbLvctKp+QEb6tSPyh9lH+n16tlBR211isZZVSgKh9Z3mnWjgbMahSOarhQWliZr7YJ9Qdn2W/GYrTOFLHoyi4W6A/4iC/XyvaqEdS9D9hv2sndUyUURbU8PR/yys2YLDdsKmYg33+s8n+2H6MrDIoxX5/0sz5fr+VG74Jt1hfcBRnEchVh9P9eQ/18EcxVthe+NRuoADq8byjlTqrF7R0LnHyFG/hZiLyfSbkJHq8jubQrrChx8+9TOoh5MD3pSpZL1CyUP7r9qoSNRaB0O+CVnVPxUMmy/Ej96A9XRqHeQB/2d6mjc/8l1j646TPTwMtWL2gaG+ls765VXh8Fees17wtvAbD9E//qxmO9p6VdPHSt9SVvsHVuHtd6y660f09Fmf2Af+pPZ7vF8ddxjjpfurBolnzpcyLXUa3304SocpxPtrQok89TFdLTTmxMgaz9X3TJSK+2Of1muWp2OIl5Z7JELsGhxIRcyu32OIdrKVYYyEoasjQaXIhm2OwGfsZ+r2usZD7EXNqdjKExnJAxnaws5HljISBgs5SprGQmDjVwVGW+93YyTNLuQk9JuRsJgMle1kJEwGMtVIm4lI2EYTUzkqvYyEobvxrlKYr51tknDDfLWMxKGBrnKSUbCgM1V5rex7YHZIOdgRTAvGevmqltG8meJpsZaK1e5z0gY1HOVHxkJw0FpIceDg+uB4hlfanOVCC6+LtHUWG+rF3KpZxkJwymEF3Ky7NcoBLkCbw6eeJmRMCw/S6ajCBoe9fGLUeHgUeh1RsKwe8pVMnW2jW2PW676+3bk5o76+MXsGERhGEbBsUsT8JlsNN/NR928fz09PT09PT09PU34D3vxmsiliIlyAAAAAElFTkSuQmCC;" parent="1" vertex="1">
          <mxGeometry x="365" y="112.5" width="35" height="35" as="geometry" />
        </mxCell>
        <mxCell id="IcFnWrSgQMhNx_Vj9jzx-26" value="" style="shape=image;verticalLabelPosition=bottom;labelBackgroundColor=#ffffff;verticalAlign=top;aspect=fixed;imageAspect=0;image=data:image/png,iVBORw0KGgoAAAANSUhEUgAAAOEAAADhCAMAAAAJbSJIAAAAmVBMVEVtQpxcLZH///9iNZVYJY/y8vJsQJtiL5Xj3etqPZpODYmGa6vl4O1TG4xgK5T19vT18/i5rM1LAIhwR550UZ9dJpNoOZlkM5dNCYnQxt5RFovu6vO/sdFfM5NiLpZWIY2Nca/6/PjCt9HXzuKXgbZ8WKWdiLqtmsXt7O+Ve7WlkMCLba+zosnW0N9+YKZsRZp/XafKv9nOxtnHcawVAAAQUUlEQVR4nN3dB3uqOhgA4IgapMWoqOA6KG6t2tr//+NuQMJMSJim93vOHbV6ytvsQQBK7THs7ba3637zmHxr/1qt1j/te/LY7K+37a43rP/Hgzr/cv152nwbs49Fv7/udDqtMPBX635/8TEzvjenp17nRdQl1LfHiYFpHdTKDtTBUGNy3NbFrEOojzb92WLd4dii0VkvZv3NqA5l5cL5vjPr58FFmP1ZZz+v+oIqFQ5XD2OxLqQjsV4Yj1Wl9U+FwifmFUu8ZFIaj211l1WV8L6fVcLzkYvZ/l7RlVUjHGmzcpkzHeuZNqrk2ioQLo+zPq9NKBT92XEpgbD3aVSdfGGsjc/em4X3H6O60keLjvFTskCWEvYONftexkOpdCwhXD4a8L2MnyXKY2HhcN+Q72XcF+4FFBWOPuqrX2ix/rg1Krxri0Z9biy0YlVOIeHeqKX94wQyLg0J5/1mM2gY636BkUd+4cZ4k88NY1O7cLd+VwK+Yr3e1Su8vjMBX2FcaxQOv/vv9uHof+dqG/MIdx/NtfFZ0fnIk1NzCE/vz6EkjFMdws/mG3l2LD4rFw7he+vQZKyhaGEUFOoFJwjri05fcHJVTLiTpwiGYYjVN0LCrYxATFxVJRzJCcREkRGVgFCiViIZIq0GX3iy2++GsGPGJ3KFJxuAP03kCW8IgL9N5AhHHlBqIq+6yRY+pwDIT9wWF+4CoNzEzKY/S6hPIfgbxKwOXIZwaEWBUhP7Gd3wDOFEA+CPEDuwiHBjgmTIS1yzx4tM4U1NAWUmLpjNIksYrUb/BJFZoTKEQxVShRITPxi1DUN4SNYy8hM733mEJ4sFlJjYp08VU4WMQig7kV4UqUKTUQhlJ65FhZd0S/g3iGvayhRFOEccoLxEg7K+SBHyUlBmYl9EuBcRykpcpxfCU8JeZj0qPdFIbWdICcfZ9ajsRKTxhKuMtv5PEBfJPZsJ4dAWTUJpicn+aUJ4FKpmpCau91nCpWA1IzXRWGYIN8whxR8idh5soWhLITnR6DGFj7xJKCexc2AJe/wO6d8gxpr9qPCrQBJKSez80IXFklBKYrQkRoT8irStkog3mzTi+sOL1CYc/3VmkA/0Fzki+UM6nzQhvy1Uw+WBI4+48Edqw1n89T53d8HH6/O5tiDOkj8+0iaGwiu3O6NG0j7x5hSRKeTe6jPLLxymdhqsjxQh4vZIo8LkRECS+GZha5YWCgwqosLUskaC+G5h+HMCocC4MCYcJtM8Tny3MBwnEmHP5gLjQmWVXLqJEYsLC9Q0FGFrRlp9IhQZNsWFyk/W+iJXqLPiVfX3V6lvkOpxmfpOj7IxNBhEEaHIyDchTDcvESJX+G0wGkTyxuTrBhky/KQ+Sd35SuoaX/gUmbxICJVb6kMhkSuc5N3OGbTin2KfXDxjQqEuKREGRSldOwXE9wvJMPElHAoNDIlwRWaWKeNJQny/sGUMI8Kt0AwbEc7HJBEp9VNbGuFiFRGKzV4Q4Y5kcUXR0hVUWxahn01fQrFxExH2bIsId5RPtiURtoxQOBebBiZC3TaD5QHaSlxbEuHrGgCjOGULASJdDuqWhrYcwlej7wkFZy8iQhh0+7b0fTcyCFsdItQFpy8iQmAG2wKoE3RtKYQz3ReKrsZEhWBKOjj0uYH1UwKh98Nc4SV/LgUABo1iuvOGw5IhDTsbX9gWXG+KCYEV7CSbUD4vhdBb9MbCpegsYlwIpmQ4o1PyqRxCtyACwXEFRagFk+eUSSw5hIutJ+RPstGFwAoGGTCVT+UQulNuIGuXHkcIEVluTXfe5BB2Jp5QeDI/KQTaF0nEVOdNDqHbNQXh9eYXAjsYZCR2vYfCxCRRw8IPHQsFu91UIVRJPn0mfk+BMDGHEgihQQ321RcS4nEeUG7CmxPSQhAOMhLzIIEwcecbbzbxwrz8QsL+CQu5OxGzhACRGY3EDHEgRPF5VK6QeUN1ISHu1QDlILyDhiaEJrm2USy3R4QxYsNC9I2F4uuiNCEwg1WeWKsTFUaJDQtxZQqGJYVgSqbPY523mDBCbFo4GwKdNoLNI4TB4s6pzRKGxKaFHzrYiW/VowtBOxhkRGaIE8KAGAiX1Bhuqq1LW4sdEO53M4VgSla/72E+TQoJMRACY0aLitvDVn8LRuJ79VhCbUISMdxfnBL6xIb7NK3+DZzKC4EV3IoblMS08EVsWri+ghz7LZnCcDAcLO9ThB6xaWFnD0QnaTKFWrAdkKwP0IQusXHhBuTY6sUWAnWrEBFkCzGxceEDPMS3PWcIoU0GGf7yPl0I2k0LWwdwEAZmCYEW3JDzWt5nCEGnaeE3EL77IFsYDjJeM8QsYXvVsFADY2FgthAEgwxvhpgltJoW/hP3cYXBHnk3W0gjbFUnBFOy4uYu7/8vheEgA/ciJBJWVg5xLRKsuJlQGuG/yupSN4JBxhxZT0mEWlXtoRcwGGRs7JUkwu+K+jTk+skgY9i/cYSHxvo01fRLSQSDjNGRI3xYjQhxv5Q5tkivJwkIteBOB57wB+a8iaHw2IIxPjSRif/kFgKVCJY8oZbzPo3C40P6GB9d8RUur/HLExGGK258YT5i4TE+dZ6G1ITP2PWJCCMrbtnCyXQ6RQva4gzjJNjC8zS0ubZwvSWWh4WEkRW3TCE7nnRi4bk22nxpuBl4aVNezhZCK3q57xYudtQ5bxT+uOgFigkjOUAC4YdOXbcoJwy39UkgnA2pa09hLtXz51IQ2db3fqFBXz8MJ1320f6AqDCyra+IcFuh0Fs/pK0Bq36vchSzqH4rvuQJw219qZ0e1rZwGpJfe+41YOo6vnrB19i7JChjP3hAAE3y1uTgDAZ/STS0f9FgXW7b+26uboK3jk/fi6GpCKkpO/SCCyRvpL0Z0gL8q+mhJ95eDPH9NHVGTfcSe/tpcizk1xn1EI18+9rqjTqI/r424b2JNUcNRH9vYo517nqjeqK/v1R4j3DtUTnR3yMsvM+7/qia6O/zFt6r30BUSwz26uc4/ar2qJQY3G8hes9MI1ElMbhnRvS+p2aiQmJw31POE74EolTVVRkxcu+a+EZobkBTRbZl2UhtF84ZVREj9x9W1jXV0M/tfnZwnO+ri/iux3qIkXtI859iRg2INj1nMOh6MRg458KjlkqIsfuAxe7l5oSm/TouzXHwH1daXFgJcbGNCMXux+cAD2ecfE7v9GMhZD6umFti5FkBMXY/fgXZVDu46bf8QqZ7BzvUTDXPxs4aiPEzFSoYX5hnnIBPFPlNwXJtUFli4lwMobNNssL+HXQHz2mVffiSxMTZJmUbfW2DKxmdfdQUzrS2batWtDBomncig2a2g/PDoWmpqkW+LEVMnU9T+Di6V6AezqOpI3kCC3qM7svzube9hNlY+3p8HSBEl9Hq9JqSg+r49Lzff28TtTwxdcaQ+PnBVMLD6Q7mrBbe+rnjxmPgtSTLDSnxCDcpT3Wi42853g83wa/7NhzO09RKEtPnRJUbQrVXg67D2vNgn5yB2wHAbSRGOje/DUEYvLXOnsgVmo/u4NWa4nef/V94YSLlrC+B89rYYevd7pmRz60TLqLO/fo4PE66+7/+zJcrHP0OnPtq251A3NpgGW5NN5vTEhPJiK4okXJeW5kpN2jhTPpLzwRuBu4O9lPcTGrm1NUOXunjCn+d8wFZVnsMoO22Nlf8Nvyu7SD4PRQkUs/cy3uGcFR4wMJRm/o9hJPXCQofzrFu3vSFOO+OfYh5c7rO6VWS4VTH+TRxK0q+oJ6bWKJfo33h66Zv6nCbkcE27L7hi+8OvObAEwa39Nn4i+CWG3PvRIp1ASL97MsSDUaG0HJzXKSeNo/4a+/WGlcYfEe7YFMwIwZVXBLDNbH8RMb5pUXPoM0U2svB4B67IxO/ddX2hcEMkVsZdxcWiYU+GEQ6knmJrDNoiyei1xzS+9lqsoQiTPYqJbemCRTqHQ+2VttXPJ/bc7zmyklkniNc6CxoLyC7Lk2mrnrvDnZEGIxL1Z5X7wTRTfx9+XZPRZOw9Hner0BnZnuYFkbSMC50YnGP/cbyEDPO8y5cnVpzRp8GQloaUoS4itU/N9FIZChxYrQiTQmLtolu9T74pd5oMvArluCFZVjTRIRuOZxqsUj8TcLEzHP1Cw+ivB4JrRi72S9ag0GcbZ2jmRR6jQrleLsCxOxnI+R7vkUkTLc7RtuFYt7wpUdWmc3TIGzxQ6GXCXj9RjEi5/kWiXMDxAPp+MrvKJaK7gXDsRPprHjdT7+NiAmh6k7yRMoI9aFaIkTeM0oKjxPx0ABfoz5RiVFr215m9PLfyR+4QLdTHel5h7OY7RH+xojMgmjo+lOMyH/OTOEWw7y4wwZn+4PcTomKfkZnb74U4iFg19malmmaqjZ3YqOnUPh62xyq+G0W+ro7VCGfKPCsoMKVTfvrNYI9757P33sXD2Rf5VKb4NcH3eftdPt1h4Cj2Ag4+DjuF7nj5N/bbTQ/OwOGkEdMVjNUIe+5csww4a83ih+QGQu/zdbGPcfvsOB/X0l1hPAX0bl28+HOKPt9GqfHKi3ZRKFndok8d40eUP3Znh1vrsVxztsNsUB07HkvO93tOMgh9vnc3UZbSs26eZ/G//xu2NeQRRR87lqOE2uSoVnosL9er8fNGEVnDk17jF8+PlD0sCUbofigGZro5+i+LT7rKE4UfXZe8Xz6ukw3Uo031NxXuZ/WTIG3MYnCzz/kPMPy/cEg5niGZeZzSGUIKjHPc0il2c3HDAox37Nk2c8DliXSxJzPA5a+KKaIeZ/pzHgut0yReJ5G7udyU5+tLldEiUWera4oE8lrmwixA9mMDOFQnl2ZjAhPEGPUMhyhole6aF1H+ERDz1BkCeWvUF9EZjXKFyrPv0A0tpmGbKEykmnrKTXaBucUP45QuclOtJkNoaBQOclN5AL5QrmJiAsUEMqcUdGNf/kCQmUka4065T7iTFCoVLtfraqA0yf/0gWFuOmXjwinYg+fExMqevF96TWFZmV11fILleFErsGUOcnobBcS4vGiTENilTYzWlao3KQpjHAq0EoUECo7VY7CqKl5HnCZR6gMDzLMo1oH0SKYX4i7cG/PqXDK76iVESp38711qmnmethzAaGiXMpstS0b6MK/wNJCZf62ZDRNyvpgDUJFOb6lNMLpkX9pFQmV3iT5XJn6fda4x7+wyoTukc/NZlXT5h/dU61QGR6nzbX/2vSYqw2sRKgoy01DRm26WfIvpwYhLo5fqH6jhh7FCmAVwgaMGvoq5SstdA+TmpbZupEZ0JxuSvoqEHpHZNbSdkDLO4FTAiGO1RhVnJDQtMdF24d4VCPEmfVoZ25kyheaZR9LZ08/qhLieG6mlSA1a/olNE8oFhUKcS/guUFWuexqWmizLdy606JSoRvzo4Yszp50ekDNQtqxwOghOyoX4tBXFxOnZZ4cq+G0sy4rwSnQXFGH0I3l8/qDbMvk5llompaNDtdnBQ0DNeoSeqHPb5cDQqrlbvLWNHKKIv6v5m6zdLeDo8PlNq8j6YKoVfiKob57jk7Hy9fj4B2bOR4fHl+X42n03OmV1in0+A/th+fpGSt0oAAAAABJRU5ErkJggg==;" parent="1" vertex="1">
          <mxGeometry x="400" y="171" width="45" height="45" as="geometry" />
        </mxCell>
        <mxCell id="IcFnWrSgQMhNx_Vj9jzx-27" value="" style="shape=image;verticalLabelPosition=bottom;labelBackgroundColor=#ffffff;verticalAlign=top;aspect=fixed;imageAspect=0;image=data:image/png,iVBORw0KGgoAAAANSUhEUgAAAOEAAADhCAMAAAAJbSJIAAAAmVBMVEVtQpxcLZH///9iNZVYJY/y8vJsQJtiL5Xj3etqPZpODYmGa6vl4O1TG4xgK5T19vT18/i5rM1LAIhwR550UZ9dJpNoOZlkM5dNCYnQxt5RFovu6vO/sdFfM5NiLpZWIY2Nca/6/PjCt9HXzuKXgbZ8WKWdiLqtmsXt7O+Ve7WlkMCLba+zosnW0N9+YKZsRZp/XafKv9nOxtnHcawVAAAQUUlEQVR4nN3dB3uqOhgA4IgapMWoqOA6KG6t2tr//+NuQMJMSJim93vOHbV6ytvsQQBK7THs7ba3637zmHxr/1qt1j/te/LY7K+37a43rP/Hgzr/cv152nwbs49Fv7/udDqtMPBX635/8TEzvjenp17nRdQl1LfHiYFpHdTKDtTBUGNy3NbFrEOojzb92WLd4dii0VkvZv3NqA5l5cL5vjPr58FFmP1ZZz+v+oIqFQ5XD2OxLqQjsV4Yj1Wl9U+FwifmFUu8ZFIaj211l1WV8L6fVcLzkYvZ/l7RlVUjHGmzcpkzHeuZNqrk2ioQLo+zPq9NKBT92XEpgbD3aVSdfGGsjc/em4X3H6O60keLjvFTskCWEvYONftexkOpdCwhXD4a8L2MnyXKY2HhcN+Q72XcF+4FFBWOPuqrX2ix/rg1Krxri0Z9biy0YlVOIeHeqKX94wQyLg0J5/1mM2gY636BkUd+4cZ4k88NY1O7cLd+VwK+Yr3e1Su8vjMBX2FcaxQOv/vv9uHof+dqG/MIdx/NtfFZ0fnIk1NzCE/vz6EkjFMdws/mG3l2LD4rFw7he+vQZKyhaGEUFOoFJwjri05fcHJVTLiTpwiGYYjVN0LCrYxATFxVJRzJCcREkRGVgFCiViIZIq0GX3iy2++GsGPGJ3KFJxuAP03kCW8IgL9N5AhHHlBqIq+6yRY+pwDIT9wWF+4CoNzEzKY/S6hPIfgbxKwOXIZwaEWBUhP7Gd3wDOFEA+CPEDuwiHBjgmTIS1yzx4tM4U1NAWUmLpjNIksYrUb/BJFZoTKEQxVShRITPxi1DUN4SNYy8hM733mEJ4sFlJjYp08VU4WMQig7kV4UqUKTUQhlJ65FhZd0S/g3iGvayhRFOEccoLxEg7K+SBHyUlBmYl9EuBcRykpcpxfCU8JeZj0qPdFIbWdICcfZ9ajsRKTxhKuMtv5PEBfJPZsJ4dAWTUJpicn+aUJ4FKpmpCau91nCpWA1IzXRWGYIN8whxR8idh5soWhLITnR6DGFj7xJKCexc2AJe/wO6d8gxpr9qPCrQBJKSez80IXFklBKYrQkRoT8irStkog3mzTi+sOL1CYc/3VmkA/0Fzki+UM6nzQhvy1Uw+WBI4+48Edqw1n89T53d8HH6/O5tiDOkj8+0iaGwiu3O6NG0j7x5hSRKeTe6jPLLxymdhqsjxQh4vZIo8LkRECS+GZha5YWCgwqosLUskaC+G5h+HMCocC4MCYcJtM8Tny3MBwnEmHP5gLjQmWVXLqJEYsLC9Q0FGFrRlp9IhQZNsWFyk/W+iJXqLPiVfX3V6lvkOpxmfpOj7IxNBhEEaHIyDchTDcvESJX+G0wGkTyxuTrBhky/KQ+Sd35SuoaX/gUmbxICJVb6kMhkSuc5N3OGbTin2KfXDxjQqEuKREGRSldOwXE9wvJMPElHAoNDIlwRWaWKeNJQny/sGUMI8Kt0AwbEc7HJBEp9VNbGuFiFRGKzV4Q4Y5kcUXR0hVUWxahn01fQrFxExH2bIsId5RPtiURtoxQOBebBiZC3TaD5QHaSlxbEuHrGgCjOGULASJdDuqWhrYcwlej7wkFZy8iQhh0+7b0fTcyCFsdItQFpy8iQmAG2wKoE3RtKYQz3ReKrsZEhWBKOjj0uYH1UwKh98Nc4SV/LgUABo1iuvOGw5IhDTsbX9gWXG+KCYEV7CSbUD4vhdBb9MbCpegsYlwIpmQ4o1PyqRxCtyACwXEFRagFk+eUSSw5hIutJ+RPstGFwAoGGTCVT+UQulNuIGuXHkcIEVluTXfe5BB2Jp5QeDI/KQTaF0nEVOdNDqHbNQXh9eYXAjsYZCR2vYfCxCRRw8IPHQsFu91UIVRJPn0mfk+BMDGHEgihQQ321RcS4nEeUG7CmxPSQhAOMhLzIIEwcecbbzbxwrz8QsL+CQu5OxGzhACRGY3EDHEgRPF5VK6QeUN1ISHu1QDlILyDhiaEJrm2USy3R4QxYsNC9I2F4uuiNCEwg1WeWKsTFUaJDQtxZQqGJYVgSqbPY523mDBCbFo4GwKdNoLNI4TB4s6pzRKGxKaFHzrYiW/VowtBOxhkRGaIE8KAGAiX1Bhuqq1LW4sdEO53M4VgSla/72E+TQoJMRACY0aLitvDVn8LRuJ79VhCbUISMdxfnBL6xIb7NK3+DZzKC4EV3IoblMS08EVsWri+ghz7LZnCcDAcLO9ThB6xaWFnD0QnaTKFWrAdkKwP0IQusXHhBuTY6sUWAnWrEBFkCzGxceEDPMS3PWcIoU0GGf7yPl0I2k0LWwdwEAZmCYEW3JDzWt5nCEGnaeE3EL77IFsYDjJeM8QsYXvVsFADY2FgthAEgwxvhpgltJoW/hP3cYXBHnk3W0gjbFUnBFOy4uYu7/8vheEgA/ciJBJWVg5xLRKsuJlQGuG/yupSN4JBxhxZT0mEWlXtoRcwGGRs7JUkwu+K+jTk+skgY9i/cYSHxvo01fRLSQSDjNGRI3xYjQhxv5Q5tkivJwkIteBOB57wB+a8iaHw2IIxPjSRif/kFgKVCJY8oZbzPo3C40P6GB9d8RUur/HLExGGK258YT5i4TE+dZ6G1ITP2PWJCCMrbtnCyXQ6RQva4gzjJNjC8zS0ubZwvSWWh4WEkRW3TCE7nnRi4bk22nxpuBl4aVNezhZCK3q57xYudtQ5bxT+uOgFigkjOUAC4YdOXbcoJwy39UkgnA2pa09hLtXz51IQ2db3fqFBXz8MJ1320f6AqDCyra+IcFuh0Fs/pK0Bq36vchSzqH4rvuQJw219qZ0e1rZwGpJfe+41YOo6vnrB19i7JChjP3hAAE3y1uTgDAZ/STS0f9FgXW7b+26uboK3jk/fi6GpCKkpO/SCCyRvpL0Z0gL8q+mhJ95eDPH9NHVGTfcSe/tpcizk1xn1EI18+9rqjTqI/r424b2JNUcNRH9vYo517nqjeqK/v1R4j3DtUTnR3yMsvM+7/qia6O/zFt6r30BUSwz26uc4/ar2qJQY3G8hes9MI1ElMbhnRvS+p2aiQmJw31POE74EolTVVRkxcu+a+EZobkBTRbZl2UhtF84ZVREj9x9W1jXV0M/tfnZwnO+ri/iux3qIkXtI859iRg2INj1nMOh6MRg458KjlkqIsfuAxe7l5oSm/TouzXHwH1daXFgJcbGNCMXux+cAD2ecfE7v9GMhZD6umFti5FkBMXY/fgXZVDu46bf8QqZ7BzvUTDXPxs4aiPEzFSoYX5hnnIBPFPlNwXJtUFli4lwMobNNssL+HXQHz2mVffiSxMTZJmUbfW2DKxmdfdQUzrS2batWtDBomncig2a2g/PDoWmpqkW+LEVMnU9T+Di6V6AezqOpI3kCC3qM7svzube9hNlY+3p8HSBEl9Hq9JqSg+r49Lzff28TtTwxdcaQ+PnBVMLD6Q7mrBbe+rnjxmPgtSTLDSnxCDcpT3Wi42853g83wa/7NhzO09RKEtPnRJUbQrVXg67D2vNgn5yB2wHAbSRGOje/DUEYvLXOnsgVmo/u4NWa4nef/V94YSLlrC+B89rYYevd7pmRz60TLqLO/fo4PE66+7/+zJcrHP0OnPtq251A3NpgGW5NN5vTEhPJiK4okXJeW5kpN2jhTPpLzwRuBu4O9lPcTGrm1NUOXunjCn+d8wFZVnsMoO22Nlf8Nvyu7SD4PRQkUs/cy3uGcFR4wMJRm/o9hJPXCQofzrFu3vSFOO+OfYh5c7rO6VWS4VTH+TRxK0q+oJ6bWKJfo33h66Zv6nCbkcE27L7hi+8OvObAEwa39Nn4i+CWG3PvRIp1ASL97MsSDUaG0HJzXKSeNo/4a+/WGlcYfEe7YFMwIwZVXBLDNbH8RMb5pUXPoM0U2svB4B67IxO/ddX2hcEMkVsZdxcWiYU+GEQ6knmJrDNoiyei1xzS+9lqsoQiTPYqJbemCRTqHQ+2VttXPJ/bc7zmyklkniNc6CxoLyC7Lk2mrnrvDnZEGIxL1Z5X7wTRTfx9+XZPRZOw9Hner0BnZnuYFkbSMC50YnGP/cbyEDPO8y5cnVpzRp8GQloaUoS4itU/N9FIZChxYrQiTQmLtolu9T74pd5oMvArluCFZVjTRIRuOZxqsUj8TcLEzHP1Cw+ivB4JrRi72S9ag0GcbZ2jmRR6jQrleLsCxOxnI+R7vkUkTLc7RtuFYt7wpUdWmc3TIGzxQ6GXCXj9RjEi5/kWiXMDxAPp+MrvKJaK7gXDsRPprHjdT7+NiAmh6k7yRMoI9aFaIkTeM0oKjxPx0ABfoz5RiVFr215m9PLfyR+4QLdTHel5h7OY7RH+xojMgmjo+lOMyH/OTOEWw7y4wwZn+4PcTomKfkZnb74U4iFg19malmmaqjZ3YqOnUPh62xyq+G0W+ro7VCGfKPCsoMKVTfvrNYI9757P33sXD2Rf5VKb4NcH3eftdPt1h4Cj2Ag4+DjuF7nj5N/bbTQ/OwOGkEdMVjNUIe+5csww4a83ih+QGQu/zdbGPcfvsOB/X0l1hPAX0bl28+HOKPt9GqfHKi3ZRKFndok8d40eUP3Znh1vrsVxztsNsUB07HkvO93tOMgh9vnc3UZbSs26eZ/G//xu2NeQRRR87lqOE2uSoVnosL9er8fNGEVnDk17jF8+PlD0sCUbofigGZro5+i+LT7rKE4UfXZe8Xz6ukw3Uo031NxXuZ/WTIG3MYnCzz/kPMPy/cEg5niGZeZzSGUIKjHPc0il2c3HDAox37Nk2c8DliXSxJzPA5a+KKaIeZ/pzHgut0yReJ5G7udyU5+tLldEiUWera4oE8lrmwixA9mMDOFQnl2ZjAhPEGPUMhyhole6aF1H+ERDz1BkCeWvUF9EZjXKFyrPv0A0tpmGbKEykmnrKTXaBucUP45QuclOtJkNoaBQOclN5AL5QrmJiAsUEMqcUdGNf/kCQmUka4065T7iTFCoVLtfraqA0yf/0gWFuOmXjwinYg+fExMqevF96TWFZmV11fILleFErsGUOcnobBcS4vGiTENilTYzWlao3KQpjHAq0EoUECo7VY7CqKl5HnCZR6gMDzLMo1oH0SKYX4i7cG/PqXDK76iVESp38711qmnmethzAaGiXMpstS0b6MK/wNJCZf62ZDRNyvpgDUJFOb6lNMLpkX9pFQmV3iT5XJn6fda4x7+wyoTukc/NZlXT5h/dU61QGR6nzbX/2vSYqw2sRKgoy01DRm26WfIvpwYhLo5fqH6jhh7FCmAVwgaMGvoq5SstdA+TmpbZupEZ0JxuSvoqEHpHZNbSdkDLO4FTAiGO1RhVnJDQtMdF24d4VCPEmfVoZ25kyheaZR9LZ08/qhLieG6mlSA1a/olNE8oFhUKcS/guUFWuexqWmizLdy606JSoRvzo4Yszp50ekDNQtqxwOghOyoX4tBXFxOnZZ4cq+G0sy4rwSnQXFGH0I3l8/qDbMvk5llompaNDtdnBQ0DNeoSeqHPb5cDQqrlbvLWNHKKIv6v5m6zdLeDo8PlNq8j6YKoVfiKob57jk7Hy9fj4B2bOR4fHl+X42n03OmV1in0+A/th+fpGSt0oAAAAABJRU5ErkJggg==;" parent="1" vertex="1">
          <mxGeometry x="70" y="177.5" width="45" height="45" as="geometry" />
        </mxCell>
        <mxCell id="IcFnWrSgQMhNx_Vj9jzx-28" value="" style="shape=image;verticalLabelPosition=bottom;labelBackgroundColor=#ffffff;verticalAlign=top;aspect=fixed;imageAspect=0;image=data:image/png,iVBORw0KGgoAAAANSUhEUgAAAOEAAADhCAMAAAAJbSJIAAAAmVBMVEVtQpxcLZH///9iNZVYJY/y8vJsQJtiL5Xj3etqPZpODYmGa6vl4O1TG4xgK5T19vT18/i5rM1LAIhwR550UZ9dJpNoOZlkM5dNCYnQxt5RFovu6vO/sdFfM5NiLpZWIY2Nca/6/PjCt9HXzuKXgbZ8WKWdiLqtmsXt7O+Ve7WlkMCLba+zosnW0N9+YKZsRZp/XafKv9nOxtnHcawVAAAQUUlEQVR4nN3dB3uqOhgA4IgapMWoqOA6KG6t2tr//+NuQMJMSJim93vOHbV6ytvsQQBK7THs7ba3637zmHxr/1qt1j/te/LY7K+37a43rP/Hgzr/cv152nwbs49Fv7/udDqtMPBX635/8TEzvjenp17nRdQl1LfHiYFpHdTKDtTBUGNy3NbFrEOojzb92WLd4dii0VkvZv3NqA5l5cL5vjPr58FFmP1ZZz+v+oIqFQ5XD2OxLqQjsV4Yj1Wl9U+FwifmFUu8ZFIaj211l1WV8L6fVcLzkYvZ/l7RlVUjHGmzcpkzHeuZNqrk2ioQLo+zPq9NKBT92XEpgbD3aVSdfGGsjc/em4X3H6O60keLjvFTskCWEvYONftexkOpdCwhXD4a8L2MnyXKY2HhcN+Q72XcF+4FFBWOPuqrX2ix/rg1Krxri0Z9biy0YlVOIeHeqKX94wQyLg0J5/1mM2gY636BkUd+4cZ4k88NY1O7cLd+VwK+Yr3e1Su8vjMBX2FcaxQOv/vv9uHof+dqG/MIdx/NtfFZ0fnIk1NzCE/vz6EkjFMdws/mG3l2LD4rFw7he+vQZKyhaGEUFOoFJwjri05fcHJVTLiTpwiGYYjVN0LCrYxATFxVJRzJCcREkRGVgFCiViIZIq0GX3iy2++GsGPGJ3KFJxuAP03kCW8IgL9N5AhHHlBqIq+6yRY+pwDIT9wWF+4CoNzEzKY/S6hPIfgbxKwOXIZwaEWBUhP7Gd3wDOFEA+CPEDuwiHBjgmTIS1yzx4tM4U1NAWUmLpjNIksYrUb/BJFZoTKEQxVShRITPxi1DUN4SNYy8hM733mEJ4sFlJjYp08VU4WMQig7kV4UqUKTUQhlJ65FhZd0S/g3iGvayhRFOEccoLxEg7K+SBHyUlBmYl9EuBcRykpcpxfCU8JeZj0qPdFIbWdICcfZ9ajsRKTxhKuMtv5PEBfJPZsJ4dAWTUJpicn+aUJ4FKpmpCau91nCpWA1IzXRWGYIN8whxR8idh5soWhLITnR6DGFj7xJKCexc2AJe/wO6d8gxpr9qPCrQBJKSez80IXFklBKYrQkRoT8irStkog3mzTi+sOL1CYc/3VmkA/0Fzki+UM6nzQhvy1Uw+WBI4+48Edqw1n89T53d8HH6/O5tiDOkj8+0iaGwiu3O6NG0j7x5hSRKeTe6jPLLxymdhqsjxQh4vZIo8LkRECS+GZha5YWCgwqosLUskaC+G5h+HMCocC4MCYcJtM8Tny3MBwnEmHP5gLjQmWVXLqJEYsLC9Q0FGFrRlp9IhQZNsWFyk/W+iJXqLPiVfX3V6lvkOpxmfpOj7IxNBhEEaHIyDchTDcvESJX+G0wGkTyxuTrBhky/KQ+Sd35SuoaX/gUmbxICJVb6kMhkSuc5N3OGbTin2KfXDxjQqEuKREGRSldOwXE9wvJMPElHAoNDIlwRWaWKeNJQny/sGUMI8Kt0AwbEc7HJBEp9VNbGuFiFRGKzV4Q4Y5kcUXR0hVUWxahn01fQrFxExH2bIsId5RPtiURtoxQOBebBiZC3TaD5QHaSlxbEuHrGgCjOGULASJdDuqWhrYcwlej7wkFZy8iQhh0+7b0fTcyCFsdItQFpy8iQmAG2wKoE3RtKYQz3ReKrsZEhWBKOjj0uYH1UwKh98Nc4SV/LgUABo1iuvOGw5IhDTsbX9gWXG+KCYEV7CSbUD4vhdBb9MbCpegsYlwIpmQ4o1PyqRxCtyACwXEFRagFk+eUSSw5hIutJ+RPstGFwAoGGTCVT+UQulNuIGuXHkcIEVluTXfe5BB2Jp5QeDI/KQTaF0nEVOdNDqHbNQXh9eYXAjsYZCR2vYfCxCRRw8IPHQsFu91UIVRJPn0mfk+BMDGHEgihQQ321RcS4nEeUG7CmxPSQhAOMhLzIIEwcecbbzbxwrz8QsL+CQu5OxGzhACRGY3EDHEgRPF5VK6QeUN1ISHu1QDlILyDhiaEJrm2USy3R4QxYsNC9I2F4uuiNCEwg1WeWKsTFUaJDQtxZQqGJYVgSqbPY523mDBCbFo4GwKdNoLNI4TB4s6pzRKGxKaFHzrYiW/VowtBOxhkRGaIE8KAGAiX1Bhuqq1LW4sdEO53M4VgSla/72E+TQoJMRACY0aLitvDVn8LRuJ79VhCbUISMdxfnBL6xIb7NK3+DZzKC4EV3IoblMS08EVsWri+ghz7LZnCcDAcLO9ThB6xaWFnD0QnaTKFWrAdkKwP0IQusXHhBuTY6sUWAnWrEBFkCzGxceEDPMS3PWcIoU0GGf7yPl0I2k0LWwdwEAZmCYEW3JDzWt5nCEGnaeE3EL77IFsYDjJeM8QsYXvVsFADY2FgthAEgwxvhpgltJoW/hP3cYXBHnk3W0gjbFUnBFOy4uYu7/8vheEgA/ciJBJWVg5xLRKsuJlQGuG/yupSN4JBxhxZT0mEWlXtoRcwGGRs7JUkwu+K+jTk+skgY9i/cYSHxvo01fRLSQSDjNGRI3xYjQhxv5Q5tkivJwkIteBOB57wB+a8iaHw2IIxPjSRif/kFgKVCJY8oZbzPo3C40P6GB9d8RUur/HLExGGK258YT5i4TE+dZ6G1ITP2PWJCCMrbtnCyXQ6RQva4gzjJNjC8zS0ubZwvSWWh4WEkRW3TCE7nnRi4bk22nxpuBl4aVNezhZCK3q57xYudtQ5bxT+uOgFigkjOUAC4YdOXbcoJwy39UkgnA2pa09hLtXz51IQ2db3fqFBXz8MJ1320f6AqDCyra+IcFuh0Fs/pK0Bq36vchSzqH4rvuQJw219qZ0e1rZwGpJfe+41YOo6vnrB19i7JChjP3hAAE3y1uTgDAZ/STS0f9FgXW7b+26uboK3jk/fi6GpCKkpO/SCCyRvpL0Z0gL8q+mhJ95eDPH9NHVGTfcSe/tpcizk1xn1EI18+9rqjTqI/r424b2JNUcNRH9vYo517nqjeqK/v1R4j3DtUTnR3yMsvM+7/qia6O/zFt6r30BUSwz26uc4/ar2qJQY3G8hes9MI1ElMbhnRvS+p2aiQmJw31POE74EolTVVRkxcu+a+EZobkBTRbZl2UhtF84ZVREj9x9W1jXV0M/tfnZwnO+ri/iux3qIkXtI859iRg2INj1nMOh6MRg458KjlkqIsfuAxe7l5oSm/TouzXHwH1daXFgJcbGNCMXux+cAD2ecfE7v9GMhZD6umFti5FkBMXY/fgXZVDu46bf8QqZ7BzvUTDXPxs4aiPEzFSoYX5hnnIBPFPlNwXJtUFli4lwMobNNssL+HXQHz2mVffiSxMTZJmUbfW2DKxmdfdQUzrS2batWtDBomncig2a2g/PDoWmpqkW+LEVMnU9T+Di6V6AezqOpI3kCC3qM7svzube9hNlY+3p8HSBEl9Hq9JqSg+r49Lzff28TtTwxdcaQ+PnBVMLD6Q7mrBbe+rnjxmPgtSTLDSnxCDcpT3Wi42853g83wa/7NhzO09RKEtPnRJUbQrVXg67D2vNgn5yB2wHAbSRGOje/DUEYvLXOnsgVmo/u4NWa4nef/V94YSLlrC+B89rYYevd7pmRz60TLqLO/fo4PE66+7/+zJcrHP0OnPtq251A3NpgGW5NN5vTEhPJiK4okXJeW5kpN2jhTPpLzwRuBu4O9lPcTGrm1NUOXunjCn+d8wFZVnsMoO22Nlf8Nvyu7SD4PRQkUs/cy3uGcFR4wMJRm/o9hJPXCQofzrFu3vSFOO+OfYh5c7rO6VWS4VTH+TRxK0q+oJ6bWKJfo33h66Zv6nCbkcE27L7hi+8OvObAEwa39Nn4i+CWG3PvRIp1ASL97MsSDUaG0HJzXKSeNo/4a+/WGlcYfEe7YFMwIwZVXBLDNbH8RMb5pUXPoM0U2svB4B67IxO/ddX2hcEMkVsZdxcWiYU+GEQ6knmJrDNoiyei1xzS+9lqsoQiTPYqJbemCRTqHQ+2VttXPJ/bc7zmyklkniNc6CxoLyC7Lk2mrnrvDnZEGIxL1Z5X7wTRTfx9+XZPRZOw9Hner0BnZnuYFkbSMC50YnGP/cbyEDPO8y5cnVpzRp8GQloaUoS4itU/N9FIZChxYrQiTQmLtolu9T74pd5oMvArluCFZVjTRIRuOZxqsUj8TcLEzHP1Cw+ivB4JrRi72S9ag0GcbZ2jmRR6jQrleLsCxOxnI+R7vkUkTLc7RtuFYt7wpUdWmc3TIGzxQ6GXCXj9RjEi5/kWiXMDxAPp+MrvKJaK7gXDsRPprHjdT7+NiAmh6k7yRMoI9aFaIkTeM0oKjxPx0ABfoz5RiVFr215m9PLfyR+4QLdTHel5h7OY7RH+xojMgmjo+lOMyH/OTOEWw7y4wwZn+4PcTomKfkZnb74U4iFg19malmmaqjZ3YqOnUPh62xyq+G0W+ro7VCGfKPCsoMKVTfvrNYI9757P33sXD2Rf5VKb4NcH3eftdPt1h4Cj2Ag4+DjuF7nj5N/bbTQ/OwOGkEdMVjNUIe+5csww4a83ih+QGQu/zdbGPcfvsOB/X0l1hPAX0bl28+HOKPt9GqfHKi3ZRKFndok8d40eUP3Znh1vrsVxztsNsUB07HkvO93tOMgh9vnc3UZbSs26eZ/G//xu2NeQRRR87lqOE2uSoVnosL9er8fNGEVnDk17jF8+PlD0sCUbofigGZro5+i+LT7rKE4UfXZe8Xz6ukw3Uo031NxXuZ/WTIG3MYnCzz/kPMPy/cEg5niGZeZzSGUIKjHPc0il2c3HDAox37Nk2c8DliXSxJzPA5a+KKaIeZ/pzHgut0yReJ5G7udyU5+tLldEiUWera4oE8lrmwixA9mMDOFQnl2ZjAhPEGPUMhyhole6aF1H+ERDz1BkCeWvUF9EZjXKFyrPv0A0tpmGbKEykmnrKTXaBucUP45QuclOtJkNoaBQOclN5AL5QrmJiAsUEMqcUdGNf/kCQmUka4065T7iTFCoVLtfraqA0yf/0gWFuOmXjwinYg+fExMqevF96TWFZmV11fILleFErsGUOcnobBcS4vGiTENilTYzWlao3KQpjHAq0EoUECo7VY7CqKl5HnCZR6gMDzLMo1oH0SKYX4i7cG/PqXDK76iVESp38711qmnmethzAaGiXMpstS0b6MK/wNJCZf62ZDRNyvpgDUJFOb6lNMLpkX9pFQmV3iT5XJn6fda4x7+wyoTukc/NZlXT5h/dU61QGR6nzbX/2vSYqw2sRKgoy01DRm26WfIvpwYhLo5fqH6jhh7FCmAVwgaMGvoq5SstdA+TmpbZupEZ0JxuSvoqEHpHZNbSdkDLO4FTAiGO1RhVnJDQtMdF24d4VCPEmfVoZ25kyheaZR9LZ08/qhLieG6mlSA1a/olNE8oFhUKcS/guUFWuexqWmizLdy606JSoRvzo4Yszp50ekDNQtqxwOghOyoX4tBXFxOnZZ4cq+G0sy4rwSnQXFGH0I3l8/qDbMvk5llompaNDtdnBQ0DNeoSeqHPb5cDQqrlbvLWNHKKIv6v5m6zdLeDo8PlNq8j6YKoVfiKob57jk7Hy9fj4B2bOR4fHl+X42n03OmV1in0+A/th+fpGSt0oAAAAABJRU5ErkJggg==;" parent="1" vertex="1">
          <mxGeometry x="723.5" y="177.5" width="45" height="45" as="geometry" />
        </mxCell>
        <mxCell id="IcFnWrSgQMhNx_Vj9jzx-29" value="" style="shape=image;verticalLabelPosition=bottom;labelBackgroundColor=#ffffff;verticalAlign=top;aspect=fixed;imageAspect=0;image=data:image/png,iVBORw0KGgoAAAANSUhEUgAAATIAAACkCAMAAAAjUFIdAAABKVBMVEX////uvjRHvbAjHyAfptzWoTgWm48AAAAhOUMhGhrF0NbW7+zUnCjw3LjtuyL45bgSFBjn9/VJtuLZ8PnFxMRubGz29va5uLhGQ0RLSUnW1dVgXl85uqzuvCwfquEfodWrqqrt7e3k5OQAoNqPjo6Bf3+fnp7hrjYopprd3d1zcXIqJieOjY3Kyso7OTkPBgn99+TxymD668b78dfp9ftaw7ek3NaV18+0s7NVUlMVDhAxLS6ko6P236zz0XPwxET23qHwx1Lhs0/mwnv11onr0J7ht2Leqzf158nmxojv2bP56L6errYNLDc+kLJ0xOiUz+y84PMhEAccYH5leYEgfqQjFxIiX3siT2QVHSMiQE+w3fEjKzEjLzdZaHCJmqKLzOt5wbm/49+opa2DAAAHgUlEQVR4nO2caXvaRhCAZQt3o5Dg4CBxCFJJSKoBgWwnHBI+0yalcdocbdM2Rxv7//+I7koCYxt0YKK12Xm/IC9IaN5ndna0fmyOAwAAAAAAAAAAAAAAAAAAWBF2RqebB4TN09EO7Zu57eyMDg6Pcpc5OjzeA3GzeXq8e1TL1dauQsZ2j5/Svr1bx87x7ixdU9pOjiHXptg7DPM1sXa4R/tGbwubJ5G+xtZONmnf7G1g7yimMF/aEfOZNnqei+0rkLbL9Eog/fhgYyOZMixt7Sfa902P0XNsbGPjh6TSciesJtoLT9gizmq1A9o3TwPp5djYAs7Wcoe07z99djYujC3irHbCWmc7mha2mLM1tgrawyvGFnM2oh1Gilw3lrzXYMvZ6LqwBZ2xMjd3Zhrb+HkBZ0dsrAHSbGOLOTuhHU0qvJynbIElYK22SzucFHgxo/QvXs5yx7Tj+fZcbchuNjVzDDyhS89DjCWemiwY434JS7KEU7OWY2GPNnRaJkuzWu6QiQ5j/mqZMM1quV02drRfRSVZrDSrkV82ndKOJSU2HkRTy4WzdnRyeMDElCTsvHoYzWYop6OnzOgCAAAAAAD4Nrz+9V48vvy2NZM3b989ox1EuoiuEI/3vz/JzKSeyWw9ph1Giqj3BD4ewr05yjzesJNpjUcxjfH8+zBlmSfvaIeSFq/t+Mq+D1OWybDi7A83vrI/Q9Msk2FkbjpxSxlWNq/+j9miHUw6lOIr+/BXhLL6J9rRpIH2OYGyv8ONYWiHkwb3/4ltjBc+RhljIs3ux+8xcGMWsWTi7ox2PCnQRgmUfY5UlpFoB/TtKSxXWZ2BPiOJMp6PVsbAsyYoS0wiZS1Qxi2/ljFQ/ttJmowvkcpYeGRK1MpG9mX1t7TjSYHG5wTKort/BnoM7llnmc+YLDT/iTZ/PkRt/jCyYfbv8rYYmXgox/yXYCM7XFn9K+1YUqISvzEL3/uvf6UdSlok2GMUQpKsnmFkVhLkuMVM+DhXWZ2lX2PiYoYexcOeu2BufWLg0XIK6X5cHs+GpfwCAAAAACAR+Wwc8qEwsIM9Tf67OFTXw+me9bK0I0mPsxjGtiOMYarr3X6ediwpESfNopJsbI0Vaf1lJFkgrdqnHU06bC8nyYJMY6KmZZeVZL60Hu140qAXriyRMeyMickZOjWTJRkreRa6aiY1hqEdTxqczzeWoPaPs4yJFWB+OUs8Lder57SDSYk5zhYwxkIl85n94JR4WjJkbLYzMBbOdWfQX0Rx9WkTjEXTu5mxdVbWymmy24sbq3YZ2fq5ytnCxph4tJzJ+fYixqpdNlr+2eTPFsgxVvZj55HdTrhFdsZyigVku/GbWLbn5BTZfjWOtWq1D8Im5HvdCGvVarfHeA27RrbfXZ9njfziEhJsFvlzrA3nU3Uqt/Bxt38O+RVCPnve6/fPuh79fu88C7oAAAAAAAAAAAAAAACAVURrRH1CutkfKEmNVfsDJxlFfEASmzf6ggIa3Oj824c4V5kqK+RFag1v9AUFVLzR+beP+co011rGFzCljNeX8QWrokxqm3pRI0eesrZiNWWj7b1VMERDVzSubfLyQFEkTlHIcMNsNnVyVNHxwX6FjKkF3WyT4i4VTUMUdZWM6Q1OU/ClVMUQLVPFypSKYugFClEuE8lBZYd3SRhEmSR3yo7cQsSZgYZOaYgUzuAFvtVqSVKnhIeLtl1yOiWJGyC+XO4IIh5rD3mnjMrYfEUolWUH4be5CtINFyeW1kEdpyQ0sLIWGpZaaCmznB6WrXnepOmJqQ3L5F9AG+RYJcHzBmkwpBIelkotLyc5yXXIgUoSShA9RZMFVSFTsIIQb1YkrmkH87GALNxmSI6tphjg0pFwEnEkGOVSLWviwwGqjH/UeM+ep6yN9oPBi2wpIk9C09Yml9WJMu8DqisGo0EtK6I7PTXbyOtfvRDHyiStIbskYqcdpMO0Mn1i0h0OgubX6HgvReTXQFUr+MoU/yvM4IRA2cXAnWSA5KYoNkWSEJ6yhtXhbVcQ8KFu42KlE0HTyix7rKw4RG7H8KpgSyRXcYjNojh0bcG+UFbwX7iJssrdVqYgR/YY+MrUIW8VGqrokje1ouG4dmGeMrJMyrwn2/UvIms402SlorXR6iorXhQsT9nAj6ppjwfbw9JlZWYw+wJUh9e4pjD52fHmqHZpYo6butVQpk1SwFdm+jlk2BejLaLMWwuD8n+5rd3H1XAfjes+15H9y14oUwU5eG81lElOa7LiE2X+LFJloszbdqjwMnFV8j5MlKkdN0hM70SpPFSxofGiyMkuOa1ApmugDD/u+68rogwnDekzO6RL8FrZMiqVBNxy8moD2aTv5EkCWYgvCarfyg4QEoauq3I2auETvd0JA7llp9SSJexDcIa4IcM9WiVoRxpDfCUBz+dgJ+OuK+Ma+KnH0PdxbhRJJKrZNHD/OWiq0sC0msa+n0uKYVjjByZNsSyzKHGFfcswTL/PKBr4KiZJorZlWIqq6San7gc9iFrUDVPByah7A5rVvn4bAAAAAAAAAAAAAAAAABCf/wGl6ArsPxTvigAAAABJRU5ErkJggg==;" parent="1" vertex="1">
          <mxGeometry x="465.41" y="390.54" width="69.18" height="37.08" as="geometry" />
        </mxCell>
        <mxCell id="IcFnWrSgQMhNx_Vj9jzx-30" value="" style="shape=image;verticalLabelPosition=bottom;labelBackgroundColor=#ffffff;verticalAlign=top;aspect=fixed;imageAspect=0;image=data:image/jpeg,/9j/4AAQSkZJRgABAQAAAQABAAD/2wCEAAkGBxIQDxAODxAPDw8REA8QEBAPEA8OEA8PFxYWFhcRFRMYHSggGBolGxUVITEhJSkrLi4uFx8zODUtNygtLisBCgoKDg0OGhAQGi4mHyUtLS0tLS0tLS0rLS0tLS0tLS8vLS4tLi0tLS0vLS0tLS0uLS0tLS0rLS0tLS0tLS0tLf/AABEIANsA5gMBIgACEQEDEQH/xAAbAAACAgMBAAAAAAAAAAAAAAAABQMEAQYHAv/EAEYQAAIBAgMDBgkICQMFAAAAAAABAgMEERIxBSFBBlFhcXKREyIyc4GhscHRByNCUmJjorIUFSQ0Q1OCkuEzw/AWZHSjs//EABoBAQACAwEAAAAAAAAAAAAAAAAEBgIDBQH/xAA5EQACAQIDBQQIBQMFAAAAAAAAAQIDEQQhMQUSQXGxUYGhwRMUIjIzYZHwBiM0ctFCsvEVJFJi4f/aAAwDAQACEQMRAD8A7iAAAAAAAAAAAAAAAAABonyibXr2lWyqW9Rxb8OpRfjU5peD3Sjx479VjuL+wuWlKulGuvAVOfWm32tY+nvEvyurfZPpuP8AbNV2fwLBRwlKtg4OSzzzWvvM5FXEVKeIkk8ssuGiO2wkmk00096aeKa6z2c32Ve1KX+nOUVzaxf9L3Gz2nKCWlSCfTDc+5/E5dXBTg/Zz6k2ni4y1yNhAoUtq0pfSy9pNevQsRuab0qQf9USK4SWqZIU4vRk4EUriC3ucEumSRV/W1vnjSVek6k3hGEZxlJvXRdR4ot6I9bS1L4AB4egAAAAAAAAAAAAAAAAAAAAAAAAAAAAAAAAAAAAc8+VrybLtV/ZA1LZ/A2/5W183aP7ysvwr4GobP4FowP6SHf1ZwsX+ofd0NgtBpRFdoNKJoqGcCwQVicgqmlGbFV4hfseplv7V/f04/3PL7xheCalPLc28vq16Mu6UWSFnFr5Mw0kuZ2kAArh2gAAAAAAAAAAAAAAAAAAAAAAAAAAAAADGIMhqTwAJsQxE+z9s0biHhKFSNSPHDWL5pRe9PrLsLg9lFxbi1Zo8TTV0ad8rK+Ztn97Nd8f8GmbP4G5/KrJO2t39+1+GXwNM2e9Cy4B/wC0j39Ti4z9Q+SNgtBpRFdoN6CNVQ9gSkFUtZStWRpRsYpvDW9pzy+MtY+MutbzZbw1ja2j6mSqOqNFTQ7qt5kq7Nq56FGf1qVOXfFMtFatbI7t75gAAAAAAAAAAAAAAAAAAAAAAAAAAAABiRQu54F6QtvnuPJaM9WpwvZdxOnJTpylCWPlRbT6uo3nZPKyosFWjnX144Rl6Vo/UaFZ8OsdWpdcbh6dVtTV+v11Kxhq06a9l26fTQfcvtpwrWtFwebLWTawacVlksWjXNnVdBzbkq2XSlvy5Xzw8X1aEGnFUafo46EmpN1Z771JbGehsFlDNglq9wkttmSj5MlJcz3M2TY9GUcZSWGVbumT/wCMg4qtuRcuwlUKW/JRLl3Qjl8VJZdz6Vpj3oU3KHOPjJPSUcH6W94lvng2nqsUyBgK7knFvNE3G0VGSa0YmvTWNqcTYb2pqa1tOpqduk8zk1Fkdl5MTzWNpL/tqPqgkNTWeQlxjsy06Kbj/bOUfcPvDlfrK1SS+b6nag7xT+RYAijUJEzWZGQAAAAAAAAAAAAAAAAAAAAAAAADzMV373MaTFF/oeS0Z6tThln7x1aiWz945tS94j3mVSlohrbjOgLLca2qOZVJkBnaQHLWWMY+l9bKWzaW/F6Lxn1Is58W2+JXNp1tILmd3Z1HWfcYuXvXZXtZFfW0aiU3ji1hLB/SR7vHvh2F7wtZYqUOdYx7S/wc/DVvR1ueRPxVHfo5arM1q92QnpOS9CYgvuTjljhWXph/k3W6iK7hFopsrU0Rcn9oOytYW8k6jg6jzR8VNSk5aPrLFblmo/wZP+tL3Ci5FF4e+qUpybktfmz31ipFWT8Ebtya5YO6uXbuiqaUJVFLwmdtpxWGGVfW9RutGeJx3kNLC/j006i/K/cddtXuObjaUadXdisrLt82ydhZynTvLW7LgGEZIhIAAAAAAAAAAAAAAAAAw2ADZjMU767jShOpN5YQi5Se94RW9vcQW204VIqdOcakHpKElJd6PbO1+B5fOwym9wo2hxLf6ShffVVgzGWjMlqcSs+HWOrQSWb9o7tWXvEe8yqUtBrbDqygJ7NGybKoZml/xLizkV5KKJ9KN3kM4rLTS4z3vsrT1mIs8VauaTa00j2VoZiylVavpajmW+jR9FTUAv340PNx95XhUwaa1TxJNoy8aPm4FTMR5v2mSoRvFF6/gn4y0ksy9PARXUR5bSz05Q4w8aPZeqFV7AtOz66q0k+OjKtjaHoqrjw4CO5E94OLoT3h1oHNke+R08No0elVF+Bv3HYbTQ4xyWlhtG37VVd8JI7NZvccvaa/NX7V1Z0MC/y3z8kXkZMIyc4mgAAAAAAAAAAAAAAB4kezxU0ANf5US/ZLlfc1fyM43s26nSlmpTnTlzwk449fP6TsfKVfs9fzFb8jOK23AsWxEnSqJ9q6HH2plOD5+RuuzuV1ZYKqo1V9byH6t3qG/wCv6dSLWLi2nua96NFtxjQM8Rs6hPRW5fxp4GujjasdXfn/ADqaxQzQwU4yi+aScX6xxZ1dB5TimsGk1zNYolhsylL6CXZxj7CTUrN5s0xp2MbPeOBtdn4lFz4z8SPV9J+4UWGx1isspdCeDGt1JZlTj5NNZF0vi+8rm2MVu091ayO7snDb9XeeizPUGTQZWgyeDK1EsUkeNpvx4ebplLMWNry8ePmqZRzGmrL22SKcfYRbtbjJOMuCe9c8Xqj1tSlg2uGqfOnvTKWYvTnnoJ/SpvI+w/JftR09k4ncq7j0fU5e18NvU1UXDoa1ecRJeMc7Rnhia7eVS4U5Iqc4meT8sL+2f3mHemvedpspbjhWyK+F7bP7+ku+aXvOz2tyc7ab/Mjy82TsCvYfPyQ+jIziLoXRapVcTm3JpYAwjIAAAAAAAAAAYbAMniQZzEpACLlFHG3rL7qr+VnE7fgdv27vo1V93U/KziFvwLDsP3KnNdGcfanvQ7/IY24xoC63GNA6dQgQL1EZWsRdQQ4soEGq7IlQWY2tH4OEqv1VhHtvcviUoMn2pUyqFFcFnn2novQvaVIMou0cR6bEO2iy/kuuzsP6LDq+rz/gtwZPBlWDLFJNtJLFvgR4skSK+25fOQ81S9gvzF7bcG55otSUacIyy78GlvFeYjV3ao7kugk6asTZi3suulUyy8iosksdN+j78BdmBSMIVXCSktUZTpKcXF6PIYbRsYJtOEMU2vJQjuLKn/Lh/ajaK8/C0oVeLWWfbjuffuYhu4l/wlZVaamtGUHE0nSqShLVMR1bSnFqUacE0001FJpremnzkVzd1P5k/wC6XxLtwLLgnpJ6kNtrQWXlaT1nN9cpM7HyPq42dr5mn+VHGLo65yInjZW3m4ru3e4ibUX5cefkScB78uRt0GeyOloSHEOoAAAAAAAAQVZ4EzKN3IAST5WWqrVLeVVU6lOTg1NOMW1zS09YxhfqSxi1JPRppp+k4zylljfXT+9n8DzY3M6bxpznB/Yk4+w7z2NGVOMoSs2k7PNafXqcn/UnGbjKN0m9MuP06HXNp18ac+xL2M4naz0Nto7fr5XGclNNNeNFJ96wNdhseS8mafaTj8SRs/Dzwu+p2zta3yuacZWhX3XHhfxsWLeQzoMVwtKsdYN9lqRZpVGvKTXWmiTOaZHjBjy1Nj2TTWKcvJinKXZW9ms2FTHA2OpUyWrfGrJU12Vvk/Yjj7SxPoaMpnU2fhnWrRp9r8CnVruc5TespN9XQSwZTpsY21BZfCVHkp8/GT5oriUKF5MvlS0UTW1Jy0wSW+UnujFc7Zm5vkk4UscNJT0lPq5olS7v3NZIrJTWkVx6ZPiypnM3WSyj9fvTr56o0b5y+n3/AILMKrTxR5r0FPxobp8Y8H0ogzmVM1bytZm7cad0VXLDc9zMZy7VUauuEanCXCXQxdVi4PLJYM0zTjnwJEGpcx5sGtmVSg+K8JDtR1XpXsKl/ApWN34KrCovozTfSuK7sRvtqCjKSWmsemL3r1MtH4fxO9CVJ8M+5lV/EGG3akaq/qXijWrkV3IxvJim5qFsgyryQuumdV5Az/YbfsyXdOSOSXVQ6XyAucLCjv0dVfjkRNpNehj+5dGSMD8R8vNHQKdTce/CmuVtv0afl1qa6Myb7lvFN3y8toY5fCVX9iGC75YHJhQqT92LfcdGVWEdZI3pTPaZqXJHlR+neGapukqUoJYzzOWZN4vdu06TaqbMalOVOTjLUyhNTW9HQkAAMDIwxfe6DBi+90AOH8of32589U9pHRJOUP77c+eqe0jol4p/Bh+1dEVar8SXN9WXKRcpFOkXKRrmZxLdMt0kVKZdokWRuiMLS2g/ox7kj1t6aVSFGOlKCWH25eNL2ruJ9lYOcE9ycljjzFXaSqU6tSrKnUU5TlLwko+LBN7lF6Y4Yb+7nKj+IqloRhwvd92niWn8PU06kp8UrLvCnTjSWaqsZaxpceufMujUguLqVR5pPoSW5RXMlwRUdTHfjj064mM5VXVurLT71LWqVnd6k+cM5BnDOY7xnuk+cM5BnDON4bpPnJPCqSyVFjHg/pR6mVM4Zz1TseOFzxc27hvxzQeklp1PmY/p0/0i1pVM2DinQlux8nfH8LQlpVWty347nHDFS6MB9se1nTo1s0JQhJxnBTWDU1imljvawa7jobIqbmLju6PJ9/3xzOdtmG/hHvaqzXz7u2z4ZCK62PF6zn6MEUZ7HpcVKXXJ+4f3LKFYv0ChSFU9mUV/Cg+0s3tI5xSWVJKK0ityXUi/VKNY3RNTKFcXVxlXFtwb4mtm5/JRPfdrpoP/AOnwOpUHuOU/JU/nLtdFv7ah1W30K/tD9TLu/tR2MH8GPf1ZYAAIZJMMX3ugwYvvdAwcO2+/2y68/V/MzxRPW3v3y68/V/MzzRLzT+FHkuiKrU+JLm+rLlIuUinSLlI1SNkS3TLdIqUy1TIsjbEY29QZ217KO5SaXNw7hNTZYpyItSClkyRCTQ1nGjU/1KNOTerivByfpjgQz2Nby08LDqlGS9axIIVCeNQ5dXZeGqO7gjpUdp4mmrRm+vUhfJyL8mvh2qb9zI3yafCvSfWpr3F+NU9qqQpbBwr0T+rJsdvYtatPuQt/6Yl/Po/+z4AuTT43EPRGb9yGnhjDqmK2DhuN/qZPb+K7V9EU6fJ2kvKrVJdmMY+1snp7Ltofw5TfPUm/ZHBHqVUjlUJNPZGFh/RfnmRqm18XPWbXLLoWo14wWFONOmvsQjF9+pSua7erbfTvPM5laozo0qMIK0VY51SrKbvJ3Ia0inULNQrVCTE0MqVSlWL1Uo1jdE1so1xbcDKuLbg3RNbNs+S1/PXK+xR9s/idXttDkvyXv5+483D8zOsWuhwNo/qJd39qOvg/grv6stgAEIlGGUruJeIasMQDgfKD9+uv/IrL8UjxROvbX5N29w3KpRg5P6cVkl6ZR3v0mrXnITDfQqtfZqLH8S+BZqG1qDiozvFpJZ6ZL5eaOHW2fV3nKNnd9/iatSLlIsVuT9xS1pOS54eMu5b/AFEEE08GmnzPcyWqkJq8GnydyO4ShlJW5lqmWqZVplqmaJGyJapliBXpliBpkbETRJIkUSWJpkbCVHtHhHpGJ6jOJhsyDMT0wyORIyORkCORDMmkQzMkYkFQq1C1UKtQzR4VKhSrF2qUaxtia2Uq4tuBxGzqVd1OnOfZi2u/RDC15EXFXfUcKMen5yfct3rPZV6dP35JffZr4CNKc/dV/v6GPkv/AHquvuk+6a+J1u2W41jktySpWcpVISqTqSjllKbSWXFPBRWm9G2Uo4HCxlWNWs5R0yOthqcqdNRlrmSgAEU3gYaMgARygRToIsgAL52i5ipc7MjPdKEZdpJjrA8uI43HyNUr8nKT0i49ltep7inPk615M31Sjj60bq6RHKgiRHFVo6SfXrc0yw9J6xXToaS9k1I8z6n8Tz+iTWsH7TdJWyI3aLmNqx9Tjb77zW8JDhc1BQa1TXWmSRNodn0EcrFc3qMvXu2Pj/4Y+qf9vAQI9IdPZ65l3Hl7PXMu499cj2PwHqr7RQDGv6vXMZWz1zHnrkexnnqsu1Chkch8tnrmXcelYLmXcPXF/wAT31V9prbR5dGT0jLuZtMbJcxJGzXMePGvhE9WEXFmofq+o/o4dbR7jsKctZRXUnL4G3xtUSRt0YPGVeFl3GawtPjc1OlyZh9KU5dWEUMLbYFGOlKOPPJZn3s2BUT2oGmVepLWT++VjZGlTjpFC6nZpcCzC2RaUTOBqNhHCngSJGQAAAAAAAAAAAAAAAAAAADGAYGQAPOUMp6AA8ZAyHsACPwYZCQADxkDIewAPOUzgZAAxgZAAAAAAAAAAAAAAAAAP//Z;" parent="1" vertex="1">
          <mxGeometry x="723.5" y="275.39" width="50" height="47.61" as="geometry" />
        </mxCell>
        <mxCell id="IcFnWrSgQMhNx_Vj9jzx-31" value="" style="shape=image;verticalLabelPosition=bottom;labelBackgroundColor=#ffffff;verticalAlign=top;aspect=fixed;imageAspect=0;image=data:image/png,iVBORw0KGgoAAAANSUhEUgAAAOAAAADgCAMAAAAt85rTAAABKVBMVEUu01oAAAD///8m0lV+45kz1F5445Mv1lsv2Fwr01gk0lQw3F7x8fEc0VAtz1js7OxRUVHCwsLKysr5+fkim0IFGAoszFcPRR3k5ORdXV28vLyrq6vv+/L//v8rxlQglkAGHQwqwVIQTCAlrEkOPxt0dHTT09OXl5cMDAyMjIxpaWnX9t88PDyCgoJGRka68ckotk0TVyUMNxcYbi8lJSWioqIbezT0/fcHIw/H8dAyMjJe2ntt3ohD12ojo0YdgzgaGhqc56yN5aIVYyrP9NlL2XHj+emu7r8gICBf3H6s0bWOvprA3sZczXmK65YKLBIwVzooNiwSBhBklHB70JAlRCwDEAZfr3MAFQCy7L9BMT6jwKu1xbk+iVBQq2aY6aymza+25cJVzHOlChZyAAAOj0lEQVR4nN2de1/iSBaGQwIUF4MXbBsBsZH2gqhgt0ojoIIC7W7P9u7sbu+4l3Fnv/+H2CQIJFAJ9VaqEsf3v/61hDzU7dSpc04pqqHs8A/96BvTH78VTTRVUdWdYZToqZT2ppTS9e6oaQHutNp6UnmDSur9oglYG2hhv4osaf2mqjR/SoX9HvKk91Tlmx72W0hUsltUom+2g5rSvymDNznBTKT9SYmF/Q5SpUUDACRTSf+qBWlxqYCEJBKJUqNys2no5qZRUtKJRKCYMgEJSZd3r84/fvr+5cM7Qx++fP/08f39bYWkg2tLaYCElMqVjxG6vjfKWwExSgJMbFV2zz+44Jn6cr9bKSUkfPO8ZACSdGn3/rsH3Vgfzncz8hHFAxoD7/7Tj6V4pn583FVkIwoH3CqfM8FNmnEzI3csCgYk5c9sjTfTZ0UqoVjA9M17EM/QldQ2FAmYIFfvcL5IZK8ikVAcICntcuGZupXXTYUBkgY0uczpqiSLUBRgwtVqYSQU8RI0CQJMlP3xRX7cSjLdhACSzK4/PFOftqQQigAk5Xv/fMZkWpZBKACQYLaLu85lEPoHJJnPYvjkGDW+AUnmShSf0YbijRq/gIbxKY4vErkX3kt9ApKSoPE3kfCZxieguPE30XlGGJslf4BpgeNvoj2xW2BfgKQsni8SqQgl9ANIGnsyAL/fvBJA0uDY3bLog8j9oQ/ALcET6ExfGuII+QETAgxsN52nXwEg8fLr+lVD2ETDDShjhZhpT5jNxgtIbrgdMEz6LGq95wQUbqIt6EoQIW8L3krmM9Z7MZ2UD5A0pPNF3ouZSfkAEz5dTEwSsxhyAZKK35c/YvibPSGjkK8Ffdig1/uF/Pr6xvp6/vL0zPMvf+yKWAx5AMkmeoI00V0ht5pVJ8qurq7ve/y1kM0vVwty7nK/XqoUHV64fmAzHEDSWH48TcOrbtD4VPXgcNvlI+dboQBmuNbAbRc8U6t5l1a89b9U4ICkxNOA+yvufIZyLmPR/1KBAyZ4/PTU0efQ+gntc3/2fa4AA5ISjnd3uJTPGIq0tfEvP/mN9YQBE/g26Wh5+5nKf1386M9/9RvsCQNmcCutysRnEFI+u/03n6MQBUzswov8KSOfqhYon853/HVSuAXhRf5khxkwe7j48eNvxFcnBQFJA+6hHuvfoiifzz35SgpAAW/QHnqcXY410+XiAy6bbT+dFASEDwOPXRb44rD+3Bl0Y93BY/+pVmxOOinFalNbio9OCgKWPmF81wdUutroUdNTWtKUmWQUi48ehtZ/UWbSw6afxAcMEHZVUFeIp3hXd76yQRlr92rG/+XWFp5xcdDq8jchBphA7WzaAIzHNMr7JjWtOzL+t7r4kEv1kb8JMcA02EOPKd2z45rpltS7NbWwaLHt79T5s48wwC2wAXPzeM1W22vS1/Tot+uFpxgDmb+PQoCoHXq60EOjsSWdLdX+++JzCip/E0KA6By6vsC3PBEzTXGZb680+7yrPQKYuMEOlLbne2iPYa6g9pKcWuPtpBAgOIfO75KYZntCO3bMq9xrIQJIMEN7bW4EtpgyaalO5TVVrcf4mhAAJGXM3zvXgDW2N6RHbhjzb1s+YOULBDi3/jFnQtOeVVDVEd9EigDeQHxrTsBnVr407WGmxSAfEIs6cDqahsy+FSrgyarKaa8BgOBWyblGsKwQHoDmgOZb7AHAEjTHrDk2grUU8xRBqI8z1tQil4ONHZCUoTnGOYcCniO6vXu3YfQCHmsGAUT4nGYa0LvcviZvLKQ8S6EswAu7rwnxqridHlez6pDHOQMAbiKADl/MCHght7nanEd7UlsQ2yvZfRVFxHfr+jXGrFzksGYAQORU6ahgN0KRseP6NeYTOaYZdsA0Eh3qGILQa6XdFiPTmKnhSyEAiJx7miNmZoVCHcvNdX5nPgv3kAKAiE/bbog+ID+7RwCAufuKwn0UAAT4Ivs2wDjyUsT99CqP/lgyAe12DPROHnO1eQxXhD0XkgBtcwxmI2fc52qz2+POJ0mAtq0E9Eqk7D5Xn5m2wxPaR4F1EAG09VBoG0cq7o47a+l5QO1R6YCYv8/LHrSMhyG67QVsUYDvhM8ONfZKXuaSZf4xuz5gQGQMzg5dmtDK5R1FtW+uhE9gaJAcwH3eHup5/mh5yh/AhUIO4GwvgTn7vO1d67i4CTou5ABOQ2OakBmz7DvW8Z8MAQQyQaZdFDO0l8WCj+0jbKmXs5uY2tpD6G22lgThjD112EIhZz94MQFsQTuJzWWdxNqEPUM/mqQd/QSwBwEudYpswD8aAoicDk72u3GgO3nZoS+yjgOK0K4XsGSQbJCJVxSZYxjcdpYBUYQGoSS/6GQhTAKADCmz1tjGtkwIIHBCP7HVgOHCFEVlPRTaMiGHL0Ak5dn4+LoJvEqa5YB8PDXLGYNQWYeL8SAcAmcSTMHu1ka6hoxsWQeg4+NPwI/J1ICW40kdIp5y6AgbMNbWrN+a3Qm2fA20/W7ILIMANoBApyNsTWZ99tiKZz8uxuJkPLfb86pmEUDW4/Fj2EsARTpB50s5oIsyB9qOrXgkQBaKdPJweS3qmn0WJRnWh56NJ2dgGsXiRaEwhMusWmQDZO/7L4c6wFEvBIglJ5tuPiZAoOzHS5A7sE6AIc0IYOTrgcoUfrfJ3vNfzh2BdUJuUPrB4/LBAtkPd3nUlQWmFZQxwJ//kVySPEYUKEDs5WgcOEVDM1/A3KxfrhrefFu3WK7QJWrES89d+tJIuzciIWgixiG6DUPT6yBrZqzbkkIvjkoyFTDKfbqTZt/UwwmSHIVyvt/elBfuYCCJTIWj4EAVdWbhWdg8Sdg/9q42t2Y3TRCSJo3beyyAeKwXnzn7PiyQLGxT7z7tfd5tZNKGthqbn99zVVN4OWFCPGschQLKfK8mRi8xcOzBCDylHoRXpEQAx8Yoe9QaV7GOIOoBuWh7DNhktka56sngqebCNHaFAAfHXPVk5BaNYwFkD/DjrMpFyYELRmcvgMzOX86qXL/+MyzAl6xnZm8PH2By8K+QCE8mgDInGUOp+L8XU1EDBWSNeOKuTlmn1Q4JDpA5moQXMNWh1g4JDJD5fIK7BbVa9vhtA3bVrEdJNNmAQ1Zbjb8Erv6kqhvUSlOBALJuefkBk4Ohqh641XyTpck6yJxs4qMMtdYzvmg1YMIgAZOxlvlV63dBAk5s0SZrgIqfUvDa4MH8ro0gZ9MpIOt2wlcx/9TAquSzkg9urplWVwgEUNGj429bKQRluB1PYqhYjyd8XqhhTTSWNoKZbaZFIAMCTA5qE0K1esZSudcvYDZYQEXrDKeEuY1D6T11GkscFKCS7M7aUN1ZPaiydtWjs9MCbq9Po8FZo0b9XyylxR5Up3KX+9tnJxeUDnv09eL6bO349DA/ngy9ShjTNa2vEFgLmsthTV1UbqNweXhYrZ7uHxvaP61WDw8vC/mNnC17ecW7DvVrATT2hkUK4UTZFUP0+n/rlIqiSzTN2wsSUEm2aW24XJRilEt0N01+DhRQ0fR+04uErhzeQ2fJz8ECKkktjjcih1fnepqYGDCgMRC7dZAvi8+hk0BbNShb1PGkGNhNVzn2WdOMk2B2E04l9W4dQeTxO07z9gLZD1IQ4y2vFcMpnj3W1FILYkdPUyrW6Q29qPw1YGS6SjCHNQsGNMuEDqLzthtNq/gaEbFldwfgVXNnTOmxenHZaKTUEWXQ9OMB+EU9GfVBv/4w9IDMnvLwzQDle7aXIab07mO899Sq0WedA66d4/b089IPX1gYtZQW63YH7U603+uNnuqGnkajXj8a77T/w9WAsxIZzAUDJAKOKZPGtJNKpfSZjH+lyr9wAc4qSMg+APUpsEziRLZidMwlQMIBhMonzWQrFMUc8xsKIGc02J2tiAtzIm84Lch389b2rFAUsykaDiBnpJStVpvUWDW/4o11s9dqkxpt6FecU6jj5oMic+JECIBIqqxdMzMGSZwIHpD7/l57pS/27KzgAbnv77V5jOXlTfhXAqriadO1rQHlZb4IEO8N4fYeKi13yb+4o4WPbOUgkRKHAQMyFORwUdV+vCErQdK/uCP27XYoVAkrWED+K94dNYORmwsCBSRbvOH6F46q1rLy6H0LvLDCJsf9TexbCSVYwMTSmk2uchygyirW4VdQqQin7DWfjSEop2COb/EvEWeOiwGwcolBdlGskoJNzosBsGJ0wS4TfNfYb686ALFi2wGvg+VzfKE4mbuDEiuXGLSplrlFZ9KLOb4iVkE1+N0E6rDIO/nQWuIh7Oix3LztuTs2kVIrpkLwySQqgFNmboLB75wIwy8K1HdYm79DFKrIZSqks4lf2QLZ9xduaKyjXxUOoF5fYYkCOl244xYsqauEBJhqG++aXxqFsMin1uBrbcIATD5akSbZy8UraW26KFBiMDsS75sQplnwZa7ginh0SrtDG79uIhTAbmv6xisH9GiL0xwthBYrnTpWKF1U79hfO7+/5oj8Pdm+pN/wXnzkuBsspFl05Hz19dPjs+uLu7uv12fH1YWlYaK63MvdRCoZG80FCa3mDjYMHeRcbj83G5Dr2vZwAJWk0ncFcRO8BFoKCdAYh6nWcia7oJLdM4UFaDbiaDnVTFx38ylhAhrLBUAIXRBnV4iAxlQTZQ2Brj3yfkmYgGZIYo8pBLqmc7ZfyIAmYodhrqnzX0cfNqAZ5f28JKWk2OOcXyyFDqgkk92+F9+wi9/JZ1P4gOOEC7eh2HyKcQ8/S68B0ERsj2gZF8N6R/PTfMprATTz15Kd53rNSddva/6aT3k9gIY0LdZtx59H9VarNXqOPg5i/vEsQB9zsGBZ8d2TwG4NuYzDXam+wncN+u9F+n8V+M7C35W0oVL0s46+dunRrLLzm5je/hplpsArarH/VglT3d92DEC1+FtMf3uISU3/X21HNQHVneLTYzfsFxKsWDf+zdpu/h8ziHhOWw0qOgAAAABJRU5ErkJggg==;" parent="1" vertex="1">
          <mxGeometry x="71" y="278" width="44" height="44" as="geometry" />
        </mxCell>
        <mxCell id="IcFnWrSgQMhNx_Vj9jzx-32" value="" style="endArrow=classic;startArrow=classic;html=1;rounded=0;exitX=1.005;exitY=0.182;exitDx=0;exitDy=0;entryX=0;entryY=0.5;entryDx=0;entryDy=0;exitPerimeter=0;" parent="1" source="IcFnWrSgQMhNx_Vj9jzx-3" target="IcFnWrSgQMhNx_Vj9jzx-14" edge="1">
          <mxGeometry width="50" height="50" relative="1" as="geometry">
            <mxPoint x="570" y="350" as="sourcePoint" />
            <mxPoint x="620" y="300" as="targetPoint" />
          </mxGeometry>
        </mxCell>
        <mxCell id="IcFnWrSgQMhNx_Vj9jzx-35" value="" style="endArrow=classic;startArrow=classic;html=1;rounded=0;exitX=1;exitY=0.5;exitDx=0;exitDy=0;entryX=-0.004;entryY=0.187;entryDx=0;entryDy=0;entryPerimeter=0;" parent="1" source="IcFnWrSgQMhNx_Vj9jzx-12" target="IcFnWrSgQMhNx_Vj9jzx-3" edge="1">
          <mxGeometry width="50" height="50" relative="1" as="geometry">
            <mxPoint x="290" y="300" as="sourcePoint" />
            <mxPoint x="340" y="250" as="targetPoint" />
          </mxGeometry>
        </mxCell>
        <mxCell id="IcFnWrSgQMhNx_Vj9jzx-36" value="" style="endArrow=classic;startArrow=classic;html=1;rounded=0;entryX=1;entryY=0.5;entryDx=0;entryDy=0;exitX=-0.004;exitY=0.818;exitDx=0;exitDy=0;exitPerimeter=0;" parent="1" source="IcFnWrSgQMhNx_Vj9jzx-3" target="IcFnWrSgQMhNx_Vj9jzx-9" edge="1">
          <mxGeometry width="50" height="50" relative="1" as="geometry">
            <mxPoint x="330" y="250" as="sourcePoint" />
            <mxPoint x="620" y="300" as="targetPoint" />
          </mxGeometry>
        </mxCell>
        <mxCell id="IcFnWrSgQMhNx_Vj9jzx-37" value="" style="endArrow=classic;startArrow=classic;html=1;rounded=0;exitX=0.5;exitY=0;exitDx=0;exitDy=0;exitPerimeter=0;" parent="1" source="IcFnWrSgQMhNx_Vj9jzx-6" edge="1">
          <mxGeometry width="50" height="50" relative="1" as="geometry">
            <mxPoint x="425" y="370" as="sourcePoint" />
            <mxPoint x="500" y="330" as="targetPoint" />
          </mxGeometry>
        </mxCell>
        <mxCell id="IcFnWrSgQMhNx_Vj9jzx-38" value="" style="endArrow=classic;startArrow=classic;html=1;rounded=0;exitX=0;exitY=0.5;exitDx=0;exitDy=0;entryX=1.024;entryY=0.812;entryDx=0;entryDy=0;entryPerimeter=0;" parent="1" source="IcFnWrSgQMhNx_Vj9jzx-16" target="IcFnWrSgQMhNx_Vj9jzx-3" edge="1">
          <mxGeometry width="50" height="50" relative="1" as="geometry">
            <mxPoint x="570" y="350" as="sourcePoint" />
            <mxPoint x="620" y="300" as="targetPoint" />
          </mxGeometry>
        </mxCell>
        <mxCell id="IcFnWrSgQMhNx_Vj9jzx-39" value="" style="endArrow=classic;startArrow=classic;html=1;rounded=0;exitX=0.5;exitY=0;exitDx=0;exitDy=0;entryX=0.5;entryY=1;entryDx=0;entryDy=0;" parent="1" source="IcFnWrSgQMhNx_Vj9jzx-3" target="IcFnWrSgQMhNx_Vj9jzx-18" edge="1">
          <mxGeometry width="50" height="50" relative="1" as="geometry">
            <mxPoint x="570" y="170" as="sourcePoint" />
            <mxPoint x="427" y="140" as="targetPoint" />
          </mxGeometry>
        </mxCell>
        <mxCell id="IcFnWrSgQMhNx_Vj9jzx-43" value="" style="endArrow=classic;startArrow=classic;html=1;rounded=0;exitX=0.5;exitY=1;exitDx=0;exitDy=0;" parent="1" source="IcFnWrSgQMhNx_Vj9jzx-19" edge="1">
          <mxGeometry width="50" height="50" relative="1" as="geometry">
            <mxPoint x="570" y="350" as="sourcePoint" />
            <mxPoint x="500" y="120" as="targetPoint" />
          </mxGeometry>
        </mxCell>
        <mxCell id="IcFnWrSgQMhNx_Vj9jzx-44" value="" style="endArrow=classic;startArrow=classic;html=1;rounded=0;entryX=0.367;entryY=0;entryDx=0;entryDy=0;exitX=0.5;exitY=1;exitDx=0;exitDy=0;entryPerimeter=0;" parent="1" source="IcFnWrSgQMhNx_Vj9jzx-1" target="IcFnWrSgQMhNx_Vj9jzx-18" edge="1">
          <mxGeometry width="50" height="50" relative="1" as="geometry">
            <mxPoint x="570" y="350" as="sourcePoint" />
            <mxPoint x="620" y="300" as="targetPoint" />
          </mxGeometry>
        </mxCell>
        <mxCell id="IcFnWrSgQMhNx_Vj9jzx-47" value="OSM Data - nginx static osm pbf file" style="shape=cylinder3;whiteSpace=wrap;html=1;boundedLbl=1;backgroundOutline=1;size=15;" parent="1" vertex="1">
          <mxGeometry x="277.5" y="360" width="120" height="140" as="geometry" />
        </mxCell>
        <mxCell id="IcFnWrSgQMhNx_Vj9jzx-24" value="" style="shape=image;verticalLabelPosition=bottom;labelBackgroundColor=#ffffff;verticalAlign=top;aspect=fixed;imageAspect=0;image=data:image/jpeg,/9j/4AAQSkZJRgABAQAAAQABAAD/2wCEAAoHCBUWFRgWFRYYGRgYGBgYGRoVGBgdGBocGBoaGhgYGBgcIS4lHB4rHxgYJjgmKy8xNjU1GiQ7QDs0Py40NTEBDAwMEA8QHxISHzQsJCs0NjY0NDY0NDU0NDQ0NDQ0NTg0NDQ0NDQ0NDQ0NDQ0NDQ0NDQ0NDQ0NjQ0PzQ0NDQ0NP/AABEIAOEA4QMBIgACEQEDEQH/xAAbAAABBQEBAAAAAAAAAAAAAAAAAQIDBAUGB//EAEMQAAIBAgMFBQUFBgUCBwAAAAECAAMRBCExBRJBUWEGMnGBkRMiobHRQlJiwfAUcpKy4fEjM0OCohXCBzRTVIOz0v/EABkBAAMBAQEAAAAAAAAAAAAAAAACAwEEBf/EACkRAAICAgIBAQgDAQAAAAAAAAABAhEDITFBEmEEIjJRcYGh0ZGxwRP/2gAMAwEAAhEDEQA/APZZm16rqxF/DIaek0pTx9O635fIyWVPxtdGS4Kwxjc/gI9ce3EA+olSE5FkmuyXkzRTHKdcviPhLKODmCD4TDiq5GYNvCVjna5GUn2b0JibN2ozLvPmCzbthY7t7C/PSaX7WvDOXWWL7KN06ZZhKbYs8B6yM4hjx9IPLEXyReLCQV8Wqjn4fWVCZTxNS5AEnLM+jJS0SYjaDHQ25AZnzvKdLatbiy+BAv6i0eAB+vnKFZLsb5DUDx5/SQlOXNkXKXNmom3yO8FP7pN/TOXcPtim+RDKfxDL4fnMClSvkB9BNClSC6a85qzTQ0ZyOgVgcwY6YSsRmCR4RmI7R0qP+dVpr+86qfS8vHMnpoqpHQQnKVv/ABB2cuuIBPJVdviqkSuv/iNgCbCuo/eSqPiUAlW6Ns7OMaoBqROdw3aXDVTZMTSYn7IdQ38NwZcZAM9ONx9NDJSy10K5F98UOAvIHrsePpKiVvP4H04yVXB0/r5iTc2+zPKzQwz3HhlJ5RwjWNucvToxu0PF6FhCEc0IQhAAjHW4IPGPhADCdbEjkbRktbQWzX5i/wCX0lWefOPjJoi1TCVse5VGtqfdHi2Q+csynifeqInBbufLJfiT6RVyPjW7fWyzSQKoUaKAPST0m4SKCNYzUxLt2WbxlWpuiOvEdQRYxrArNVJ4yJDqf1YfoxcRTK6cchGrllMsm77HP+YkOKGYP6/WckfT4+kgx9dEQu7BVXMsdAP1aY9ox8FzDpZR1zM57G9qgzmjhEbEVRruW3F6u590DrnpbKUqAxO0sgXoYIZEjKriLZG33U/Wei9hs7ZtLDoEpIqKOC8TzYnNj1Oc6IYdXL+CqVHN0+zeLxGeLxJRT/pYb3V8DUOZ8ALTVwPY3AUtKCMdd6pd2vzu95sOx1ghJv0l1S0jRaWFpJkqIv7qgfKLUpIRminxAjQCRGuDC2BnY3s1gqt9/DUzfiqBW/iWx+Mx6nY16QvgsVVo20Rz7Sj4bjaeOc6XeMctaHPJhx//AF/EYYhcfR3FuAMRQu9K/DeXvL8z92dfh6yVUV0dXVhdXQgg+BHyiVrEG4BUizKRcEHW4OonKYnYNXDOa+zjYE3qYVj/AIdTmU+61tPK2XumcsUX8Jio7Km5DC/PI8D/AFmvOU2Dtuli6ZZLqyndem+T025MPEGx6cCCB09E3UeA/rMxabTKRJYQhLjhCEIAEQmLGNACntJbqDyPz/QmdNTEC6kdPlnMucedVKyclsJUrYW7b6uyNYC4sQQNLqZaiM1hc6DOSToyMnF2im9eonfVXHNDY/wNqfAx9HFB7hQbi1w3u2vpca/CSov2jqfgOQldsq4/GhHmhv8AIw5HXjJPWy8pYjVR5E/G4jtw8WPwHyF5GtQDIkD5+kd7TkrHyt/NaZZMkVAOHrmfUym1FgcjfkDx8D+Us75+6fgfzi7wYcx+vQzTGrKLVAL3ytrfK3jOXwWGO0q281xgqTndXMe3ddSfwD+mt92x2qZq1Wng6TkNVBNVsrpRU++b9dBfw4zrMBQSkiIihURQqjkBp4niTzJnThhSthGNFmkgA3VAAAsAMgAMgAI72fu36xFYXvkPCPdyZZsYctElRlnfjEoqMySBkRbj+tY0v5xAJgWOFgSL3BHCMcjK3DnF3M7cYVKRGo1mbM2RPnwkLJLgo5C5tfQSILwMNmbKTkgHwkOHxEvYildfGZFWkVM2zGZ+39kur/tuDyxCD30HdroO8rAatYZHU2HELbq+y+2KeKoLVpnI5FT3kb7SN1B9QQeMy8NiJje0/wCn41ay5YXGMEqj7NOsblKnQMSb/wC8nQCNVu+x4y2ejwhCaVCEIQAI1hHRDACpWNhKZQchLGLbO0gnLllcqEk9jTTXlIqtEGwzzPyz/Iesmjb+94D5n+klSFGmiOcoY7DklGByVwCcwfe91rETSdrD5eJyHxkGKp3pso4LceIz+YmpKxoaaBaO5oAPCLvxGqbyqeYB9RIa1TdHXh9T0k3piNUSPWA8eQzPpKuJxNs+6fxZA9CdJD7Y8OOp4mYPajFutCpukliu4ov9pyEW3mwjQ96SQqkm6RZ7H0jVNXFt3sQ5VL8KNM7q2vpchj1sJ16U7m0ztmYVaSJSXu00VB/tULf85sIcx1Fp3tdDLY1qdhcG46R7013bi5ztn9Ip7rXFsxFpr7pBIF7EXMyhqEobpytnY5ww32uYGUSiADcsMvjGmoqtdc9b3mqLYIlq5qDe5BtcRjm6A8jb1jKtUEbqiwveAxLaCw8BG8GFokvdVIF7ZeEgr6mN3yOMq13vElFpbEk9CO5vIna/CEJGxLKbWBhtLALicPUoPb31IBPBhmjeTAGTVkvEwz2MrGQyZZ7B7VbEYNC/+bSLUKoOu/Tyu3UruserGdLOG7Mt7HaeLofZr06eKQcAQdyqfEswPlO5lGXTtCwhCYaESEZVawJ5CY3QGdVa7E9YyJCcLduyIsYvePgB8z+cdI0ObeXymAKxuwHLM+PD8z6R8jTVvEfIf1lWq5clFNlHfYfyL15mahoqyPCVRuc9xmTLjY2FufCMxHXvHM9BwEVnC5KBZclHAcz46j+8gY3zMSTtk8s0267GscpgbUXfqYZOD4qjfwQmof5JvupOgvMPEIRicKT/AO5X/wCqqPpOjBiaak6+nYsFuzr6B98+ctFpV0IMnnoLasdEjMTqYl4KRHI1gbawNGDPSK6kaxzvmCMrjhErPex6TQHGibcOdr5xFQWuTaK9Qb15WerlbrBJsG0OdrGxzErVTnHs15CTGoVk1RRYESKTP3RIZwS5FYESuRYyxI3WZF7BGbWbd2pgGH+pTxNJvBU9oo9RO+nn+0f/AD2zOftMQfL2JvPQJ0M6I8BCEJgwkq457C3M/LP6S3M3ajEbpsSMwbcJPI6izJcFeEr/ALSnFgPHL5xwrKdGX1E4rJEkZ9rxHy/v8I6R16ZZSAbHgRwMARWrOXcohtkA7Dha/ur+LPylpKYVQqiwEpYKqAu7bdZDdhzGjN11PmJeczW+h8mtLj+zKHzz9c4WloYcEKb290fKP9kAVA53Pl/UiLFXLfBz+LsNzdW3r4zl9tuVNN/uV6Dn932iq/8AxZp0tar7wUeB85zu3aO+HpnR1ZCeW8CLjwvfyl8PlKdlItHTsDcydGuJn7ExvtqFOoe8yAOOTr7rr5OrDylktYmemtoOC0guZNaQUH1khcTmyt+VAI6cpE72kpeRul5sMlaYMhLXiQZbaxJ0r0MFJkarc2jnktJLeMWcvGIDa3CRSeol4wUjOExrYyLuE6CWaeF5yytMCbGOzVE5coH2rhE/9HD16x/32pD5zvJw3ZI+1xuMxOqqyYWmelMb1Sx5Fis7cGXZaKpDoQhMGElLH5qRLpmbjnmNWqAoxCIKbiOnntU6IEVyuYzHEcuq/SShwYSliKjKQiDN77pOigZt424Dr0mIaMXJ0iPaFi67mbjM20C8S/QjK3GXqJuLa2y8eR8xY+cjw2HCCwzJzZjqx5kyWlk5HAi/6/5ek3nQ0pJpRXCDDqd1f3R8o4oASTwX5n+kdR7o8PlI3N98dFjxjpv0JsrqBe/W8ytrU7MfGaglba65t+uE6PZPia9BYmJsXa6UKzUKjgCu6vS42d/ddDbuhmCsCdS7TqqonjXafBFKpcX3XN73zDePlcefKeidj9vjFUQHP+NTADjiw0WoPHjyN+YnZF06HktWdFQOcnlZMiJZkMy96xUEW8SLImgQDrIjR5GSwjxnKPAEYpgR8cBHIl5jbk7YDVUmTJTkiJHgTVEZIaqTF7YbX/ZsM7LnUeyUlGrO+SADjbXym1WrqguSNCc9ABqSeAnFbJB2hiji2B/ZsMWTDA3/AMSpo9a3IWsOttCCJSKrY1dG52X2b+zYenR1ZVu51u7Hec34+8T5ATpKRmYusv0DAcswiQgAGZuPSacq4pLiAGLROo5GSSJlIawIF+Yv+YjtxvvegH53nFmVSZKS2PlTHoTuFO+pJUHQ5e8D0txk/s+bMfO38to5EA0H18zJIIycXaI8NXDrvDLgQdVI1BjibOv60DfWVsShRvar/wDIv3h94fiHxi+1Dsu7mCDn0tn+us36DSiviXH9F2kbKCeVz85WV2LFlH085L3/AN0fH+knAtOiEliTTVt/gnyQszjPcHiJnYkXBmvvTD7S7Up4dN9+8clQauenIcz/AElsGZKVNJX8gpnGdpVRVIfMNkBxJ6eHOcpgMRUw7rVpNZl9CDqrDip4j5GxljHYt6zl3OZ4DRRwVRylRmJO6uplZStlVHWz13s9t6ni03k911Hv0yfeU8x95Dwb1scpuobieIijUoMtRHKsO7UTLPkfocj1ne9mO2gqulKum7UY7qsgJRzwuNUPqPDSEmpxJuNbR2cWEJzuLRgQhFAmAOpreT6RUS0UEA3PlKRQ8V8wVCdTboIjuq+PEnQeMzdtbeo4Zd6tUCA90au/RUGZ8vOclXbE7QycPhsIfsD/AD6w/GdEQ8v5siHSByfQbT2g+0XbD4diuFRh+011/wBS2fsqZ4g8+OvdsH9AoYVKdNEpqFRFCqq6BRp/ecx7NKaLTRQiKLBE08zxPM8Z0eCq71JD+ED+HL8osZWzYjSM5cw8qcZcoCMOTwiwgAsjqjKSRCIAc/jEIbK1+ukh33Gqg+H9yZoY1BcXyzlcjkD55D6/CcudXISXJX9sfu/z/wD4hvudBb9ddPSSOrDVlHgM/j9JERf7LP8AvZL6afCSUJPdfomMCXz16g5D/ef+0CUu4xIv7Mkb5AyUnkOCmaJpM3eNhyWSgACw0jpxgrTt/hDRlXPBXFd27i7q/ecfypqfOYnaDbIwiht8vUbIIxybrYdxRz8pY7SdoUwyX7zt3Evr1PJRznleLxT1XZ6jbzNqeXIAcAOUfHBy2+CifSVIsDbGI9scR7RhUJ7w0twTd03PwnKd3TrUNq0d1wtPEU1y3RmObC+b0ydV4ehPnAEfRxT03V0Yq6m4I1H1HTjK5Mdr3dNcMeOueBdqYR6NRqTrZ19CDoynip5/nJ8Bs1mznQ4valLGUkZltXRrHd4abxufsNwHMdDN7YezARbQ8f7RIZJyx3JU06f7FyVF0nZzdKgyCxFwdQRcHxEubN2fhrvvIGDixV81A1O7fTh6TqcTsa419AJlvsfdPE+P0ieZKyXCUsQgvhsRdQckxANRLa+65Ica27xAtkJcG3sQn+dg3b8WGdHHjuvuEeAvKabyy3SxxEZZWudmEh7W4cd9MQn72Gqn4opEQ9scLwNY9BhsRf4oJEcUyuXAD7wAKnJgB906eUu4baSN3dRqCLMPETf+3oO4UrW0VX7WO4tQwmKfq6rSX+J2uPSRFdpVsi9HCJ+D/Fq24jfayjxAljEbQuTnkNJWO0iO6SfDT6RXml0qJ+Q/CdmqFJvaXapV41K7b7k8wT3fKTtjj3cl163tleVRjHfLu+Gf9pKuE3h11HjNWTyXjJ6N9QSkXOZJ8/pOg2eN1N3kT8Zn4MZaZjI+Mu4d8yIQTU6+Q0XsvIM5dpLK9BJcUToKDoQhAAiRY1jAChie9Kjub2XXieAj6tXeJ3fXgPrK1RhoNOJ5znlSbb+yIyY9FW+tzzMlMpDUWlx2tIuTbtmRdjHM53tN2gTDJ952vuJfXqeSjnE7T9o0wyfedu4l9ep5KOc8qxeKeq5d23mbU/IAcAOUpjxXt8DqNj8XinquXdt5m1PyAHADlGCMEa7zrKJUPd5XZiTYamNZiTYazd2HsksQSMzMk0lZjZp9mNmWBOrNa/loBO5wlUC24LuoswGgHNjwmfhsEURUXJnO6Og+0fIXm7+zBFAQWvlbnlmepsJKOS34vsykl5P7IkWs6i7gMpzumq+K8R1k6bji6kEdJXwNXMqddR152j61Bb7ytuNzFrH95dDI5I+MmjE4y50/wNq4FTKVXZvKXUxu7k4t+NblD9DJ2q5XyA5swA+F4gOLRhNgiJUWg3tWAGe4vlmdZ0L16ZyL36ID8xc/GQpSG+WVWUFAvvLbMEk/ObtI1RaTbXRz5whvnnn5eklXDTUxFMbx/XCRhZPyZytlZKEv4Z7ZH1+siJA1jd/8J+HyveLbBNl2s+4d8aEZ+Whk2ylJzMzxU3huZ5kagi3hedDsyhYCd2J3FPvg6MfFmhSTKTRAIsqUCEIQASV8U9lJ6SxM7adTK0WTpNmN0jOZyfDkNIiKTpI98ePgD85OlUBdD6Tj5IJWx4QLmdZzXajtImHT7ztfcS+vU8lHOM7Udp0oJlm57iZi/U8lHOeU4vFPVdndt5m1PyAHADlLQx3tlIxJMXi3quXdt5m1PyAHADlIxIxEd50lEqHO8iuSbDMmMuWNgLk6CdVsDYRyLC5Ov0EWUlFGNlbZWxybX7zkDw528p6NsrZYQDKRYbZRTddACVB908QdbHgZpPjRuXQZkhADkQ7ZAW5jXllOSc2+ApySofhU3nZ+Ce4nj9s+th5S2amd9bZDqx5eH5mQUqIRQmbWGgyHUt4nnLFOmb7za6ADQTEl8T+3qJNpy1x0Qvhza+RN7kWk+HdSMgAeQEkkNWjxXIyqyLJ7s9Pp/wCMQsHPX4yFMHTGiL5i/wA42lieDZH9a8pYkpRlB0xlJrhiqANBbwlXF1wDbU8vrLV5jObkk8zJyYkpNDXfUmRhSdbjoDb1I4w1PQfE/wBJJEJDFQcvM5n1MfCEALGCp3adPhksJh7Kp53nQppPRxqopHXFVFD4QhHGCEIQAbMfaLXIHnNdtJh7TVr3WJJNxaQslapFd2tOX7S9pVw62Gbt3Uvr1PIdZpV6lbn/AMRMzbXY39poGorgVlF1JyQgf6bdTz4Hpe8PBQachY4nZ5hisU9Ry7tvM2p+QA4AcpGDCrTZGZHUqykqysLEEagjnImedRRKh7vI1uxCqLk5ACMF2IAzJyE7rsv2ctZj7zHUjQdB0mSkkjGyHs9sAjNhdjqeXQT0DZ2zwgGUkwWBCDTSLW2jSB3d8Za7vvHwG7p4/ock5Sk9E22y2BfId3iefQfmZWq0l9uhAAKozNbiB7q/MyFtrXyRD0LZD0H9JD7Kq7FibXAB3bgWHDwzhDDJ8jwuNv0Zo/tlNLKzgMczqczre2nnLNKqrd1g3gQZmU9im2kZU2OwzGvSVeFPd7M8DZizEV66cd4cnz+Ovxk9Paw0dCvVcx9fnJSwyQrizQrUgw68D+RiYZzax1ESjikfusD0vn6HOK4swbn7p89DGi3KLhL7fUXglc5TKxq2OX2tPzP5zTcyqU3wT/D4c/P5WkGElaKSiwtFjHqKNSB0vn6SI4ocAT5WHxgoSlwiShJ8IsQlYNUbQAfE/GW8Hs9ybtc+MrH2eT50UWF9m5slMpsCVMFR3RLk7DoCEIQAIQhABJDUoAyeEAMrE4VQNJh1cX7Jua3zH/cOs6fFJcTk9r4cm8WUVJUwTadoxe2PZ1MYntaRVawGTaK4GivyPANw0PTyaphqgc02Vg4O6UI94H6cb6Wz0nqaYipS3guYPA6A8xM9MGXffYXc5FiPetra/LpOf2eGaEpRk7j18yk3FpNc9nO4DYe6M82Op4eA6TawOx3BuhZTzUkH1E6XZ+y78J0+B2YBwnWSOTobFqPbfd3/AH2ZvmZu4Ps8BwnT0cMBwlgKJhpj0NkKOEv08Go4S3CAEYpiI1EGSwgBTqYJTwlGvshTwm1CAHJ4jYfSVmwdVRYO1uRzHx0nZlRGNSB4QA5BxXbK4HDIfWINmO/eZj0JNvTSdcMOvKPFIRVGK4RlI5ijsPpL1HY6jhNsKI6MaZ9LZ6jhLSUAJNCACARYQgAQhCABCEIAEIQgAxlvM7F4MNNSIRADksRsi50hh9j2Ok6k0hAUhADOwuBA4TSRLR4EWABCEIAEIQgAQhCABCEIAEIQgAQhCABCEIAEIQgAQhCABCEIAEIQgAQhCABCEIAEIQgAQhCABCEIAEIQgAQhCABCEIAEIQgAQhCABCEIAEIQgAQhCABCEIAEIQgB/9k=;" parent="1" vertex="1">
          <mxGeometry x="322.5" y="392.62" width="35" height="35" as="geometry" />
        </mxCell>
        <mxCell id="IcFnWrSgQMhNx_Vj9jzx-48" value="" style="endArrow=classic;startArrow=classic;html=1;rounded=0;exitX=0.5;exitY=0;exitDx=0;exitDy=0;exitPerimeter=0;" parent="1" source="IcFnWrSgQMhNx_Vj9jzx-47" edge="1">
          <mxGeometry width="50" height="50" relative="1" as="geometry">
            <mxPoint x="347.5" y="369.9999999999999" as="sourcePoint" />
            <mxPoint x="338" y="330" as="targetPoint" />
          </mxGeometry>
        </mxCell>
        <mxCell id="IcFnWrSgQMhNx_Vj9jzx-50" value="&lt;font style=&quot;font-size: 24px&quot;&gt;Clients&lt;/font&gt;" style="text;html=1;align=center;verticalAlign=middle;resizable=0;points=[];autosize=1;strokeColor=none;fillColor=none;" parent="1" vertex="1">
          <mxGeometry x="50" y="50" width="90" height="20" as="geometry" />
        </mxCell>
        <mxCell id="IcFnWrSgQMhNx_Vj9jzx-53" value="" style="endArrow=classic;startArrow=classic;html=1;rounded=0;fontSize=24;entryX=1;entryY=1;entryDx=0;entryDy=0;exitX=-0.008;exitY=0.071;exitDx=0;exitDy=0;exitPerimeter=0;" parent="1" source="IcFnWrSgQMhNx_Vj9jzx-47" target="IcFnWrSgQMhNx_Vj9jzx-8" edge="1">
          <mxGeometry width="50" height="50" relative="1" as="geometry">
            <mxPoint x="260" y="350" as="sourcePoint" />
            <mxPoint x="310" y="300" as="targetPoint" />
          </mxGeometry>
        </mxCell>
        <mxCell id="IcFnWrSgQMhNx_Vj9jzx-54" value="&lt;font style=&quot;font-size: 12px&quot;&gt;HTTP&lt;/font&gt;" style="text;html=1;strokeColor=none;fillColor=none;align=center;verticalAlign=middle;whiteSpace=wrap;rounded=0;fontSize=24;" parent="1" vertex="1">
          <mxGeometry x="250" y="170" width="60" height="30" as="geometry" />
        </mxCell>
        <mxCell id="IcFnWrSgQMhNx_Vj9jzx-55" value="&lt;font style=&quot;font-size: 12px&quot;&gt;HTTP&lt;/font&gt;" style="text;html=1;strokeColor=none;fillColor=none;align=center;verticalAlign=middle;whiteSpace=wrap;rounded=0;fontSize=24;" parent="1" vertex="1">
          <mxGeometry x="250" y="275.39" width="60" height="30" as="geometry" />
        </mxCell>
        <mxCell id="IcFnWrSgQMhNx_Vj9jzx-57" value="&lt;font style=&quot;font-size: 12px&quot;&gt;HTTP&lt;/font&gt;" style="text;html=1;strokeColor=none;fillColor=none;align=center;verticalAlign=middle;whiteSpace=wrap;rounded=0;fontSize=24;" parent="1" vertex="1">
          <mxGeometry x="534.5899999999999" y="170" width="60" height="30" as="geometry" />
        </mxCell>
        <mxCell id="IcFnWrSgQMhNx_Vj9jzx-58" value="&lt;font style=&quot;font-size: 12px&quot;&gt;HTTP&lt;/font&gt;" style="text;html=1;strokeColor=none;fillColor=none;align=center;verticalAlign=middle;whiteSpace=wrap;rounded=0;fontSize=24;" parent="1" vertex="1">
          <mxGeometry x="534.5899999999999" y="270" width="60" height="30" as="geometry" />
        </mxCell>
        <mxCell id="IcFnWrSgQMhNx_Vj9jzx-59" value="&lt;font style=&quot;font-size: 12px&quot;&gt;HTTP&lt;/font&gt;" style="text;html=1;strokeColor=none;fillColor=none;align=center;verticalAlign=middle;whiteSpace=wrap;rounded=0;fontSize=24;" parent="1" vertex="1">
          <mxGeometry x="411" y="135" width="60" height="30" as="geometry" />
        </mxCell>
        <mxCell id="IcFnWrSgQMhNx_Vj9jzx-60" value="&lt;font style=&quot;font-size: 12px&quot;&gt;HTTPS&lt;/font&gt;" style="text;html=1;strokeColor=none;fillColor=none;align=center;verticalAlign=middle;whiteSpace=wrap;rounded=0;fontSize=24;" parent="1" vertex="1">
          <mxGeometry x="336" y="86" width="60" height="30" as="geometry" />
        </mxCell>
        <mxCell id="IcFnWrSgQMhNx_Vj9jzx-61" value="&lt;font style=&quot;font-size: 12px&quot;&gt;HTTPS&lt;/font&gt;" style="text;html=1;strokeColor=none;fillColor=none;align=center;verticalAlign=middle;whiteSpace=wrap;rounded=0;fontSize=24;" parent="1" vertex="1">
          <mxGeometry x="496" y="86" width="60" height="30" as="geometry" />
        </mxCell>
        <mxCell id="IcFnWrSgQMhNx_Vj9jzx-62" value="&lt;font style=&quot;font-size: 12px&quot;&gt;HTTP through Nginx&lt;/font&gt;" style="text;html=1;strokeColor=none;fillColor=none;align=center;verticalAlign=middle;whiteSpace=wrap;rounded=0;fontSize=24;" parent="1" vertex="1">
          <mxGeometry x="236" y="325" width="160" height="30" as="geometry" />
        </mxCell>
        <mxCell id="IcFnWrSgQMhNx_Vj9jzx-63" value="&lt;font style=&quot;font-size: 12px&quot;&gt;HTTP using NEST&lt;/font&gt;" style="text;html=1;strokeColor=none;fillColor=none;align=center;verticalAlign=middle;whiteSpace=wrap;rounded=0;fontSize=24;" parent="1" vertex="1">
          <mxGeometry x="475" y="325" width="160" height="30" as="geometry" />
        </mxCell>
        <mxCell id="m117B3D4qIRvYT7PeRpG-1" value="" style="shape=image;verticalLabelPosition=bottom;labelBackgroundColor=default;verticalAlign=top;aspect=fixed;imageAspect=0;image=data:image/png,iVBORw0KGgoAAAANSUhEUgAAAOEAAADhCAMAAAAJbSJIAAAAkFBMVEX///9Tuf8Rnv8Of8wAmv9Mt/9Ftf9Uuv9CtP9WvP8RoP8GfMkAmf9nwP9twv8AecoAlv9QsP+Rz/+g0v+IzP/V7P/d8P88qv9ivv/s9/+Byf9Erf+f1f9wvP/5/P8nktwZh9MQk+4Pi+AOhdbB5P+l2P+23//M6P/w+f/m9P9KmNgPid0Ah+BClNZPr/cPkeqgUd17AAAGp0lEQVR4nO3dbVvTShCH8bZLKSYqinLEJ1Q4isJRvv+3O0lLm8dNdmb+s7Op2bdetvyue5MppWkWC/h6g39I37q8iPdc1fr86nWsp7o8O30b67mq9fn56iQS8fJ0uYxPLICrSMQSGJ+4BcYh7oCxiU/AGMQ9MC7xANQnVsCYxBpQm1gHFsQPms9VrQZQl9gExqrYAmoSL8+WrRWjYgeoR+wCY1TsAWoR21s0DrEXqEPsB2oTPUANog+oS/QC8UQ/UJM4AEQTh4B6xEEglth3Fm0QVYbGCBBJHAPqVBwF4ojjQI2KAUAUMQSIrxgExBDDgOiKgUAEMRSIJQYD5cThMaFFJAClRAoQRyQBZUQaEEUkAgviRzYw+BhEEslAfkU6EEFkALkVOcDlci0ksoC8ijyglMgEcohcoIzIBtKJfKCEKABSidQxgSGKgLTTjaQgnygEUipKgTyiGBheUQ5kzcV3J2JhYEUEcHn6iyxcfEQQAypCgGsGEEQcrWhWEEYcqWgKjFHRGKhPxAD/4QMhxOy/e12goCCI6M49xAQKIojZo3PnvxMGikd/5orVVzEZoLBi9i3fEjsVEwLKiNmtc30VTYDXP/HEp4Qdok3Bq82175/Yx2L24FwP0Qb4Yr2+8hLZFXNXEQ/HohWweIX+DFwxu3GuS7QDFkR0Ree6REsgmlhO+w7xzhQ4SKRv1My11/n9nehdNTkQeixWo+Kw8i9r/88dB4isuJ/2deAzeyCO2E2YCBBG7CQ0Ar7sOTBAxDwJYLcgitic9kkVRBGTAPYXhBBb0z6xgghilgLQX1BObI6KJIFCYmNUJLhFxcRGwmSBJdH730eI9YQJAyUV82kA2cTatE8cyCZOB8gjVtN+AsCC+ML7QD5iNikgo+JhVEwESK+4HxWTAZZESsV9wgkBiaP/KeGkgMSK+QSBlGNxN+0nB6QQ82kCg4nbaT9JYCgxMwNej/3CiyGWo8Ko4A/An3wCiMWoMAIuFt9jEIuEZsA4xOzWEBiHaAqMQMwebIH6xOfWQHXiH/mjiz/K9UmXKH1VsX144VXayhURROk1hROoKCX+DRUBH2lJnYio+DJt4lwxiKhcUTg05ophxMQrzkMjBWIKx2LiG3WuGET8CyqmTbyYiTNxjCh/q70gCr90HkJM+4w6hY2aQsWZOBMnTjyaM+pccSZOnDhv1GMgzhWPgThXnIkzMXC9PX7iXDEJ4qfjJ84VZ+JMTIJ4dvxEacUP6ROlFS8QHzVMmvgD8CNs1v6voTXfqIgrGDbLryfvVImCiiDgY6ZMZFcEAfPVapVmRRTwJhsmXllVRAHz3dVCfiLggqyi4ncb4OZr7h6yMSJmo95ZAfNvT8KhivKNSv5VCrVFnbvdA1UrkoH/woBVQs1j0bCgczWgWkXDgi5/bAh1iKYFXftSfYWNagu8ycKJzNFvuUWLTdr24YeGbcHDtNeraFuwOSpUKhoD69Ne54xqDfQkxFW0BramPZ5oDmxPezTRHNid9lhiAsDutA893YQQEwD2Tfsm0fsmY0DFBID90x61UVMA5qtRIb9iCkDvtEdUTALon/byikkAwxLyiGkAB6e9bKOmARx6wSasmApwZNrziWQg4p4vPcDhF2wCohHQdYDj055HNAEuz7rA0RdsTKIJcL15f3/eFoaOCiLRCPhzsWgTA6c9lWgH7BDpCUOIlsAWMXzaU4i2wBaRBRy6q25BtAY2iJRpH0rcmAPrRKZvmGgBXLbu6bknEqd9INEC+L79sDsiedorEBW2aI3IGhVYosoWPRA50x5MVASWRGFCABFxD9CeY/BAlCYUE5VOMtV6Lb8Vu4iIKei99bM9EXKb2qGC1kQMcLCgLRECXI8ULJfobvMCYqSC5TKqiLimcOwY3C9AxVdvyEIEMRAIqMgByi/yCTkGQUQeUEwkAIVELlBGpBQUEvlACZEKFBAlQD6RDmQTZUAukQNkEqVAHpEHZBHlQM5lk1wgg4gA0ivygWQiBkglSoBEIgpI26gyIImIA1KIUiCBiASGE+XAYCIWGEpEAAOJaGAYEQMMIuKBIUQUMICoASyIIx/iXP/CPdcIUQc4RsQVLNcgUQs4TEQWLNcAUQ84REQDB4iaQD8RD/QSdYE+ogbQQ9QG9hOxJ5lq9RD1gX1EnYLl6hBjALtErYLlahHjANtEvYLlahBjAZtEXWCDGA9YJ2oDa8SYwIqoDzwQ4wL3X/AbA/hEjA3cEeMAt39fjA8siKexgEVFC2BxLEYDLhb0Lz0aXf8DOQEKQmxo4f8AAAAASUVORK5CYII=;" vertex="1" parent="1">
          <mxGeometry x="580" y="42.5" width="35" height="35" as="geometry" />
        </mxCell>
        <mxCell id="m117B3D4qIRvYT7PeRpG-2" value="" style="shape=image;verticalLabelPosition=bottom;labelBackgroundColor=default;verticalAlign=top;aspect=fixed;imageAspect=0;image=data:image/png,iVBORw0KGgoAAAANSUhEUgAAAZsAAAB6CAMAAABeKQ5ZAAAAtFBMVEX///8dAP8cAP8aAP+fnv8mGv9xbf/l6P/3+f/6+/93df9taf9MRP9EO//X2//u8P9lYP/g4v/V2f90cP81J/+Lif+Xlf+Ihv/Nz/+nqP86Lv8uIP+ytP8jEf9+e//Dxf+6vf/y8//i5P89Nf9eWP/u8f+9uP/X1P/IxP+inP9/d/+opP/U0f9UTP+Wjv/Auv9dUv+0rv+Ef/9lXv+Ykv9KP/+rp//HwP9KR//Nyv+bmf+rrf9FDQvlAAAQnUlEQVR4nO2d6XayOhSGhYiAiDhgtSCtqEec56Ha+7+vAyRBQYYEtLXf4v3TpRWys59MbDIUCrly5cqVK1euXLly5XqIhP55tZnNijSaHTcnSyFMQFSs0+ZIl0CIOuLtPc+RlnXHjUTLlMZ4tImyaFN/rLPudPkWSPwmNDbL5vCgqTpHI10dLGoflxOfnAK/unzUFgNVp0vhXpfbDJmtCMN0TV7UtpNTDB7lNNlKC1mLsmhxirjQtDatFM66k/FFUKzN83I34AwGpBFj6JXmsR+fQv/YrOgpEwjozcemHf1D1rbsq7yJKDf8sfllWxRj0mEVeqFwbqV3ll+DZDb1twXHOplhGXqxzpWGJo3M6ATMkaQxaRPwK4RNrGWMVlqFtBzJFrERbOrLLw48KC9yEhvxLHFOIcuUCmAHl8iGjX+TsyZwkxIxG1csYOR7y/h9okURbD6HxuPyksRGGH0lZI8sHWBsI/rO+pbzcvOAhoCOjZMkF7SsOuUS/RvKRhwNHuEsbFkSm3HlmhqbxlcsvtZoh9acfpsD2EvA0FVVy6YZeX+DLePavu6w/mGQZPmejdiTPWel8lVACf1NY41TYx3PafLhUCHWQR6o1yoOuFlIy65MVPgDG95gPS12PztWFjV8BcAsRhmmcQy2jAVq8cYL/F6/ZpnhtIEcnmXpHMzL3O+sqAuJ3SfFsjG3DECJMeq6+WZ7rlElVWN+7s22O9lAPgCDu9wUxPEC/tdu98vdKh8zYkglPtQy69w7tqUKB3DmFifvqUgYHbC9QP+SWt+9jhV6k3rQVn5reM7S1tMLlbPC/FcXCzE6aTg1tTaxeDP2xyESTb7eLcssgHn9uHN9vw3zA5jhpk979ywSlHqv/YVKnt0Zeq1atex9uV6O+wrR858jcSRjZ2nSLIWz6CSUYMligby30hZpof6+RgDUTuB/4hgWUhbsPomd8CiJfE8ycP5wxRE2qDgCrjwmDWm44qfoZkzl0nh0/b/XfIBNnxE82kfK7O3csgjAPmCzsnfzYw96xpkMTSnRQoUPGEvEob9F3zDbKlXBF8df0Fns14aKaUq9ofKuRT+cEMnsfjnVgwXrQHygMXSrDTCKP15roOzuG9bbtQW/OFegRaBWpbuTiYYQYFD8CTSChCppk9LOOynQcKAGRgNjFVab4TUBMaPoDBO7yKN6z71S+EYVWaOtyP0mA4tZOSE+9RhVv1BJ2HhNUVpHndeO5cA4+uqHOXM9ARg8ulbGl/ZHNvV8KSRa1pdwzXXzqCwBtGiqEN8CqgNrIJBHyYmTSYgrZ6sBLEMSKtWiNds2JWKVmq0RzqHScijYz5+++g5HnXYhRdXJajsRzywKxAWE73DLpvsxKm5iFxWPqdtsVxEqHVcbZbyflkJvsp3fZkXoHlxnsRKPnTX5CL+QVLVWzIhiAhsirgUdak4WukHzXMsamoQz4A5/ACP5Oq76jgU3TVq17IQJ2SwijEMznNxGBc4e77BXG+aoY1ygMI61lbmISNJgdJsVc6JCZy1haVdsZ2UNQcXFBVqwSA2OkN/F9RxVIQZeJsdrJzIbGAxUXU8AsHWJmTMcvXlYvYmIpzkMjSm0rC5BGgd3MDDWXIuYD1iGLImJCCmzt42Xw2LpGg+0Lvy4VymdFZKXuHgaDAqAxdgtCtYhRVoAXEzkArfDqfjCio0BZPPm/qZeyx4oJI91Au5408PY7arL5gQ9bMzg//ZMpEVBNls4FKi4DYUzoM4cjY5lU4Zt7xC2S5ebCGCy8C/BENYU+GQGDn42sB0AcCgwl73A6CPbtAjLAJBcW8wi7P11N5c9WByNrlsc0Qg71KRAm6ZsobMWbnZNLyaXPjNEbNBIv+yFBsmEg2jwatPt9oHsG41biM2364mOCqgSCFdyf4OzIbtRCvEbsuE6t2x67r9W2MNhCQXYfEBnrRVYEhk6Z4Uqrr9pomEaLOsS8hyjrQkGGcMBjtM03KuFdgibBhxsAFhKOxx6IpeHGUY33YRx2u6A6j/Q3dGhOIJsDMgGgYL/6nqhtUrt7kZb37MaZjN0G0O+iYLrjJYhL+2YcZqfTc2LFnX6fJL61nEIRxKIjdgiZMMatU0j8f7R8ufHvPt/dVRCpcb4dA3rhbGBVaqL4jfc9FS/T8n3IOWxcb/lSzDcwCyK82RnRSkuvhDGhjh+Y3bd6ActG3v4On5u/EZEvQgxG5atJYfWQtkAbfasoGcom2EwlhylftmlQckGgOWzw1HmBdEgZAOM7+RIUDibddZgV6RC2LCgRBouEpbp2BA4IqN6lGw4guIYzqb2tHcFoWzKpCFp8S0dm+7T2XzSsmkk3zOcjfS0vORscjY5G3rlbHI2ORt65WxyNjkbeuVscjY5G3rlbHI2ORt65WxyNi/Bxn2dJhQfyyaPddIqvN44E2TOcMXJw9j88DuCf5UNW6qL4wV8zf8wNurlB9+t/bNs7I/D9gDNmHoUG4bRWh1eIZVJ8cL3hdiYdQL1FTKsoWzgXBomMxs4lwOzAaxBttGDrmqV3fbb4gn5vA4bsacm51E9TFdExoWzYVj0NxObtWsBnmfD0E27ZQx9OCFbhPZCbLpkmdRaMZvMeIpgc1UaNmheJ5xjrOClnzRyN6MAxoFoieALsRmR5NXOm3ohmAnyFDZw4So4uFeaM42eDc6DsesmZ+KvsXGu3hHMu/CxcaZA++cu2+7R4KxmGjZ4rvrG/WjVmLQTou3kK8VEJ78Qm27S4hLcvGub5M7Uz6b+od5Ndm3xMFVyNt4aj5Zrvtld0K/wuE7VlhPhvBCbUeLCHzQuMia0bMTqrCTf3J47lL/hPC8aNt7aqBq8Vll9VKJW7iTmggWVTUKf8zpsCvXv9zgVtwf01MheaNnYhby6er+8IU2+T3V0Cxo2hQ5aVjzYoIv7402szYEcvLXKa5XB43lmeI5/HnghNgUhXvwKrU31ryMIV5CNbZ1gerous6Ri0y+htbhNPFQUxQSjfTKV+nzVqqBuCnDb+Dmar8QmScIEjpPSsYnIAQ0bBa9h10iGihEJKuc2XuUgr2L98JfYeGt5fouNeKq4XmVZeZZhRrcyQYiNaayj/xQb/pfZ4EbNhqMt43cJipXwBhf9hO3MdKM/xUbRfpmN2IU7zLgPKJd5P+1eQ8oWmbeMG6q9EBulEyqr75HIwMasW/Nzb9S1Nep15t5N6dh4mw05VjDqsP3e/Qy3OlTzKm4JxzJaVR83GngdNmIvdHm7oUnfuPlIz0bZ7Aa6gdbMMoY+kFawxFKywW/mGLTMk2o7VUNdL88wWR4t6x1YMWm9EJvIuID+gRyXmo25OQRvujgJMFU6NsLGW+mNApdUYtZwM2BxA8M/+iamVXwhNhHxNNsBOlrnlppNo3YXT2OabnNCy6ZgFrX0WyTYeRm6NUUcw9WYsR3O67Nxd9eCT9Cp2YzVu1sDGTqJlk1BmS2Y9NtxAG7i0mhIcHOQ5h9nYycAd45IzaZ3v/cG0KnfESCZp2n6bcgBqME3cx9wMLAj3l/g1fobHHk24GaGadk86P2NZ2m9uz1QBzlxXipuW6q00R4ff4NNTzWC8najXT6Kzc12yanZuGd4fLdrFU3n7kyOEn4bDmS04wpkU/kTbAr8+dOvXnGItnAArQexAYyRfp6NTwJftTrnoMkROn92p6jLAwPI5g2me/gbbO5lOq8WH8kGGOVJBUeBs7GhlMhf8F6fPjZxew29NJtCoas+kg0AUl84r9PO68wmvN3hP8OmLj+QDQA72zRxlnY+dDYJiMY/w0Y5PJIN/JR6HUE24Tny/wyb/x7Khsu2xiObcjZYz1h/k005G6ycTc6GXDkbrJxNzoZcORusnE3Ohlw5G6ycTc6GXDkbrJzNX4un5WweuAcxnzYO/Yw9iLNJuPwNNsGzDCPVGaRjgwsp+d7dT9/yAJ8C8tpsvDlNyfnZc+nYVGt0e97j6WrPkzDGJ9u9NBvn1fCpT7CJRWN2gO+PY9kId9fxZ7S+HLMJPcfDf1aEvpzf764RmIt+nxKx+ie0BOGV2OA1M++QDV55sii3E7WVNJQfJmaejdC7u/BjjVcfcZCN//wb9ra5885Y4YYfdze6+KYrm91km6NU/vIWREE2S1ixf3cuB2IDT16de4dX00zqAsZbNJvws/AYeCE8bFRAr6F139lEI6e0iCM8Qz7sLoGziaaUU9JCssKChetc3Pv87hwo5E84pbk6pDrTi0Fu047R8zrDzvTypvrDo3CVPWSjulsK4PPW4Fls6JDcMIuCbPiPDCcs4qwwTdcR/TI6LPE32VQr0IgS3Ghkn2ajEVCDx8FFsom4EB8h3W8CdwgCp0CPVTgVGZ5Dig+XDr1eDjvTK5OACjdHmA9fYM5tfQj9coDbYJzXINoXoXK20EDH/0SxCfeYnRAaD1r4qGvXsvPhdl2SOF5EWvRwNgAvsRbhmbe/PFedL+Pm3f0orIYcZUNtyPgYK4r+xhG3g2tscCvGwnN9Gjt04BOsjGaMRZq/TStTWn4vvWm5pUUoIq/86hoP84IWnuPTm+szaXGQiVXZLecYRfg4rRh6t8OieUSPLHZ5h4V0Dw8YRIstmSW8jdjflNeV0MRrvtPAlT252aFZWU/xAc/4+UuPe+R9Ohuxh09BP3lf0eyXcHsadvjzTcTtrgd1o9U3gBvBMvvOwGxeF/RFbuEQyC6V4TEmiTP0/CXHhfGezqZgwRWSXhoZRBFPu1FfAjBb8Dxbu4cZwELLfjz72Lco4Xm/bC3O089nw7fxYoB21rAIxf4CV/Vb6MmfwVuU1JvoGyP99hqZ1JBwMCL2jMPnsxFHGn7ybpPthRips07NxrTa6OESaPjIVuEIm1kWqPvqcw+zDJFofpYYlP4ibpn0D7CxiykOVxjS0QrGqCiktMj3s3HtMRVrVsOJM03PLquGAw56c9PIYBG1BFM5X9Z4xQm3j623P8BGGB289WeatDyOrXqac2T78wvqJwJs7s/FdX9et8bHZU0FOEgkX086No8atojRpP0m0iLFXwj+S2H2rUnV+WrWHuoYDZtwjuoPsCnwS3yetrNT5WBRk5plejWHKop8BsbQ3fCfS7uFZlyXEOqtm0zVtxyRRUt/rPM9hdk3KknDL5W5RtYGx/gm/ifYFKyyF6nJdGg5cjNzIXv2BDdbMBrNWzeLc4nIosPqNht8plhnwCS7s1smuPlH2IidknET7sgaLuRmibHO2987OTJKHV+nIp5rHpxoiwJslCyxTr9FDpp20jPFj7ApiFZZpwyjRcr22OjWzzGxTgwT6FMr0N+L8yaXdF0Im8yxTs+kwT7xce9n2NhPGW8HNv1uFv5slX25SmBjp8pUJiEZ6l8OCftrPIuN3bAZww3J/tDsj7Cxq84W7zSbIYNO5/A18g/TotigjoST243QQbJotWUuzqKwNi296c4NkUn64kISIynBX9fgb3fwE/G8BoeNkxZiA3vlQdSBMPViaSGrBu2GFj4ZWm3lH9hGjgVYg1Pla8QzTP1jcy2rXKRJgbFA5jg045h0jXgm6F0qOSrCXxfhJ/LNKHtl++fSFtYzsdt0PrWja53YH8+W22mzlFbl9iboaqEbfrvmdLs/jvmE50qRHx/3tkXh92gFxtCp7YYWNaftt82Z8CSSB+lHE8uVK1euXLly5cqVK1euXLlyZdH/bhLTfAB1shUAAAAASUVORK5CYII=;" vertex="1" parent="1">
          <mxGeometry x="186.5" y="62.99000000000001" width="91" height="27.01" as="geometry" />
        </mxCell>
        <mxCell id="m117B3D4qIRvYT7PeRpG-6" value="" style="shape=image;verticalLabelPosition=bottom;labelBackgroundColor=default;verticalAlign=top;aspect=fixed;imageAspect=0;image=data:image/png,iVBORw0KGgoAAAANSUhEUgAAAG8AAABqCAYAAACyCA/TAAAKrWlDQ1BJQ0MgUHJvZmlsZQAASImVlwdUk9kSgO//p4eElhA6hBqKIJ0AUkIPRSIdRCUkAUKJIRBU7MriCq4FERFQV2SpCq5KETui2BZBRbEuyCKirosFUbG8HzgEd9957503OXPmy/xz5879z52cCQBkKlcsToMVAUgXZUlC/Tzp0TGxdNwwwAI0UADOwJnLyxSzOJwggMiM/bu8vwOgSXvLYjLXvz//r6LEF2TyAIA4CCfwM3npCB9H9BVPLMkCAFWJ+A2WZYkn+TLCVAlSIMIPJzlpmkcnOWGK0eipmPBQL4TVAMCTuFxJEgAkQ8RPz+YlIXlI3ghbifhCEcLId+CWnr6UjzCyLzBBYsQIT+ZnJnyXJ+lvORNkObncJBlPn2VK8N7CTHEad8X/+Tr+t6SnSWf2MEaUlCzxD0UsDXlnfalLA2UsSpgfMsNC/lT8FCdL/SNmmJfpFTvDfK53oGxt2vygGU4U+rJlebLY4TMsyPQJm2HJ0lDZXokSL9YMcyWz+0pTI2T+ZAFblj8nOTxqhrOFkfNnODM1LHA2xkvml0hDZfULRH6es/v6ys6envndeYVs2dqs5HB/2dm5s/ULRKzZnJnRstr4Am+f2ZgIWbw4y1O2lziNI4sXpPnJ/JnZYbK1WciFnF3Lkb3DFG4AZ4aBN/ABQciHDjjABtgBa+AEkGqzBMsn7yjwWipeIREmJWfRWUiXCehsEc9yDt3GysYWgMmenb4Sb/umehGi4Wd9/CEAbCf7ymTWl4J0/Mn3SPs1zfoYAwAo7gXgHIcnlWRP+ybbCWAAEfktoAJ1oAMMgAmwQOpzAC7AA6k4AISAcBADFgMeSAbpQAKWgVVgPcgDBWA72AVKwX5wENSAw+AoaAGnwHlwCVwD3aAXPAD9YAi8AKPgPZiAIAgHkSEKpA7pQkaQOWQDMSE3yAcKgkKhGCgeSoJEkBRaBW2ECqBCqBQ6ANVCv0InoPPQFagHugcNQCPQG+gTjIJJMBXWho3huTATZsGBcDi8CE6CM+AcOBfeCpfAFfAhuBk+D1+De+F++AU8hgIoORQNpYeyQDFRXqgQVCwqESVBrUHlo4pRFagGVBuqE3UL1Y96ifqIxqIpaDraAu2C9kdHoHnoDPQa9BZ0KboG3YzuQN9CD6BH0V8xZIwWxhzjjGFjojFJmGWYPEwxpgrThLmI6cUMYd5jsVgaloF1xPpjY7Ap2JXYLdi92EbsOWwPdhA7hsPh1HHmOFdcCI6Ly8Ll4fbgDuHO4m7ihnAf8HJ4XbwN3hcfixfhN+CL8XX4M/ib+GH8BEGRYERwJoQQ+IQVhG2ESkIb4QZhiDBBVCIyiK7EcGIKcT2xhNhAvEh8SHwrJyenL+ckt0BOKLdOrkTuiNxluQG5jyRlkhnJixRHkpK2kqpJ50j3SG/JZLIx2YMcS84ibyXXki+QH5M/yFPkLeXZ8nz5tfJl8s3yN+VfKRAUjBRYCosVchSKFY4p3FB4qUhQNFb0UuQqrlEsUzyheFdxTImiZK0UopSutEWpTumK0jNlnLKxso8yXzlX+aDyBeVBCopiQPGi8CgbKZWUi5QhKpbKoLKpKdQC6mFqF3VURVnFTiVSZblKmcpplX4aimZMY9PSaNtoR2l3aJ9UtVVZqgLVzaoNqjdVx9U01TzUBGr5ao1qvWqf1OnqPuqp6jvUW9QfaaA1zDQWaCzT2KdxUeOlJlXTRZOnma95VPO+FqxlphWqtVLroNZ1rTFtHW0/bbH2Hu0L2i91aDoeOik6RTpndEZ0KbpuukLdIt2zus/pKnQWPY1eQu+gj+pp6fnrSfUO6HXpTegz9CP0N+g36j8yIBowDRINigzaDUYNdQ2DDVcZ1hveNyIYMY2SjXYbdRqNGzOMo4w3GbcYP2OoMdiMHEY946EJ2cTdJMOkwuS2KdaUaZpqute02ww2szdLNiszu2EOmzuYC833mvfMwcxxmiOaUzHnrgXJgmWRbVFvMWBJswyy3GDZYvlqruHc2Lk75nbO/Wplb5VmVWn1wFrZOsB6g3Wb9RsbMxueTZnNbVuyra/tWttW29d25nYCu312ffYU+2D7Tfbt9l8cHB0kDg0OI46GjvGO5Y53mVQmh7mFedkJ4+TptNbplNNHZwfnLOejzn+5WLikutS5PJvHmCeYVzlv0FXflet6wLXfje4W7/azW7+7njvXvcL9iYeBB9+jymOYZcpKYR1ivfK08pR4NnmOezl7rfY6543y9vPO9+7yUfaJ8Cn1eeyr75vkW+876mfvt9LvnD/GP9B/h/9dtjabx65ljwY4BqwO6AgkBYYFlgY+CTILkgS1BcPBAcE7gx/ON5ovmt8SAkLYITtDHnEYnAzOyQXYBZwFZQuehlqHrgrtDKOELQmrC3sf7hm+LfxBhEmENKI9UiEyLrI2cjzKO6owqj96bvTq6GsxGjHCmNZYXGxkbFXs2EKfhbsWDsXZx+XF3VnEWLR80ZXFGovTFp9eorCEu+RYPCY+Kr4u/jM3hFvBHUtgJ5QnjPK8eLt5L/ge/CL+iMBVUCgYTnRNLEx8luSatDNpJNk9uTj5pdBLWCp8neKfsj9lPDUktTr1W1pUWmM6Pj0+/YRIWZQq6liqs3T50h6xuThP3J/hnLErY1QSKKnKhDIXZbZmUZHh6LrURPqDdCDbLbss+8OyyGXHlistFy2/vsJsxeYVwzm+Ob+sRK/krWxfpbdq/aqB1azVB9ZAaxLWtK81WJu7dmid37qa9cT1qet/22C1oXDDu41RG9tytXPX5Q7+4PdDfZ58niTv7iaXTft/RP8o/LFrs+3mPZu/5vPzrxZYFRQXfN7C23L1J+ufSn76tjVxa9c2h237tmO3i7bf2eG+o6ZQqTCncHBn8M7mInpRftG7XUt2XSm2K96/m7hburu/JKikdY/hnu17Ppcml/aWeZY1lmuVby4f38vfe3Ofx76G/dr7C/Z/+ln4c98BvwPNFcYVxQexB7MPPq2MrOz8hflLbZVGVUHVl2pRdX9NaE1HrWNtbZ1W3bZ6uF5aP3Io7lD3Ye/DrQ0WDQcaaY0FR8AR6ZHnv8b/eudo4NH2Y8xjDceNjpc3UZrym6HmFc2jLckt/a0xrT0nAk60t7m0NZ20PFl9Su9U2WmV09vOEM/knvl2Nufs2DnxuZfnk84Pti9pf3Ah+sLtjgUdXRcDL16+5HvpQier8+xl18unrjhfOXGVebXlmsO15uv215t+s/+tqcuhq/mG443Wbqfutp55PWduut88f8v71qXb7NvXeuf39tyJuNN3N+5ufx+/79m9tHuv72ffn3iw7iHmYf4jxUfFj7UeV/xu+ntjv0P/6QHvgetPwp48GOQNvvgj84/PQ7lPyU+Lh3WHa5/ZPDs14jvS/Xzh86EX4hcTL/P+VPqz/JXJq+N/efx1fTR6dOi15PW3N1veqr+tfmf3rn2MM/b4ffr7ifH8D+ofaj4yP3Z+ivo0PLHsM+5zyRfTL21fA78+/Jb+7ZuYK+FOjQIoROHERADeVANAjgGA0g0AceH0TD0l0PT/gCkC/4mn5+4pcQAASQUiEQ31AKAcUQaiCusA4CA23APAtrYynZl/p2b1SVE8BED3PTsmK6gvTTka/EOm5/jv6v6nBbKsf7P/Ah6vBQ3iLQ9EAAAAVmVYSWZNTQAqAAAACAABh2kABAAAAAEAAAAaAAAAAAADkoYABwAAABIAAABEoAIABAAAAAEAAABvoAMABAAAAAEAAABqAAAAAEFTQ0lJAAAAU2NyZWVuc2hvdCHhRMQAAAHWaVRYdFhNTDpjb20uYWRvYmUueG1wAAAAAAA8eDp4bXBtZXRhIHhtbG5zOng9ImFkb2JlOm5zOm1ldGEvIiB4OnhtcHRrPSJYTVAgQ29yZSA2LjAuMCI+CiAgIDxyZGY6UkRGIHhtbG5zOnJkZj0iaHR0cDovL3d3dy53My5vcmcvMTk5OS8wMi8yMi1yZGYtc3ludGF4LW5zIyI+CiAgICAgIDxyZGY6RGVzY3JpcHRpb24gcmRmOmFib3V0PSIiCiAgICAgICAgICAgIHhtbG5zOmV4aWY9Imh0dHA6Ly9ucy5hZG9iZS5jb20vZXhpZi8xLjAvIj4KICAgICAgICAgPGV4aWY6UGl4ZWxZRGltZW5zaW9uPjEwNjwvZXhpZjpQaXhlbFlEaW1lbnNpb24+CiAgICAgICAgIDxleGlmOlBpeGVsWERpbWVuc2lvbj4xMTE8L2V4aWY6UGl4ZWxYRGltZW5zaW9uPgogICAgICAgICA8ZXhpZjpVc2VyQ29tbWVudD5TY3JlZW5zaG90PC9leGlmOlVzZXJDb21tZW50PgogICAgICA8L3JkZjpEZXNjcmlwdGlvbj4KICAgPC9yZGY6UkRGPgo8L3g6eG1wbWV0YT4KMkHPwgAAOp5JREFUeAHtnXdw3dl13897D72TAAuIQgDsYCdYd7mF26VdWWtrdyXbYzl2YkfxTDxxxnFmMpOZeJI/Yid/uMTJOGvLdlxk2bK01qps5TaSy7rsJEgCJApJgABB9PpaPt/7ez/wAQSIx4aVVrrkw6/d3y3ne865555bfgGrrYubHwL+yW2OqcS5zes/fTSJAjepP+nBTJcBSzNLejvpdNpXU4kz7cs/fXD/KBC34P1L7KcpzTYFkLykEE9RrAIp6M5U0gpMlZ/STko/lXRcFZLeSarShNNU0kqlbhMSvc1FCkW6zdszPvp0JS8GePpNwHDCxa0VuAUAxZ/hnVtT+UzcSbNI9GZFppSEm4+9s1TZKQWC+lwuQBR9POkIFyiFKGUL6iY/gayjrqNh4sN37hH3/XSIcdsQj932sfcwVX5W5rcLlMuV+XZx7u3ZnRss95PLfWYRLgqirYDU/cAo+OWYpfMLpJtjsugwEfjFIZwA8+mn9/20OL234Bfmdqn4Gd8uDs9u0RIzxL/DxxPbvDt8+Z6jT1W5GJyfFjLLn2u2dJ1ZxTKyyfKAbW8yazph1tkBWCP8xhIESlVa7rnEtybgGOfW2/eTx6dI3d0K2PJ1qbDadO/f431ELZmJVZJ4hlk2wD398xznAJrUI/ekRg01Ghs0a643O/kh0thNfACMSWSTE+LybkOyRE+XhiTfz2868IReSmp6ukxmvh+wZUng3af6z5ytH8PpycQFmYtwwVyzh14ym1/DORLnWJh4fpsXAEwBKhV6+aRZ/R6zoU4v3jix/Iok+DJx8NpGEVU3/Dj+MXFPl5PbUBdFz/VLMEoc7eCn4dQ4lxMCccfLM+HBfbtIc0aBn5xfD//6QR/VTsVp2wzJCiBZAQhSVGq2YLVXcRGopwFVCUjFC83KuZ+FVI5CwGCeWU2dWdkSsxaenz9g1nc1QXhADxBHPwUZN/oZ6QXVbiLBcUmyfrpPPCdNiXMHELcVz5egYNAChTErr8i1HEu35sYeGxmg/CGIFsxHC6DGHbh6b3ZCwGpWi528MOvgQSwR2BGXYsg4eewrZnNXQtdssxEk6u1XzQbbIRCELgLAdc+ZzavmGiAkQTFZpBzDMMGpw2aXADHaR32wWFUzgaKj6ubAVH66nwDOGTq6x28cSKnpUfhjyEorgra4OtN2Pb3aShZkWDqvRcbGbGw03d59q8nefO2a2RjgOaA5zGL4dMETsWT6w9UWgaJlgPbQy1znQmjAad5vtv81CCtpkdQI7CyMmUVmWx5HQgExxvtRIcNzATY2YHbmIJL4EXG5DgOukw4eO4CIK8B1T10RSbwLtKVpvJveZ08/X2fbHlpiBYVBS8+IoUXH4K+whYgaRCojEdJFfcdi2dZ4Jm5/8t8/IS3KNcvhwYEn7p4pOOMAjlc7FgCwJ17xpE7ADWOMvP1ntGdYlnH6dRId1xaRcCCTH92H+YvN1u5AIjmGClwUi0HYGFLYf8Ws4ZRZ63kAJa0o4OgdhRCgxbkO9poVxOzRnWuscnG+VdXMtTlzSDttCKAwhJz6VH5RhFwgh7xeDKIbR4rjSG0snG//9w9O2rkjpOkYiMMsBUpE4fyQdOrfmvIoRp8ppBLHGQ5kKglYvBQQyqk/wMl6bDkOgF2cCzipNAVAVhkDSGIcKWnj13nZrHKt2ZINAE97GUTdpgNAQbXZxjKzqjVmFw4BIr/4Ncudm26LawqsYnGZbdryiM1flIlUDaAARiwU7yenIcvICFkUAymKRAfiWRaP5lrX9RFrvtRtbZdv2JzikD38eI3FQ70oiBFbvTHPzn2Cqo5SOIroQqq0TES/m0PaBItIxJwpU4Ey2Rq7m5z1jt/OpBdC/I0AR9sh4Eb7sSL3OY734viFSoDoLilIHCkL36CdQ71eOkafcKXZ+kfpYkgKkZx0fqVRq1gIUPNLbMuiAbqPcQS3F207QlV7kR6kypUFWyiUZf3DaTY0gh0XCVlv75jVn26z737nuIWHYKpInoXSiwH1AobLIqtcHkQrj9qmbRX27a+TfzAh2T4ddZyJVql4YZyX6VYip3l9pMQDP9Nb4928cx/BC8RFOCq4GMmRESJ1KavtzMdmAxgCUcCRJPpB5XPqU+ytc/10QBIDqMGWD8069pDeetv25W22pixo5VmtNje7A4UWhugxC8fGaO5C7s0g1mwgluFUYgBV3N03avv3Ntvej5qsuzOd5pO8pS6jGEoiIMwWDSPt8Xw7fqTVKpYusoz0IEWM2JzSgHW3UnZnOYtIieDK7F9McZzpuV5JVHPy20he8i0yTco3+cmE8wnvTHhyZxeyMoNIyYottDO0eZJEtU2XAGACSIlk/YoK1HFDJ2KBorjt2Fljc+fHbcOWXFswj8e216UXh/PjWJwRKhoKBS0jjlolIH/Wez1sx491Wn1DxC6eG7Hhy6i+EJZmHE2gsvguN6RTKbrgJCnT2qSyY3mkglXKgy1byuytlgucIX2u28FpKlLlEp3hzzTpwFazHHzmgAHisvpqNmE9lnABIEiFHf/IM1bE8c4SlKrUzw9Yf+A8b1HUymti9tznV9ui0lwkK47BGiFmAJWIdRjP5CzMz1OLUdLqG8631q4Vdn4g2z64KImCcRrO0iai8rpR1RJylWHc7PcBE7fyk2YQMIB54XwHhyIEs5lnQSutBDT1IWO0t4LTAehXllsPIKA2xVWJ8CDzcpX2RZaMxNkFgLZ5J3VFGtRe9LSZNULIKIQNCjAAjXDMHEIyr1v1yhL7/At1tqK2AkJDbLVrEDIaG4Hc1MOpNjrTAp38YpEi2qoi2/3WWfvBmx9bwbpHrG8xgMWLERBcbxHKUYlKLMNibQfEQ2/S0acM6pKoqAJLNJGTHCs2SJljTrWrqQ3b1eZuK18mUCO2YhVdBQEfEwdwT/Xzq8udacM90JxazlbwawJh1DcL0j6UbcBKgJiSLPkpLx3BWOkEqB6kcRDTvch27Fhp5ZWFtnBRgWVkYZrbANbh1YQdIMaDWCQZMDg+XGjdHem276N6q6+/aN3dI2Ch9nAuz4qsby9q7TRqeWkdBtI6AJR6lMTgHCjFKn0G67StEb/pHqRfbS6gCb0Yccgn5tQoearLMVZgP/zOx/a1/7AGjGKWmxu1jELayRsAmOw6480HFSaC57cpt8vNccrdsIsPnirP+xm4t1Y/TE7iVCRs7DwW/sf2yEtFtmTZClu6ooTmZ5R7UmOow9gNZItJN4w4RLFI4/g3A0jI6ECeHTvUZpebe+zI4Us20AEjxJAqSa/JeuUno8dlgwR3XzI7jHRdpCuyHOapWs2zIsqE9OcAyjKALq/xRi+aTpndIK7GD2EQ+gyeNAlE1GNn+wiKKwMsARkvz5defty+8erHxCdPgT6ufjmdLqRE86npPQk8cpg63s2shcFMcW7GvnnmKgwRsMzoUJnVftEsD/UlVRfrshfqQvTRN1t66LqFw2Fud/EuZgVusAAjDUE8K8ODUesZxLJbAHhSYai9f/ibQ3boLQwNjAccoPwATwV0vkyOYhQRSI2+VB59yiAd9Pi18xbvaMKldshs6+fMSqp5LikkTl455ZtPewy45w4D9ElcdJJESZXSBESidXQN2dBADhI3hCcm3VauJf806hh1qkDFf6BhInjKaqYMHTFUARFJgXP3ko5+UCK6Jk6AyshNZajJrDCDGDW25uFd9p0bj/IalSRqqOCKbVzaZ+nBTlxPYfyHWTC73kfKImk4gXvtg3eP2NHDrQhArv3BXzzJa1iZ/BtV/ysu4Pz8E0dXPp1LZDj6YJIfsHNLeVOurktm7/wVHfxKs7rnwL/Mwz8NIDMAcM1TgIhRdfYDD0hJIYaQ6hUbitn1qxm2qCDomKlw7rDl46Hpb1f6ZMT/GUMqcVSNKQJdhVTe9t9UgSCWIwgVdwXkWoTSfQ6uYlKDciRnh23NhgW2cvU8W7Q4YAuwyIKFxfbWCUpzHYIr7+Cg/dKKISuwizYCgUORbDt7qttOfXLDmhoHra05amGaKY8Q5YwGce/ykM0vz0KoYla7psxO7EUFRmm/XKTJ9VGhyE+3ZUT4QSpQ94WtuiedGCxv8CujLXz4BYykBTzgoQaGc0sxrF4xW/kY1ulerNOj9EPRDGiDj94+al9dXYpgx5G+PsvMHbZ+x+CA7zMOZ/cU7k9XAQpIkhyXiyCqOffU6HPIKIhbaVmOlWDGr9k811avK7OMbHpYEE2Qo+zsGtbfey0QSNyLi744/bgFGco5crbLzhzrtTMnkb5+pDQG+GIIWaGOwcjA5Ruy+pM3bGFFJeDBHOsXQ+gD+EAF3jThThi0jXbutQasUMq4bDv+0yUkKpAxiHJRi3UvmlUhiaf34Dg/bvv3nbVXfpOyyDrG2b3ziU32mgyvAO2oc5hPU6b7cBsKJQXRx7GojhSY/xND4oacv5K2jDFGcUZs2ao59uzn6qx6WSG0HgIk9bfUXqlrLA6P0WYFbMzm2+4TABIp433SorPd9cYe+3o7BFOaTqrFsRqSEWMQR4TXT/EVAPXSmbDteg4XVmwYP2MMX2W+NZ9KxEkGakJ9vNdn/CsuD8M8l5CuljNmi5abbXrGG8mQ4UN7bPmUf9tLZhueMtv7V9Z0JdOqS4csjfruqFtqr/0F7jo35qg63IeQrDGSkpsI3jhwiqGaJwgG8b1zEXPEAnl99pWvbgW0AssvzLKsbHWFh+C8DsxpxcXIkKzJqAhnW3pgvl043W4/PHHdzhdsARcqxRCLXUVNtbXT/ueBDyCrbXQqR5VOVNwBoHwTRUDamxvCGH54SzAS4ozdrd1QCXh0Mdy75O+YwL3ovefXy2cAkpo+4IlhyCeq8qmroDkzHc1IYIXZdtrELKQvRp9OpJFKffZf26tnW+3FQL+tL2u1nPwxW1CRZ9cu8uwBh0mddJUoKTgu1r0EIbCyisrD9hu/9RweBe6HBqAXbVIYfY+PL4DERCOYzrFCa6i/gVO30Zqbeq3hQodF+6nwxi+bFVZTcQEMcY6/A4FwEI87CiaDprIobx85XeND7Biy9qt9DJSKQGO2qByVGbrMKbwo9eXUueImv+df6+gHnitKcsCadLdc3aU1hlHJtImtDE1dv2JWvQZ33jZUaAl5kR99yGEszm8cb7fj17LsofIoxmqtXWts5l1pE/l8MGiEdsKJ4BVLNFD6KYCcrE14ww8TRxWUwYSQuBbH6hSvxs++XGcLq0YQHllYAMIgZGAs29qv9Nvlli47ebzFjnx0kXLLIKHzi3fe9aNKltE5pg2RGa3Qdg7Ju5BQl1wrfZnh4yFB1fGC61rl4Idq++Rgi71QsQI6RBiLm0cePRCHo0f68VQmXE+jfpIic8ogq5NQ5SdtkMhX/tQBGOTMVYyWD2n7qMvS9TxfgATSr4wttjNt+jUztLUTSUX9d7egPgcptdzv1Nv1E0nPMRfgiYkn1HliScavxmkwfsedwDq3Cyo4QWpobNAyy8ZsfV0lwHXSOU2z/u4M++4/HbD9u5s8sCKAJU9HoFIveYwlAyc9lw453JqeT0VpzyKoo+PvJYAjXkrqjCRdUPyYHdzXas+9UGtpWQErmJNuJWUZdv0CBJZKvuvgM4+Xh+vPOS2hdAEy1msLlpQyJWItBlmxDWX129tYxIdaME4igKi+ZqDabE456nQVLrd6s4/ewWt2I1FX3AwAKI8MERMg3nVh3QyciW9TbhdcPfRHHMMhK8uqF6fj4aC9kf8ulmOv/uF+u3RSHdcyIqgwikhFdZBLyY2Qcz+X56VruQbEOG1j22kzOsmOE2cCTs/9MpGsl3aMgfY87ArmlGTRvjLy/eQzq+ybl1rJN1FeFT3VoLiaOe7KS2ZiaY0p5oSsesUCW7OxxJbWFrk5UPlFQYxISdJ5JiJF7ZXlIXusZqG9Ub/BTl0hDWmjdH7xuYwvPmT2Si2SivV55G26usigOvjqXzotoIyTK6cC63ryvakZcnrJcx4JJSYQkB6uc3KyXf3irtMdtUzK6NS20+UAKhWgwgnAECBFszkijY/+HAJJZVSoMYhy+Huck+adEJg3PC+JkgnaSG/MervDjLuKIIO2aesS++arqDWZ546JkhL31c7UNFDK8CjxMYAWL8uyRRUZtqy22pavnWNF8zRqFk2sCsAwE9HJP+TasjjMDEO3XbLa7jP29MNb7YPmhfZJ+0LSwrCRxpJKXf64Wc0OBpg/YG4NQHahekVTUV9CeJdhksGSVDvV3TEBQGACa/Thk32X7Zd//XE8SMQDwIVlcauXHpejWYDpoCCdLt9iOgkUlGNao1IcAYdp51AlN5AQtYUCcKbSO8lMJOynLwZhysHB/SfthcoVjvAB3G45c8aY8gKzaeKu4ypRhjKo3XLvivCc6yfmzI5bZmEY3ziS+9wq27qjxvLz1fkHLEYINE9ljG5DgPdDmaoTg0yjARuguei9nk2722B7P6y3cDctWna+/dGf11rFplO2vafJXjs1z662r6ZsGFNyu+E1shVPASTSeOIjvDX4QIfaKJ/oS9oUJ8QwWFRM5NpZHvnBtZX+xc2jsE8KpKBKcvAq6VOLSruhkBw7X3/VVtYpg7DVrl1g73/nAoQQEEnBvUYi6mhvewwuRPpU+GGMio9+QHlp8wTw5EImJTHhVPH8MumBrgF19ztn7QsvbwSHQcvNS7N5jGY3X5Pkk75fdPcetyQxAXVn+qy4JtMefXy11W1dYZkAqK5OIG0UNhqDJ7CgeSdGfPVN02jDo6OY/s1mB/c22qHDZ22wJ27hAdIbI5MobTyxYgB78OB52/TYHKuZM2gvV0fsD7/+bWbD/SsGH6tIEAA1b9BoF+ueNFu1yewSnqFjb5FOD3mijh1wREkxTAIv+S0K5tqbRO2dOZ+P6+qKrdpYTeUitnzVAmyQcxbuFcEAUFGdpOgIOJVw3oIlcBbZRDC3r5xzBQ3C9Wqa7jwIER8N6NYdss62EZtfhWqjy7Fle4U1f9JKUSCsU91jqOsRK68qtjXrqqyyppAOfQn+R8x32sk4fbMQHe8Y0yNibso89I0xwIq6v3zpup092WoXGzuZeNRj/R0jJEkzoKn3YjynbXwaKb+Yvb37pG149GnLjA3YkvxhhgHrLf76nzFKgXaoxTJduJJ4pCEDDgm3FQBZutg0whE/fYBnYmok0dWRg8LN6nrXSX+nBk80ckFvKjGCo1vAWi520aytRXX2WjAjDlHK7egexN91jImnVwRgBgVc8yiE5CjVqIlCxz6A4oMAJ+QA20+bsxnDeJl0wvvKh6GX5sYuW1BVQA6jzOhabof3XLbR0TErWZiHZbzOatdVWh6aK4bUxdUOB7o552VnptPJH1O/NMe6GN652oqL7uhRO3Giyfo7AV7dHbXbeF4d0d07Akrvqw4qh6sw8QLW0cpk3H6cB3m4KDLC9tgjNfb+d6/T0SffqxhpzK2xVdvoSpR5dMkg3XkAWlyF3xRJPPIR/clT5NtL2slhvPLJN12TOeHGxAsVUlKllyk0hb8IsSwyB84lA4iwdlOpHd0Lt7t5jYrHTypWbqUyJE8crRFmcVb3FQpNhdXeuP6N4qvydxr0Dnkwq/rk8Vbb+uhWZnUxbS+j3/797+4gyRCMxYQj2tSYXQMs8tQP9R5nwpE8JJFw0G7Q2T9xpNG+/w9HsQRRazGMKrVPOnpcyLnqDwMLOIE+ro+5dkVXHQj4d6M9GTZCy5CThzTjOnz8cxsBbzdpUP8RpOrcHrOLJ7BCocv2z8EP85BC8gvQrORBr8cqzI7SrJx4h3eQdKfFEul7uUz4O7XkjUdJelEJMb0gNpxppyHYyq1jSB/tTAVGhywnLcMSF2rquZzJmz9PAUhePkv6iNYA5/kj0w5gXnFcO55Ziiek76xfQIiM2dEPL9uhdYtt25NzLI2B27hWESERcoWrxQpKvcFYyAOjFF127MhlO3mky3q7Mm30OgTVVAjDoPKDjLPkAOYeSDALeE0IPnkEomYGRILWcK7FtpUvoO0MM8sjD2Mz3SI3RGaYABUdiDLdsGkfLrfz3gjGhqfpSuUDIlKurtT6XXSjEIaWQx6wk+2JpALcCp4KouAXzLvybuhZOANP+inAq6bAEdoTMk2j4KiwENIUVddCK3zmVlFZOE7pnPuAGcyXOUkOkymR/GzS+YQykaBGMZwmEHMU2d99/RPWDmy07U/KMQ6RAUu8dhnXXHPDGHwzbOfOdjPOBljKVg2uOt3JRpOfx6Ss7+gSiT90oMG27aoi6THLwEJdsChkV7oluWTAT7PZAtApONRj0XMfoiYP0h4+gevwWegIiGno+FpUa9sZspZQTB8mgpcsCZMrIxAUmN94saETIVqDHaJpCjFbt3OFnXi3DeDIXNPOdz4PgURECj2Izq8/BrgUJDl9L7WZ/ya/M14miC8UpNEAKtwXtG/8yRH77t/n2tKVAEi34cypqzbaRxznwkNK1SZrYpLESISU9angVJOO7urWP7rvx7n1qXfHvUuZAOXc0Ws23BeyrDmAhIZYvjrXrsA46jqFZBgRV9Pko+oryw8LP9mxN5BCjJrSZTykbHPmk6fSUzl5QeWdIogKN4OLrIhTR3YRidPTOcSE1EKsMhp88t+1ay0cIykjo5padHkpSYhg6HItveoFQE1pv5vgl0nHqYK8/1rLwHjbcG+cmYPtdvT9dhvtziRP1JD6mw4ocTFl9I0kSZ37OcpPlfId3lN6MEg41y5euObejZPfxi3l0MWTvCiASPKI6OWtoS9NMs6inEW0s84+gE7DqH435YKoAnEazpJ3mYQSP5ell/b4Pf+ZjAz/F8m0lsZ+l6QKU1rGsA/9JctE8jY+4vXrJGl9jRgqH5M+536hHWMQ11Ugka+fx1RHv0w6jj+XROldjs744Rl1jo1BJOZrYjJwDSHlbSHKeHDZJueph8nXd3nu6KKkyA/r9OL5GwhLjuvo1yybZ9mFCcBEMZXBD667ATgVG7w2T/ajpKy5gXKrjmKI6cuksQovwVSPrrOeaR+9d5L3NOQaw0MxYlmM69nKzVhNiygAbZI6xPW74SJZpRRa5Z+cWap5ThmPm+4+FXQqWhwq1ah89Idz/yeJcD8RI0EQh6rS8NMhukvvLo684t7VH/I5X98Ov+JKBIg4qnPNOmgiY22cDigKgFbbx+wljJQnuAH91PXo78S4O0ZUzp3RJRCnLqNi3Flwndl0TOwGmjHUJkQIZPbbvNoa5kKuIqNsj2ui9OtYJyfucIVUQT/LwbVLEBqAms5fZRCaGdvqXqASlqxEI2VQf7VxiidawERxdfiXbsXaVBsnBkOtN+J1GQJ810URA04f7hw8cazUFaqzuZEJsI6D4vb4l57GwkRdqXCxPnxJbxJHUyIYhXBtDvc/00H1EzAcRjLt2OFG5B86YZFXLgUkzaJyfWaPDpqw5FyGsjSDPNfKzSHaSib8hvAWeW2dkpsewDsHzzW+cAic03QBFxB6moF0W7SIzLNRlSpwmOfy20lFaY6m6zt5hf7s4qf6qa4iaY6dOE675ZCMW1l1HtoRtYg0BWDkgNSnoq3fiGW51GN4KaYj78Dw3TTVgCnQ5JDWPFLFnyLcOXjOQyHVmGnnTvVYGgkHUQ/5sUbblI9el9P57W9iAiN9YhpxmMLU+XvPPhN/RUoqKXWHE7rlYj/t3lxUI64ypGrV5kqeA54WohDFsosYoH6GE0kZGF0H7JazHv24O04vp7V049Zw5+ChFh33YCQ0nGohM7wXEVR6vM9KioYZ7sE3py02HGiUyrV1n3nkJlE2gOuNxS+jRRiNclxE7LEnV0ELT3XGMwBw2SaIprYO2sD8sT0/AEd8a76U+YpK4PkCMCmXiV0FRZrx51mYcVTiKCPZx1CdMfp0ATwWS+ZgpJz6DpwHNykdZ9wkgJsqXamVqe5/Bu7FhgJ24vAVrMqgpTE5q2QRrRfdOU2LdNuVbHmOC2RHIHUide0XOeeZQor1v3PJ8xMXJlnzrXmsCksdfY5ElhUCWs9pGmLav8khuUD+MxX8sxoY53vjex8jSJKPuOUVwfSZgJNOk6M1EOl0ykUmGSefvIsG6/eAdH2/1Ihyd+DJKJF1tPkZOzu0DJcPi/LJLysrYk995WewOpdQOMxjAeyD5i50g99nvdsg2uO2a2u4jrNE812oNXN/tj+2nnG8YoaFHuIO9JOD/Vo9Iw00NVprqJiuf8dpCsHz4KYQcTyKP0SUiyeeeRmXu/Dgp13EMMIFxnhZfu1Ss595yYIspYp9+I+0gV20xlFsF/x58kRIpwtQMYCv38cT/wydaGQFR3PnFRwoq6gro+RrdyyzfSNzaOv4ySqVG+zkW1R6FMXFrDLX/onBJ8nUNHSaFCsF4uFc1Try7Kd+GbAYUWAgs60D7mJOStAGbVExaiCbdrAYb8vP/mezJ7/K8qly2VnSrMTnfe2DoguV87Ma5B5kVe+VZkkUUyoAr2LFIsuprvC0ljYm6GjFuGtEdY7C2kAhSx6JTTVMNFhSeUutLsP5w0WVZCY3WJrtZUF+lJnDQfyJBTnyY16gEBRauxUt2YIk/jZzOb5s8RIKLq+DNn0TkPrNFHy1++N2VL3oNX38QQO9By3Gillm8JpVzBU4/LTRz8HXmfUPiBIhZ1XC1M6nCWFSqG9qkufcPAlKM/8itOMJQKAT5+bzD9uhb+5GBbC9E9xVzLyQLRlNcBcqQaPmGXCTVp3WPook/qbZE/8CB3YVhVMncIbgRDUVhGdIZ7YfS6NI1THp6tKpVrQjvhbUYigNzcRsNYvQJdD0v+5GmhxFTtBC9HQOjdQKPDN4SlvBeQ6QNOZhRLW7UEhSx30tiWJh/Uivdl4I0Wkfsi0VSN1rf4yD9V36Lr1evHRA1MSbJZvNXv53ZjtewcIpIV24UCayRtwlim4knqNrW5FSP3+V4ccliN8ouhvZoFN+nnUbIVRiiIm9i+eyFjF+zuxDulT+LDonegDonOepVzgFBUticnPJc6CF98vpXGq43vXhEP1jSB3Lmdou91nhgmzyD9uKJQuwXT606G5a6wVHmYi0HdBX8D5qVDv76bhml3cPD7qd3Y9fjz6igFM+fnCqI/XK+K/9aBxFNw/FY+eGbHNdOXw4aEvmD1r2tQPW132Rukp2/Pr5x9RLP7PkCTj9lMmGHYBRhdRJWpAuTeXTDyty356z8E+uUw8GgHMXgYX0+TUk872/M/vh//MWl2jGtCqlvmHhYuYwPm/2pX/LcNJOvOtYsBqgdByoOSgzFy/1qn4KMaX2Q8w8iG+yMQauIxgxWdF2WxCHqdXua+jsHkJq1FEsScwyHKmu/0ahMvkdegPRB0Q808f3tdrYCASnwBHcQNW1edgz6A6nEvFztp0AwD83+8FfMmbVxjvck6pUpzSnnCnxv2D2xa+hVslDpjQgeitryOfHMchOUFPDMunegmdsgKGyEO1/VnDU6lZVUG/olqxl7qKOE8HzLZwJZqDUJQSuWcv0xYWAQS6a1HoVsdc6blmUafjq8HFebAAUImgnvLqdCSlSJdR+UdAgCzPtykGzf/pvSONfMtJ+jWekLUtLXJi3mOlvv2r24r+hI0vbqPZQRk9ycKooAagOP8q+U5wXtv5pyphvjUzLGAhjdTIqM5+ZB5bB0i/t+ekI6ipym/NkAtw8DzHJ8L/cvJx8RuKaTqCNbr4AQdOLICZxhjvMvv91SxvsIWufkGm2gFVES1ktq2WWc5mT8fbrbexCDPEFjmI6wnOttW7dAF1/mLYOgyafdHPwyMitJrBzkPJqwJu/HAlF9Q4y0VcdfKlRqWypcNJyg7y655iO99yReA/6SAlcGdzR/wPzOWNLjwQK1/Nq8ELRLFDmjMhlW4F/Mx0rPJvJtu++ddJiLMpMqWVI0I+Kke7N30TwVGkfjESvXjMg49X01aowVNymaoh7C+3Yqb20t8SXalBZ+QVysDQfWko8LQPD63NmEIu4ZzxJr1LETYSgvApaYKld/iKo0SJA1OoaBNWBlEvlNNJchSrt6QZEfq6MlMFxkdjEL7OOsxQcbVTp5ED+7r4YFZM/c44FX/wasxTnUh8xWputrwQ4dtNNx1Jva2XvzlbiOaMlOZ2pzqeuG5RPCg4EoeAXjP6JJoPuxF/prESij0Hk978L7bA05YdzJr3SYO7GmQ66n3Pd62lpcVu5DuJr3y6HbHJWKoxGJ5BATQ/Qxjqn9pj9I92L9/4W6xVXm9/J12LNokUsVvwq0v8beGtWwDCSPhCWb9DlP3XliDRLQa0zdfCLof2xF+DzzaSZkWhlRq39WJMFBpnBjdaJxvrtiWdgyDFo42uJuyhpMkV53aF3MxkRaeMTEBcDQm4xbcLdcAIpQZrUSXcYq9CcYJHG+0N27sw13pcyDQNeIWVPSMkEZ7SXj9dcUQRdakdb7Wx7FhBff5VR5dcBsZMH5Kk+pTZ6K0GNfvFfmj39a8zvryFt5tD8iLjZHG4CIgw91JXa/Djlw3LWdMPeLovs2WeNR5vYXEGqMmqLKgsYWIAxHeI+6lzeQZgEnv9mIjFNUl21HeJRCLU1shDPHIDQQ04VeFzjv8OReZL79552XUAto69cghrEnvGcmhwdlym+0CJr1w3Rff+nE8C60YTr6Adm3/oT5u2/620dJas1E6JoS/6qHWYvAOLcxSRFuZTcpxzG52OqC6RZdOoracqj+sNnoRlr0/e/j4EXyaWloRPEKEN6Hl4oaQ6nPfxKJGifQn2mBs+pTRJROrlzHZ2lt1kOhFunhczISO2dA0MWjIIiZ9FZ72c/EgiMgzWOyly1ZjHAU0C/0XXv8L5vJeo1NRO69tsMxZGB0nfFbN9rnjq99IlnnUpCFT+vzOypL5M2ed2jyU1q9yW49ldG3WoYXt9BEihDMPyp3aQftfNszDrcT+GpWhrdqE1bSonDhQPPLwLXk4NuTfGbGjy9rIkvRagqJx2OuliIHWSkhzwDjICILKvKZ31mRV9uYXe+EaxTwNW/R3bVEh1pmio4IKco7HhcnmHU2OBls91/gcvtfzHifJ60VWzKoFW38/jdLonxtB7kiZiRZkNZbHuKcsFYWmQjZsT5bL39kBMa4lm60kJ7TohBky0P13CWzbtoNuc/1pPpIdHT5DB1TJVCkkKmbudWGSas17Ydz2H91UE3dDUFC4prnNWn+MQB8DjrBi6wp6Vmbmgtd9UyCqcJuFNR2Acv+UjM8UCFQs5wgQg09CFtt//Gq5QJFQqmjrs1uHkHFR5P+36fyCuUPd+sGkNEmkcMNtaLZX4c/oZOmr09yvBZK+sTATaqKYHLi9nyi3hOCBzR76hUvDlNcGnR2LYeglhQahTp0aLAR36J0YH/yFy/jXQBmRXsqJiQTAHOvixvfP8wiXJOGulMB8wsgLOmyskHbZoiSJVqe2EXSDuqmVfzsDaVp9SnVtvKw+P6ftMl8oDuO3VHBZ2qJw8Nvi6nLc5FbarizFl1FrSWcsOEbkEpoB3/5BLsrr2p8UbR9i3FE+U1K4A73v6lVuapSHrzTTW4e76FFQjHy2CQBIpQc1FVn/9Vs5f+E7t4rEMCIKrbZIDnDMo2nGi0oTHWclPATDTo0pWYzG6+J9yZ1C905+5aRADsW34qCpVyqpuj1nTXPc49qW3yikKg7nbOeVfpzMaPrN3MZ6dJKJOC7uVgWW9+mnMMFl13NTM35S3iKgJB5SV6/bGrSGQ+rQqD0zB4zUrP+nQRNT461VDZNPXyk/YymPxXRBmAOK//KRJ4xFMDKq/aQw3K6iMWz/8Kpvuv0q+RREjCIPAwW0xdVWFpwmn7du5aA8AjPNfL+qUe3KxjvaN05y7A67KEl0Ud0j+DhPfRDjsLJvU07y2myi9Gg+FcXTgXkLWPeNawDLswTHX+qKcZlJmrshiUE3bGPXmsSXe5HrVlawBdfUQXiXoJ5BRDCjFJ8Eaz2Tt/g9HwDcbusPrUZVA/L43XNUxUvoFO9K+Y7foFb7VnaL5db5HcqbDM3dhQweeBVMm7CCThJFJr3He+gPThRhMnhmmPtRe0/KXawG22gm8lO2JTOJUvr4TP4uykTGgqAdTZzIJSmpvkoHj6sYro5PFmWA9mpA+8eEkBnikxA03BHYYZwCM3N9UB4kQHzC4dxGD4K0YHAFLGg7wtmquhrQzlTVjxBOr01xkh+EV7+/gIK4bnoE3ZTI59wUoWQnxxqBsHTL2UAalp7Tqr7wYtWE6FVRY49eoJzHA69Wo3xe2zGZxnSaQjX63S3fg0Sgcm1tZcmrOK69Ct11CxJvwAiC5UM5syREYZnKXN09I4bQDkzR7juZqOFMMM4Mntw0cfnGEhtlFJMFxaIdw3fs/szb92TmNnOGhbKqmSNBrspbustfwr9sPTBdYdm29j6RGrXl4K4XmuBfTj3KtSTqgd1xRetxybcjUGMaSidzzDfd6VihmBaT74J66lbgD3DlSNUr73AAP5kocP06q3eXVXwXuaYfKTFFNlSw6qlIBhw9grfdgoc/CORRjjCwBeNe9DV9kFd9AETHRMJ+eVOBedJ9BaBXQddKw8fYPg3B7PYVwIaNl5XnPkxvCK7OKNZfZee66lsSfmAqyw0x+rUuwwxKfLXB9Ri1Bk1iCNGiHw8iFdN4OKjF3fCEKt2Om1KSqTJO/EmwwtnSctrE2HNHH5P2vBjXCQYRr1ffQL3uiHLGBpvvf+gS5WC8USUAKZ4MpGXd1qYW24E+YbEQtt4WLqrG4DIy973j4DbnSrnIWTWmVg23sM0vOnPsYFdAy9vxUV8jjmcpkHsMYBh0vth/VIThpctY7CnT1qgf7rmM7U1HVk1edRrfWjwuoOUFuBGeSbetHMYoDbwn3SUlvXfw1D5cMEcNyTVnCqJrUKk/i9B1+15UnqNpI/IGVAyibsAY2SOE3AtWvH/PJRN0mXwOFrnf39vRwxxam3tC0XPJdW0rmAnzncO3jkQXHwZg17uv4cVlYtvr11T9EOYh1qdhSbpzqntrb32PCkxfa/YXZhD20mgKqC6kc62kOEhApkEAVbByBXbvcGgdXuqT3B5xlkkwJvIxwRgsxnETeRNIiBFJMq3/AooKFxBJ62K/nou5yjOVzzofKKMKqjgOHH5rIFpXF74aVNtv6hOcAWxQSI20AvMOirLuJfV5fUKnRfwIuluVJCSAoqr7oa7MZ6QNxoaduW0TiX09bBpY676Ac99CIjzFT8JBJbz09jea6SFBopDFEhvg/i9Z00oq5ZZ+qMD99wm3LH3NwP8nFSl1pFyfy+BbfVVWkVUrfeA0X10vKsgW6vHtIkaTBzoJdpOZn28CPL8PGW2fwFuezGBKjpfEwjpH3O0jFOQ/b9byOxUpkCWGm59mPm4jLdfeZIt8ZQJknBZcq18zbwTPMzhq/SSW23L32RT7Tkjdg/X0TXj6JOA5jVWoetDdS2AWjtBtQgVuyFI3Av1iONdlRtnlTkUtRl4ULuca4JO4d2Yy/1c+1LqJgmUQG/DEnFuvPT5HopXZ84iXykIbTLu0ZZltfhh0fq5HvVxj3Hvs11G7MJcq2yiq9gLimxVeuqrHgebTwDsNqDOxjQts6ChyFunBkhNNLu186z038naeQ73CaW2c8/uVw3YwSsBDl+EMGZ0wGrezpov/hrD1tXWpm9cybfDlyUmqmEAJjWjuAUUAsx+1uYy/gaHpPLXiWyAPaV3yEeUqfQ1Wj2z3+KZNNWOCbRzeSiJ5/r2R0Gn+v1mmjmWU+JRJLTRnK0X5jGFfWVZgZWbeyIPZt+0HZs4zuzxREcToDEbAL32Ry0g7elM8Ko2XXhkPX3Ra0XJfLtv//IGvZhM4hRJ1vMLkvuK/htrHc1/ve+qM3x1MZPVHsqiVl/6fyg21mvJO20fWV9qV344HW7kf2zLOetoTYCkHgaeS6CIF/4bSzYi1iT+8wZAjJoZAhoPff5Yx6hnFohaQfg7TlzvDgznohSCYDEdLIUk8F072NsaEcH+S437fQkRROIMvrsa7v4PEE+m/ewz5nG6hRi7G0WZI8zb82+t6XjN/9+PxsxdFhvBxHCaB4UlAsuT+Xv1ydxf4bDgwNPnAvH9HWmMYbFRqbzaeTjvfbi9hL7+n/935jXtINrnjerWgt4tIOKL7/eHEB8pJZ3KZraDtVJG22f3885F86Peb+LrbxVXlGLMrhMBSA/yjC3vNg21i3h41RFNlC63f72NKpc8dkwfcnCIVuR2+C+hhnChedsL551dYzaqaNX7dTxK+zVGWN/WICXutfUf1/KXH7UhWwSmevEC3qW4Cf/1uTj/aZCIn1VHHVA0AY/GqCtKRZR+DjuylIMkQNsc9+Gu+1PGZ1YhtX2HItXVnuGiRZguE13pDIovdrPU0iiNtlWh1zDUWpnHkQQczCvsrgixxaWh9jucR67GpZZEUZzgF38hvE2/c77aIoYjOf8uG320upmuqX4cjsj1nqpz5rOjtrJT67btZYBKR5epN7anE59QrdimHPf+TyTS8yBO31FHxB4Uj1KmtKjfg7uO8+0zzr6dv3snR2zvDkRG2jp4RlAaMb11Su4vpbiu/wcklfJfSRRdrOAE2CPfIWO+iY2KvgWIAK6sHPTH2ASsboTGWrqVBZHjZ2JnUUc115wLW6Xc1uS60ZIiKJODiPaabmsH6Ct2sr6uRd+DiOJHfy0+Y2bf6PFH0qL/4d7lqPWC7z3ov1WiYV87Hvn7IM33rcRPmHqPECuI45BI4CcNiG6RlycKgZ4hfE2W5KoshIUdzq1OY0EPliDheIEM7Cs0q/Y//jzn2etYTcTxQrs//z+e3Z2HwWHIPK0xB0QAKneasl8hlZ2IYlreBtiu0k8kkBEWGNj2q/y6HsAhFkuB4Hb0pDnAsknhDr07lr3+CmoXRFx+EqzsaV+Cd882lBXwcfsa/kqSxrTV3nGLLa4tl5Ue+fe07vcj+bwVeaF9tsH0BI3kDp951aj+9/7Y7oHDTwHFIE2mfgk44JfrsTl1Afymfy+H9ExqH9x8wh1HkRQ5SURAMfSL+2K1H55gBWizLNk+P/RJ1YxSewCzxMuMaceIVqE7kA76vGNVsCDUGseYZSCNlAAyrDRqqJ1TxofLcJTc9gbEhrB2vP3NnMLPyGC1CqL+L32kTSZ6FqyuNBWrFxkK/lk6SI+aF+yMIfx0yHS1RdV6FcyhSMDRwDLIMGOZdp86KOrY5hvw7bZmfpmq9fMuaWPkRYWptoC7dLe303rkA/gqquInxR84JJuTX3qv+cfp4411d0HBJ4Kwg9VEGAANT7GtoWoyUo+GBXEn7lmfYUFcs7yhWyBDCiu4hBAbY5UGbOkg+3MKG5rMrflxUpUWVEpzYxMc57nV/LBwgq8L1vRZe/TQa7nHbobkho+0aYPEObOy7Ti4izbun2zrd5QZnPmsZ2+xhSZfhB1e5/QUZaEIaUhNnmLM87W0xW2a+2DGBkNdoK9qq9fBnh96CNUzGw1VHqMdktl1IzxswdR4aQn7XBPbfCdg0amLtxlJ91/fYqj6J8ATmdxDRkhORfYTO2hp0pthJ3MM+joLl5aYE2nr98Ez1lgqKmElnOaItyFdL2Nt+YTpK3OG1nQhqKaiCtDQKuMnvyCLexfYdfe/4alsTP7s89usC2Pr7O83H7LzIT4jJlFrZtyaJIvEoyaDWrupDtm2Qh2xf4Djfatf9zHNthkzt4pboq/5qEEUI9S6cs3o85hGA1nScpP7yUeaps2Vr4gbqqqdxlSeHcafO98Q4GZijieUVKhMBCO8dXJXx57mm3w2QKfVUVVDEI2nabDrTYrubHWiAXga4G92sA4HdggW/sGLuy2aNPH5vbz3EQXoxBpKBy07Qu7rHbumFW++Ljl59xgrk/EwoEmpEU7trP3CemH6HNqr68Q/sPOjgG22D9v9Xxg8frVdOu7ilGkMuubQMpaPxk+zsDA4NLWG/JhKgg4bd7deMqTOjGQu89xvN7erZuJ+dfTHZPoNF2UadrMB6Q2k0shQwFm7o/bpYartnSdvOghW7Uh195/HYA0huUsQMXj52Hn4Zngak3g1VYYhfNHrLL8ktUs/Etbt7WMD1jgveBdT/HyzT46xow/WSaVHWGBTAAV29sxZo2NQ3byRC87ZvSgChE1dTe0/4l+ms6vjVydyqYIPghu3JH0JPG51TAZ5zJ6jqIJhtAYycF/J/neLJxrpfuDycbnFh1VuXiuHTnUwDdjl2Ddj3izpmSg6bNpjss5VxskKVRXITDMhyJjCFjYtu2s4sfXRpgmp6GiiNa7456Io8bUbrGsBc+GPP1p1jNSap3ReXa8Nc/2H28ze3c30xI46uthzmQn/TGkTbO9VC4ZIu5E4HCq4MqBisxDGjXdUapT3RZ9arT+JGkhgamEB0XbRN6zIHl+LbOs5VKXjQ4vdd9JUq9AXwQ7fuAygIlwSAFfGykoz7PH2PZ4EwZJHh9dSufbDSHGAgN0nhl3ZgN1wAOsTKY+yFcYwRga7Emzk/V9dn6syk5op/YwbVp0Ls6A5cytob3qIo8PX/embmjKoEASk4i4PoHdPe4LOAci4FUtQ5LlRFf5IJX2TKHNBknvHn8/zTB74LGY/kpzL0ZFMW3RFRl59vyXK5GfK1ZSMoevo1RYWVUxnxFFpWUMs1RvFMcuoCG50g36LnqQkYggm5C6pX3HLvCBxXprae2zvnZMfvZ2ttzF3vp3TQyWYSOC63vs8zE8XlzEcBJt1WmMH03L02RegSCpl3p2oAESp+5+IdatxhKVhpZsddOfq8fC9IeuFO1TDgE+wCPa3P/gq00/ZXF4qNt+5bd28b2dDM9MxygJMEnXLX7FwJAwhKWS6CMGZMgwqh7kM9o3OkfsOgCdOtFkp09css6LqDp9Xtt9/jNhNHjmKUKCSBdVYGQ8gettFVMzkEDXKtK2aiRbTu5zRwDiKN6SdgwQ2kB5XGSkOO++0uN86xe9PqXaOanMPX+N5XsEjCmn4k6un1/P8SP1dYwxfuO+n8weeOJyzSIuHrTf/Z8/Z4Ul1J9+VwxPfUZ6JkckDN9hnA3XIkx/GBsK2gfvHbW33zxnUba6Nz7G4TwZmuYnNTsKyJmoR+gIdROEou1jOqK+DeRGLIqQxM3Peq43jcP5UwQl9gLt5Pv01z4mrX7eT0giFqplzkdSfwNrFibQ1MKBNpZi/z7xFIcwI3CKNBvgzWet7awEZQNR6Xdlzg/a8y9VMRl3mRvxiTDTKswknDe/d9TOHR/AsxG3oR4IrCl9rv+nAiaK6Zy6AOhmWvlFlyQojo4A69ozgYxEaeqgFqTsoHtRShvm3G0yiJQ2YIzRXzu3HyA/9Nxv8vpve/mmymTylP3wVQt08LEmZw2TvsvMZahMpwkqm1++aaLc4+2AzRZ4rh4iOiV2zl4mGLGNYXnZXOvrilmPlj+7doc4tG8BvkwSd98W4EVHJyXAiQMPArrJPLpGopxBgSRiygRRt963g/QeDZg61mq3JHkLMWDWYj1WcJRnROrQLernvAcV2nAAMElHXxfRV5kF/mAL6wR/D6lD3Wo2G/854ScQbxdUXv0eXJg98FwdHAoQ06+UKKFzn5sTFfUf6zLxSuLJTXr4aUjKFGn8OhHTvecnxIWLJxAhvD7EVAeIbGjnDdmQvyRSKtJJdCLeCF2DD76J+432UX1Bx1yk7+c5XqhP52SWwft0KpmcqzeKAViaf7KwBhWJlOVXEwXAmLrg2jNhrjkzpz40O/A9pI1zhZTaOi/qbPz9yQFvXDIlpT5pkcIsrFEtktnwEFYq3QuZvjc6sCzpUrj196hLN0Liv+Mffan2r2f/+JMBngNLxNYJP2fQAJIDBXXoRsUBLofuhzp6w7I+kTbX/UAivc4fRz8orU8fvPvvmPbr9yN3BDSpPdf30rnAEwCM4LmFmjfQjgIMI0Wf3XZfH1E84kyF04+ACgU8KvGTEsDCGUeO8JI4BSYNyXhU0KiBpFKrnvx1Br77zEVI/HHAJ9/4dM5/gpCDwE6CHIKfDrXvc65S6D8NyRS4RR1OAbZTt1Pp0uSEHvz5/wd43cfVsWN0AgAAAABJRU5ErkJggg==;" vertex="1" parent="1">
          <mxGeometry x="475" y="288" width="31" height="29.6" as="geometry" />
        </mxCell>
      </root>
    </mxGraphModel>
  </diagram>
</mxfile>
